<?xml version="1.0" encoding="utf-8"?>
<!-- Generator: Adobe Illustrator 16.0.0, SVG Export Plug-In . SVG Version: 6.00 Build 0)  -->
<!DOCTYPE svg PUBLIC "-//W3C//DTD SVG 1.1//EN" "http://www.w3.org/Graphics/SVG/1.1/DTD/svg11.dtd">
<svg version="1.1" id="Layer_1" xmlns="http://www.w3.org/2000/svg" xmlns:xlink="http://www.w3.org/1999/xlink" x="0px" y="0px"
	 width="1400px" height="980px" viewBox="0 0 1400 980" enable-background="new 0 0 1400 980" xml:space="preserve">
<g>
	<g>
		<rect fill="#FFFFFF" width="1400" height="980"/>
	</g>
</g>
<g>
	<path fill="#E6E7E8" d="M776.4,158.5c0-42.2-34.2-76.4-76.4-76.4c-42.2,0-76.4,34.2-76.4,76.4c0,23.4,10.5,44.3,27,58.3v-18.1
		c0-19.7,16-35.7,35.7-35.7h27.5c19.7,0,35.7,16,35.7,35.7v18.1C765.9,202.7,776.4,181.8,776.4,158.5z"/>
	<path d="M749.4,218c-0.2,0-0.4,0-0.5-0.1c-0.4-0.2-0.7-0.6-0.7-1.1v-18.1c0-19-15.5-34.4-34.5-34.4h-27.5
		c-19,0-34.5,15.5-34.5,34.4v18.1c0,0.5-0.3,0.9-0.7,1.1c-0.4,0.2-1,0.1-1.3-0.2c-17.4-14.8-27.4-36.4-27.4-59.2
		c0-42.8,34.8-77.7,77.7-77.7c42.8,0,77.7,34.8,77.7,77.7c0,22.8-10,44.4-27.4,59.2C750,217.9,749.7,218,749.4,218z M686.2,161.7
		h27.5c20.4,0,36.9,16.6,36.9,36.9V214c15.6-14.3,24.5-34.4,24.5-55.6c0-41.5-33.7-75.2-75.2-75.2c-41.5,0-75.2,33.7-75.2,75.2
		c0,21.2,8.9,41.3,24.5,55.6v-15.4C649.3,178.3,665.9,161.7,686.2,161.7z"/>
</g>
<g>
	<path fill="#E6E7E8" d="M564.8,177.6c-24.8-34.2-72.6-41.7-106.8-16.9s-41.7,72.6-16.9,106.8c13.7,18.9,34.5,29.6,56.1,31.3
		l-10.6-14.6c-11.6-15.9-8-38.3,7.9-49.8l22.3-16.2c15.9-11.6,38.3-8,49.8,7.9l10.6,14.6C582.3,219.5,578.5,196.5,564.8,177.6z"/>
	<path d="M497.2,299.9C497.2,299.9,497.1,299.9,497.2,299.9c-22.9-1.7-43.7-13.3-57.1-31.8c-25.2-34.7-17.5-83.3,17.2-108.5
		c13.4-9.7,29.1-14.8,45.6-14.8c24.8,0,48.3,12,62.9,32c13.4,18.5,18,41.8,12.6,64c-0.1,0.5-0.5,0.8-1,0.9c-0.5,0.1-1-0.1-1.2-0.5
		l-10.6-14.6c-6.5-8.9-16.9-14.2-27.9-14.2c-7.3,0-14.3,2.3-20.2,6.6l-22.3,16.2c-7.4,5.4-12.3,13.4-13.8,22.5
		c-1.4,9.1,0.7,18.2,6.2,25.6l10.5,14.4c0.3,0.2,0.5,0.6,0.5,1C498.5,299.4,497.9,299.9,497.2,299.9
		C497.2,299.9,497.2,299.9,497.2,299.9z M502.9,147.3c-15.9,0-31.2,5-44.1,14.4c-33.6,24.4-41,71.5-16.6,105.1
		c12.5,17.2,31.5,28.2,52.5,30.5l-9-12.4c-5.8-8-8.1-17.7-6.6-27.5c1.5-9.7,6.8-18.3,14.8-24.1l22.3-16.2c6.4-4.6,13.8-7.1,21.7-7.1
		c11.8,0,23,5.7,29.9,15.2l9,12.4c4.3-20.7-0.3-42.2-12.8-59.4C549.7,158.9,526.9,147.3,502.9,147.3z"/>
</g>
<g>
	<path fill="#E6E7E8" d="M404.8,317.4c-40.2-13-83.3,8.9-96.3,49.1c-13,40.2,8.9,83.3,49.1,96.3c22.2,7.2,45.3,3.7,63.8-7.7
		l-17.2-5.6c-18.7-6.1-29-26.2-22.9-45l8.5-26.2c6.1-18.7,26.2-29,45-22.9l17.2,5.6C443.6,341.1,427,324.6,404.8,317.4z"/>
	<path d="M381.1,467.8c-8.1,0-16.2-1.3-24-3.8c-40.7-13.2-63.1-57.1-49.9-97.9c10.4-32.1,40.1-53.7,73.9-53.7c8.1,0,16.2,1.3,24,3.8
		c21.7,7.1,39.2,23.2,47.8,44.4c0.2,0.4,0.1,1-0.2,1.3c-0.3,0.4-0.8,0.5-1.3,0.3l-17.2-5.6c-3.5-1.1-7-1.7-10.7-1.7
		c-15,0-28.1,9.6-32.8,23.8l-8.5,26.2c-5.9,18.1,4.1,37.5,22.1,43.4l17.2,5.6c0.5,0.1,0.8,0.5,0.8,1c0.1,0.5-0.2,0.9-0.6,1.2
		C409.6,463.8,395.5,467.8,381.1,467.8z M381.1,314.9c-32.7,0-61.4,20.9-71.5,52c-12.8,39.4,8.8,82,48.3,94.8
		c20.1,6.5,42.2,4.2,60.4-6.2l-14.6-4.7c-19.4-6.3-30-27.2-23.7-46.5l8.5-26.2c5-15.3,19.1-25.5,35.1-25.5c3.9,0,7.7,0.6,11.4,1.8
		l14.6,4.7c-8.7-19.3-25.1-34-45.3-40.5C396.8,316.1,389,314.9,381.1,314.9z"/>
</g>
<g>
	<path fill="#E6E7E8" d="M357.5,524.6c-40.2,13-62.1,56.2-49.1,96.3c13,40.1,56.2,62.1,96.3,49.1c22.2-7.2,38.9-23.7,47.1-43.7
		l-17.2,5.6c-18.7,6.1-38.9-4.2-45-22.9l-8.5-26.2c-6.1-18.7,4.2-38.9,22.9-45l17.2-5.6C402.9,520.9,379.7,517.4,357.5,524.6z"/>
	<path d="M381.1,675c-33.7,0-63.4-21.6-73.9-53.7c-6.4-19.7-4.8-40.8,4.7-59.3c9.4-18.5,25.5-32.2,45.2-38.6
		c7.8-2.5,15.9-3.8,24-3.8c14.4,0,28.5,4,40.8,11.6c0.4,0.3,0.6,0.7,0.6,1.2c-0.1,0.5-0.4,0.9-0.8,1l-17.2,5.6
		c-8.8,2.8-15.9,8.9-20,17.1c-4.2,8.2-4.9,17.5-2.1,26.3l8.5,26.2c4.6,14.2,17.8,23.8,32.8,23.8c3.6,0,7.2-0.6,10.7-1.7l17.2-5.6
		c0.5-0.2,1,0,1.3,0.3c0.3,0.4,0.4,0.9,0.2,1.3c-8.7,21.2-26.1,37.3-47.8,44.4C397.3,673.7,389.3,675,381.1,675z M381.1,522.1
		c-7.9,0-15.7,1.2-23.2,3.7c-19.1,6.2-34.7,19.5-43.8,37.4c-9.1,17.9-10.7,38.3-4.5,57.4c10.1,31.1,38.8,52,71.5,52
		c7.9,0,15.7-1.2,23.3-3.7c20.2-6.6,36.5-21.2,45.3-40.5l-14.6,4.7c-3.7,1.2-7.5,1.8-11.4,1.8c-16,0-30.1-10.3-35.1-25.5l-8.5-26.2
		c-3-9.4-2.3-19.4,2.2-28.2c4.5-8.8,12.1-15.3,21.5-18.3l14.6-4.7C407,525.5,394.2,522.1,381.1,522.1z"/>
</g>
<g>
	<path fill="#E6E7E8" d="M441.1,720c-24.8,34.2-17.2,82,16.9,106.8c34.2,24.8,82,17.2,106.8-16.9c13.7-18.9,17.5-42,12.4-63
		l-10.6,14.6c-11.6,15.9-33.9,19.5-49.8,7.9l-22.2-16.2c-15.9-11.6-19.5-33.9-7.9-49.8l10.6-14.6C475.6,690.4,454.8,701.1,441.1,720
		z"/>
	<path d="M502.9,842.6C502.9,842.6,502.9,842.6,502.9,842.6c-16.5,0-32.2-5.1-45.6-14.8c-16.8-12.2-27.8-30.2-31.1-50.7
		c-3.2-20.5,1.7-41,13.9-57.8c13.4-18.5,34.2-30.1,57-31.8c0.5,0,0.9,0.2,1.2,0.6c0.2,0.4,0.2,0.9-0.1,1.3l-10.6,14.6
		c-5.4,7.4-7.6,16.5-6.2,25.6c1.4,9.1,6.3,17.1,13.8,22.5l22.2,16.2c5.9,4.3,12.9,6.6,20.2,6.6c11,0,21.4-5.3,27.9-14.2l10.6-14.6
		c0.3-0.4,0.8-0.6,1.2-0.5c0.5,0.1,0.8,0.5,1,0.9c5.4,22.2,0.8,45.6-12.6,64C551.2,830.6,527.7,842.6,502.9,842.6z M494.6,690.2
		c-21,2.3-40.1,13.4-52.5,30.5c-11.8,16.3-16.6,36.1-13.4,56c3.1,19.8,13.8,37.3,30.1,49.1c12.9,9.4,28.2,14.4,44.1,14.4
		c24,0,46.8-11.6,60.9-31c12.5-17.2,17.1-38.7,12.8-59.4l-9,12.4c-6.9,9.5-18.1,15.2-29.9,15.2c-7.8,0-15.3-2.4-21.7-7.1l-22.2-16.2
		c-8-5.8-13.2-14.4-14.8-24.1c-1.5-9.7,0.8-19.5,6.6-27.5L494.6,690.2z"/>
</g>
<g>
	<path fill="#E6E7E8" d="M623.6,829c0,42.2,34.2,76.4,76.5,76.4c42.2,0,76.4-34.2,76.4-76.4c0-23.4-10.5-44.3-27-58.3l0,18.1
		c0,19.7-16,35.7-35.7,35.7h-27.5c-19.7,0-35.7-16-35.7-35.7l0-18.1C634,784.7,623.6,805.6,623.6,829z"/>
	<path d="M700,906.6c-42.8,0-77.7-34.8-77.7-77.7c0-22.8,10-44.4,27.4-59.2c0.4-0.3,0.9-0.4,1.3-0.2c0.4,0.2,0.7,0.6,0.7,1.1l0,18.1
		c0,9.2,3.6,17.9,10.1,24.4c6.5,6.5,15.2,10.1,24.4,10.1h27.5c9.2,0,17.9-3.6,24.4-10.1c6.5-6.5,10.1-15.2,10.1-24.4l0-18.1
		c0-0.5,0.3-0.9,0.7-1.1c0.4-0.2,1-0.1,1.3,0.2c17.4,14.8,27.4,36.4,27.4,59.2c0,20.7-8.1,40.3-22.8,54.9
		C740.3,898.6,720.7,906.6,700,906.6z M649.3,773.4c-15.6,14.3-24.5,34.4-24.5,55.6c0,41.5,33.7,75.2,75.2,75.2
		c20.1,0,39-7.8,53.2-22c14.2-14.2,22-33.1,22-53.2c0-21.2-8.9-41.3-24.5-55.6l0,15.4c0,9.9-3.8,19.1-10.8,26.1
		c-7,7-16.2,10.8-26.1,10.8h-27.5c-9.9,0-19.1-3.8-26.1-10.8c-7-7-10.8-16.2-10.8-26.1L649.3,773.4z"/>
</g>
<g>
	<path fill="#E6E7E8" d="M835.2,809.9C860,844,907.8,851.6,942,826.8c34.2-24.8,41.7-72.6,16.9-106.8
		c-13.7-18.9-34.5-29.6-56.1-31.3l10.6,14.6c11.6,15.9,8,38.3-7.9,49.8l-22.3,16.2c-15.9,11.6-38.3,8-49.8-7.9l-10.6-14.6
		C817.7,767.9,821.5,791,835.2,809.9z"/>
	<path d="M897.1,842.6C897.1,842.6,897.1,842.6,897.1,842.6c-24.8,0-48.3-12-62.9-32c-13.4-18.5-18-41.8-12.6-64.1
		c0.1-0.5,0.5-0.8,1-0.9c0.5-0.1,1,0.1,1.2,0.5l10.6,14.6c6.5,8.9,16.9,14.2,27.9,14.2c7.3,0,14.3-2.3,20.2-6.6l22.3-16.2
		c7.4-5.4,12.3-13.4,13.8-22.5c1.4-9.1-0.7-18.2-6.2-25.6l-10.6-14.6c-0.3-0.4-0.3-0.9-0.1-1.3c0.2-0.4,0.7-0.7,1.2-0.6
		c22.8,1.7,43.6,13.3,57,31.8c25.2,34.7,17.5,83.3-17.2,108.5C929.4,837.5,913.6,842.6,897.1,842.6z M823.4,749.8
		c-4.3,20.7,0.3,42.2,12.8,59.4c14.1,19.4,36.9,31,60.9,31c15.9,0,31.2-5,44.2-14.4c33.5-24.4,41-71.5,16.6-105.1
		c-12.5-17.2-31.5-28.2-52.5-30.5l9,12.4c5.8,8,8.1,17.7,6.6,27.5c-1.5,9.7-6.8,18.3-14.8,24.1L884,770.4
		c-6.3,4.6-13.8,7.1-21.7,7.1c-11.8,0-23-5.7-29.9-15.2L823.4,749.8z"/>
</g>
<g>
	<path fill="#E6E7E8" d="M995.2,670c40.2,13,83.3-8.9,96.3-49.1c13-40.1-8.9-83.3-49.1-96.3c-22.2-7.2-45.3-3.7-63.8,7.7l17.2,5.6
		c18.7,6.1,29,26.2,22.9,45l-8.5,26.2c-6.1,18.7-26.2,29-45,22.9l-17.2-5.6C956.4,646.4,973,662.8,995.2,670z"/>
	<path d="M1018.9,675C1018.9,675,1018.9,675,1018.9,675c-8.1,0-16.2-1.3-24-3.8c-21.7-7.1-39.2-23.2-47.9-44.4
		c-0.2-0.4-0.1-1,0.2-1.3c0.3-0.4,0.8-0.5,1.3-0.3l17.2,5.6c3.5,1.1,7,1.7,10.7,1.7c0,0,0,0,0,0c15,0,28.1-9.6,32.8-23.8l8.5-26.2
		c2.8-8.8,2.1-18.1-2.1-26.3c-4.2-8.2-11.3-14.3-20-17.1l-17.2-5.6c-0.5-0.1-0.8-0.5-0.8-1c-0.1-0.5,0.2-0.9,0.6-1.2
		c12.3-7.6,26.4-11.6,40.8-11.6c8.1,0,16.2,1.3,24,3.8c40.7,13.2,63.1,57.1,49.9,97.9C1082.3,653.4,1052.6,675,1018.9,675z
		 M950.3,628.3c8.7,19.3,25.1,34,45.3,40.5c7.6,2.5,15.4,3.7,23.3,3.7c32.7,0,61.4-20.9,71.5-52c12.8-39.4-8.9-82-48.3-94.8
		c-20.1-6.5-42.2-4.2-60.4,6.2l14.6,4.8c9.4,3,17,9.6,21.5,18.3c4.5,8.8,5.3,18.8,2.2,28.2l-8.5,26.2c-5,15.3-19.1,25.5-35.1,25.5
		c0,0,0,0,0,0c-3.9,0-7.7-0.6-11.4-1.8L950.3,628.3z"/>
</g>
<g>
	<path fill="#E6E7E8" d="M1042.5,462.8c40.2-13,62.1-56.2,49.1-96.3c-13-40.1-56.2-62.1-96.3-49.1c-22.2,7.2-38.9,23.7-47.1,43.7
		l17.2-5.6c18.7-6.1,38.9,4.2,45,22.9l8.5,26.2c6.1,18.7-4.2,38.9-22.9,45l-17.2,5.6C997.1,466.5,1020.2,470,1042.5,462.8z"/>
	<path d="M1018.9,467.8C1018.9,467.8,1018.9,467.8,1018.9,467.8c-14.4,0-28.5-4-40.8-11.6c-0.4-0.3-0.6-0.7-0.6-1.2
		c0.1-0.5,0.4-0.9,0.8-1l17.2-5.6c8.8-2.8,15.9-8.9,20.1-17.1c4.2-8.2,4.9-17.5,2.1-26.3l-8.5-26.2c-4.6-14.2-17.8-23.8-32.8-23.8
		c-3.6,0-7.2,0.6-10.7,1.7l-17.2,5.6c-0.5,0.1-1,0-1.3-0.3c-0.3-0.4-0.4-0.9-0.2-1.3c8.7-21.2,26.1-37.4,47.8-44.4
		c7.8-2.5,15.9-3.8,24-3.8c33.7,0,63.4,21.6,73.9,53.7c13.2,40.7-9.1,84.7-49.9,97.9C1035.1,466.5,1027,467.8,1018.9,467.8z
		 M981.7,455.5c11.4,6.5,24.2,9.9,37.2,9.9c0,0,0,0,0,0c7.9,0,15.7-1.2,23.2-3.7c39.4-12.8,61.1-55.3,48.3-94.8
		c-10.1-31.1-38.8-52-71.5-52c-7.9,0-15.7,1.2-23.3,3.7c-20.2,6.6-36.5,21.2-45.3,40.5l14.6-4.7c3.7-1.2,7.5-1.8,11.4-1.8
		c16,0,30.1,10.3,35.1,25.5l8.5,26.2c3,9.4,2.3,19.4-2.2,28.2c-4.5,8.8-12.1,15.3-21.5,18.3L981.7,455.5z"/>
</g>
<g>
	<path fill="#E6E7E8" d="M958.9,267.4c24.8-34.2,17.2-82-16.9-106.8c-34.2-24.8-82-17.2-106.8,16.9c-13.7,18.9-17.5,42-12.4,63
		l10.6-14.6c11.6-15.9,33.9-19.5,49.8-7.9l22.2,16.2c15.9,11.6,19.5,33.9,7.9,49.8l-10.6,14.6C924.4,297.1,945.2,286.3,958.9,267.4z
		"/>
	<path d="M902.8,299.9c-0.4,0-0.9-0.2-1.1-0.6c-0.2-0.4-0.2-0.9,0.1-1.3l10.6-14.6c5.4-7.4,7.6-16.5,6.2-25.6
		c-1.4-9.1-6.3-17.1-13.8-22.5L882.6,219c-5.9-4.3-12.9-6.6-20.2-6.6c-11,0-21.4,5.3-27.9,14.2l-10.6,14.6c-0.3,0.4-0.8,0.6-1.2,0.5
		c-0.5-0.1-0.8-0.5-1-0.9c-5.4-22.2-0.8-45.6,12.6-64.1c14.6-20.1,38.1-32,62.9-32c16.5,0,32.2,5.1,45.6,14.8
		c34.7,25.2,42.4,73.9,17.2,108.5C946.5,286.6,925.7,298.2,902.8,299.9C902.8,299.9,902.8,299.9,902.8,299.9z M862.3,210
		c7.8,0,15.3,2.4,21.7,7l22.2,16.2c8,5.8,13.2,14.3,14.8,24.1c1.5,9.7-0.8,19.5-6.6,27.5l-9,12.4c21-2.4,40.1-13.4,52.5-30.5
		c24.4-33.5,16.9-80.7-16.6-105.1c-12.9-9.4-28.2-14.4-44.1-14.4c-24,0-46.8,11.6-60.9,31c-12.5,17.2-17.1,38.6-12.8,59.4l9-12.4
		C839.4,215.7,850.5,210,862.3,210z"/>
</g>
<g>
	<path d="M700,359.3c-0.7,0-1.2-0.6-1.2-1.2V234.9c0-0.7,0.6-1.2,1.2-1.2c0.7,0,1.2,0.6,1.2,1.2v123.2
		C701.2,358.8,700.7,359.3,700,359.3z"/>
</g>
<g>
	<circle fill="#FFFFFF" cx="700" cy="123.7" r="25.9"/>
	<path d="M700,150.9c-15,0-27.1-12.2-27.1-27.1S685,96.6,700,96.6s27.1,12.2,27.1,27.1S715,150.9,700,150.9z M700,99.1
		c-13.6,0-24.7,11.1-24.7,24.7s11.1,24.7,24.7,24.7s24.7-11.1,24.7-24.7S713.6,99.1,700,99.1z"/>
</g>
<g>
	<path fill="#FFE174" d="M713.7,163h-27.5c-19.7,0-35.7,16-35.7,35.7v18.1c6.6,5.6,14.2,10.1,22.5,13.3v-25.9V230
		c8.4,3.2,17.4,4.9,26.9,4.9c9.5,0,18.5-1.7,26.9-4.9v-25.9V230c8.3-3.1,15.9-7.6,22.5-13.3v-18.1C749.4,178.9,733.5,163,713.7,163z
		"/>
	<path d="M700,236.1c-9.4,0-18.6-1.7-27.4-5c0,0,0,0,0,0c-8.3-3.1-16-7.7-22.9-13.5c-0.3-0.2-0.4-0.6-0.4-0.9v-18.1
		c0-20.4,16.6-36.9,36.9-36.9h27.5c20.4,0,36.9,16.6,36.9,36.9v18.1c0,0.4-0.2,0.7-0.4,0.9c-6.8,5.7-14.4,10.3-22.6,13.4
		c-0.1,0.1-0.3,0.1-0.4,0.1C718.5,234.5,709.3,236.1,700,236.1z M674.3,229.2c16.5,6,34.9,6,51.4,0v-25.1c0-0.7,0.6-1.2,1.2-1.2
		s1.2,0.6,1.2,1.2v24.1c7.3-2.9,14-7,20-12v-17.5c0-19-15.5-34.4-34.5-34.4h-27.5c-19,0-34.5,15.5-34.5,34.4v17.5
		c6.1,5.1,12.8,9.1,20.1,12v-24.1c0-0.7,0.6-1.2,1.2-1.2c0.7,0,1.2,0.6,1.2,1.2V229.2z"/>
</g>
<g>
	<path d="M620.3,385.2c-0.4,0-0.8-0.2-1-0.5l-72.4-99.7c-0.4-0.6-0.3-1.3,0.3-1.7c0.6-0.4,1.3-0.3,1.7,0.3l72.4,99.7
		c0.4,0.6,0.3,1.3-0.3,1.7C620.8,385.1,620.5,385.2,620.3,385.2z"/>
</g>
<g>
	<circle fill="#FFFFFF" cx="482.5" cy="194.4" r="25.9"/>
	<path d="M482.5,221.5c-8.7,0-16.9-4.2-22-11.2c-4.3-5.9-6-13-4.8-20.2c1.1-7.2,5-13.4,10.8-17.7c4.7-3.4,10.2-5.2,15.9-5.2
		c8.7,0,16.9,4.2,22,11.2c4.3,5.9,6,13,4.8,20.2c-1.1,7.2-5,13.4-10.8,17.7C493.8,219.7,488.3,221.5,482.5,221.5z M482.5,169.7
		c-5.2,0-10.2,1.6-14.5,4.7c-5.3,3.9-8.8,9.6-9.9,16.1c-1,6.5,0.5,13,4.4,18.4c4.6,6.4,12.1,10.2,20,10.2c5.2,0,10.2-1.6,14.5-4.7
		c5.3-3.9,8.8-9.6,9.9-16.1c1-6.5-0.5-13-4.4-18.4C497.8,173.5,490.4,169.7,482.5,169.7z"/>
</g>
<g>
	<path fill="#FFE174" d="M516.7,218.1l-22.3,16.2c-15.9,11.6-19.5,33.9-7.9,49.8l10.6,14.6c8.7,0.7,17.5-0.1,26-2.5l-15.2-21
		l15.2,21c8.6-2.4,17-6.3,24.6-11.9c7.7-5.6,14-12.3,18.9-19.8l-15.2-21l15.2,21c4.9-7.4,8.4-15.5,10.4-24l-10.6-14.6
		C555,210,532.7,206.5,516.7,218.1z"/>
	<path d="M503,300.1c-2,0-4-0.1-5.9-0.2c-0.4,0-0.7-0.2-0.9-0.5l-10.6-14.6c-5.8-8-8.1-17.7-6.6-27.5c1.5-9.7,6.8-18.3,14.8-24.1
		l22.3-16.2c6.4-4.6,13.8-7.1,21.7-7.1c11.8,0,23,5.7,29.9,15.2l10.6,14.6c0.2,0.3,0.3,0.7,0.2,1c-2.1,8.6-5.6,16.7-10.4,24.1
		c-0.1,0.2-0.2,0.4-0.4,0.5c-5.1,7.7-11.5,14.4-19.1,19.9c-7.6,5.5-16,9.6-25,12.1c0,0,0,0,0,0C516.9,299.2,510,300.1,503,300.1z
		 M497.9,297.5c7.8,0.5,15.7-0.2,23.3-2L507,275.9c-0.2-0.2-0.2-0.5-0.2-0.7c0-0.4,0.2-0.8,0.5-1c0.6-0.4,1.3-0.3,1.7,0.3l14.7,20.3
		c8.4-2.4,16.3-6.3,23.4-11.4c7.1-5.2,13.2-11.5,18.1-18.7l-14.7-20.3c-0.2-0.2-0.2-0.5-0.2-0.7c0-0.4,0.2-0.8,0.5-1
		c0.6-0.4,1.3-0.3,1.7,0.3l14.2,19.5c4.2-6.6,7.2-13.9,9.1-21.5l-10.3-14.2c-6.5-8.9-16.9-14.2-27.9-14.2c-7.3,0-14.3,2.3-20.2,6.6
		l-22.3,16.2c-7.4,5.4-12.3,13.4-13.8,22.5c-1.4,9.1,0.7,18.2,6.2,25.6L497.9,297.5z"/>
</g>
<g>
	<path d="M571,453c-0.1,0-0.3,0-0.4-0.1l-117.2-38.1c-0.6-0.2-1-0.9-0.8-1.6c0.2-0.6,0.9-1,1.6-0.8l117.2,38.1
		c0.6,0.2,1,0.9,0.8,1.6C572,452.7,571.5,453,571,453z"/>
</g>
<g>
	<path fill="#FFFFFF" d="M356.1,354.8c13.6,4.4,21,19,16.6,32.6c-4.4,13.6-19,21-32.6,16.6c-13.6-4.4-21-19-16.6-32.6
		C327.9,357.8,342.5,350.3,356.1,354.8z"/>
	<path d="M348.1,406.5c-2.8,0-5.7-0.4-8.4-1.3c-6.9-2.2-12.5-7-15.8-13.5c-3.3-6.5-3.9-13.8-1.6-20.7c3.6-11.2,14-18.8,25.8-18.8
		c2.8,0,5.7,0.4,8.4,1.3c14.2,4.6,22,20,17.4,34.2C370.3,399,359.9,406.5,348.1,406.5z M348.1,354.7c-10.7,0-20.1,6.9-23.5,17
		c-2,6.3-1.5,12.9,1.5,18.8c3,5.9,8.1,10.2,14.4,12.3c2.5,0.8,5,1.2,7.6,1.2c10.7,0,20.1-6.9,23.4-17c4.2-12.9-2.9-26.9-15.8-31.1
		C353.3,355.1,350.7,354.7,348.1,354.7z"/>
</g>
<g>
	<path fill="#FFE174" d="M389.7,378.4l-8.5,26.2c-6.1,18.7,4.2,38.9,22.9,45l17.2,5.6c7.4-4.6,14.1-10.4,19.6-17.3l-24.7-8l24.7,8
		c5.6-7,10-15.1,13-24.1c2.9-9,4.1-18.2,3.7-27.1l-24.7-8l24.7,8c-0.4-8.8-2.4-17.5-5.7-25.5l-17.2-5.6
		C415.9,349.4,395.8,359.7,389.7,378.4z"/>
	<path d="M421.3,456.4c-0.1,0-0.3,0-0.4-0.1l-17.2-5.6c-19.4-6.3-30-27.2-23.7-46.5l8.5-26.2c5-15.3,19.1-25.5,35.1-25.5
		c3.9,0,7.7,0.6,11.4,1.8l17.2,5.6c0.3,0.1,0.6,0.4,0.8,0.7c3.4,8.3,5.3,17,5.8,25.9c0,0,0,0,0,0c0.4,9.3-0.8,18.6-3.7,27.5
		s-7.3,17.2-13.2,24.5c0,0,0,0,0,0c-5.6,7-12.3,12.9-19.9,17.6C421.8,456.3,421.5,456.4,421.3,456.4z M423.6,355
		c-15,0-28.1,9.6-32.8,23.8l-8.5,26.2c-5.9,18.1,4.1,37.5,22.1,43.4l16.7,5.4c6.7-4.2,12.6-9.3,17.6-15.4l-22.9-7.5
		c-0.5-0.2-0.9-0.7-0.9-1.2c0-0.1,0-0.3,0.1-0.4c0.2-0.6,0.9-1,1.6-0.8l23.8,7.7c5.4-6.9,9.5-14.7,12.2-23
		c2.7-8.4,3.9-17.1,3.6-25.8l-23.8-7.7c-0.5-0.2-0.9-0.7-0.9-1.2c0-0.1,0-0.3,0.1-0.4c0.2-0.6,0.9-1,1.6-0.8l22.9,7.5
		c-0.5-7.8-2.3-15.5-5.3-22.8l-16.7-5.4C430.8,355.6,427.2,355,423.6,355z"/>
</g>
<g>
	<path d="M453.9,574.9c-0.5,0-1-0.3-1.2-0.9c-0.2-0.6,0.1-1.3,0.8-1.6l117.2-38.1c0.6-0.2,1.3,0.1,1.6,0.8c0.2,0.6-0.1,1.3-0.8,1.6
		l-117.2,38.1C454.1,574.9,454,574.9,453.9,574.9z"/>
</g>
<g>
	<path fill="#FFFFFF" d="M340.1,583.4c13.6-4.4,28.2,3,32.6,16.6s-3,28.2-16.6,32.6c-13.6,4.4-28.2-3-32.6-16.6
		C319.1,602.4,326.5,587.8,340.1,583.4z"/>
	<path d="M348.1,635.2c-11.8,0-22.1-7.5-25.8-18.7c-4.6-14.2,3.2-29.6,17.4-34.2c2.7-0.9,5.5-1.3,8.4-1.3c11.8,0,22.2,7.5,25.8,18.8
		c2.2,6.9,1.7,14.2-1.6,20.7c-3.3,6.5-8.9,11.2-15.8,13.5C353.8,634.7,351,635.2,348.1,635.2z M348.1,583.4c-2.6,0-5.1,0.4-7.6,1.2
		c-12.9,4.2-20,18.1-15.8,31.1c3.3,10.2,12.7,17,23.4,17c2.6,0,5.1-0.4,7.6-1.2c6.3-2,11.4-6.4,14.4-12.3c3-5.9,3.5-12.6,1.5-18.8
		C368.3,590.2,358.8,583.4,348.1,583.4z"/>
</g>
<g>
	<path fill="#FFE174" d="M381.2,582.8l8.5,26.2c6.1,18.7,26.2,29,45,22.9l17.2-5.6c3.3-8,5.3-16.7,5.7-25.5l-24.7,8l24.7-8
		c0.4-8.9-0.7-18.1-3.7-27.1c-2.9-9-7.4-17.1-13-24.1l-24.7,8l24.7-8c-5.5-6.9-12.2-12.8-19.6-17.3l-17.2,5.6
		C385.4,544,375.1,564.1,381.2,582.8z"/>
	<path d="M423.6,634.9C423.6,634.9,423.6,634.9,423.6,634.9c-16,0-30.1-10.3-35.1-25.5l-8.5-26.2c-3-9.4-2.3-19.4,2.2-28.2
		c4.5-8.8,12.1-15.3,21.5-18.3l17.2-5.6c0.3-0.1,0.7-0.1,1,0.1c7.6,4.7,14.3,10.6,19.9,17.6c5.8,7.3,10.3,15.5,13.2,24.5
		c2.9,8.9,4.2,18.2,3.7,27.5c0,0,0,0,0,0c-0.4,8.9-2.3,17.6-5.8,25.9c-0.1,0.3-0.4,0.6-0.8,0.7l-17.2,5.6
		C431.3,634.3,427.5,634.9,423.6,634.9z M421.1,533.6l-16.7,5.4c-8.8,2.8-15.9,8.9-20,17.1c-4.2,8.2-4.9,17.5-2.1,26.3l8.5,26.2
		c4.6,14.2,17.8,23.8,32.8,23.8c0,0,0,0,0,0c3.6,0,7.2-0.6,10.6-1.7l16.7-5.4c2.9-7.3,4.7-15,5.3-22.8l-22.9,7.5
		c-0.7,0.2-1.3-0.1-1.6-0.8c0-0.1-0.1-0.3-0.1-0.4c0-0.5,0.3-1,0.9-1.2l23.8-7.8c0.3-8.8-0.9-17.4-3.6-25.8
		c-2.7-8.4-6.8-16.1-12.2-23l-23.8,7.7c-0.7,0.2-1.3-0.1-1.6-0.8c0-0.1-0.1-0.3-0.1-0.4c0-0.5,0.3-1,0.9-1.2l22.9-7.5
		C433.7,543,427.8,537.8,421.1,533.6z"/>
</g>
<g>
	<path d="M547.9,704.3c-0.3,0-0.5-0.1-0.7-0.2c-0.6-0.4-0.7-1.2-0.3-1.7l72.4-99.7c0.4-0.6,1.2-0.7,1.7-0.3c0.6,0.4,0.7,1.2,0.3,1.7
		l-72.4,99.7C548.6,704.2,548.3,704.3,547.9,704.3z"/>
</g>
<g>
	<path fill="#FFFFFF" d="M461.6,777.8c8.4-11.6,24.6-14.1,36.2-5.7c11.6,8.4,14.1,24.6,5.7,36.2c-8.4,11.6-24.6,14.1-36.2,5.7
		C455.7,805.6,453.2,789.4,461.6,777.8z"/>
	<path d="M482.5,820.2c-5.8,0-11.3-1.8-15.9-5.2c-12.1-8.8-14.8-25.8-6-37.9c5.1-7,13.3-11.2,22-11.2c5.8,0,11.3,1.8,15.9,5.2
		c5.9,4.3,9.7,10.5,10.8,17.7c1.1,7.2-0.6,14.3-4.9,20.2C499.4,816,491.2,820.2,482.5,820.2z M482.5,768.4c-7.9,0-15.3,3.8-20,10.2
		c-8,11-5.5,26.5,5.5,34.4c4.2,3.1,9.2,4.7,14.5,4.7c7.9,0,15.3-3.8,20-10.2c3.9-5.3,5.4-11.8,4.4-18.4c-1-6.5-4.5-12.2-9.9-16.1
		C492.8,770,487.8,768.4,482.5,768.4z"/>
</g>
<g>
	<path fill="#FFE174" d="M494.5,753.2l22.2,16.2c15.9,11.6,38.3,8.1,49.8-7.9l10.6-14.6c-2.1-8.5-5.5-16.6-10.4-24l-15.2,21l15.2-21
		c-4.9-7.5-11.2-14.2-18.9-19.8s-16-9.5-24.7-11.9l-15.2,21l15.2-21c-8.5-2.3-17.3-3.2-26-2.5l-10.6,14.6
		C475,719.3,478.5,741.6,494.5,753.2z"/>
	<path d="M537.7,777.4C537.7,777.4,537.7,777.4,537.7,777.4c-7.8,0-15.3-2.4-21.7-7.1l-22.2-16.2c-8-5.8-13.2-14.4-14.8-24.1
		c-1.5-9.7,0.8-19.5,6.6-27.5l10.6-14.6c0.2-0.3,0.5-0.5,0.9-0.5c8.9-0.7,17.9,0.2,26.4,2.5c0,0,0,0,0,0c9,2.5,17.5,6.5,25,12.1
		c7.6,5.5,14.1,12.3,19.2,20.1c0,0,0,0,0,0c4.9,7.4,8.5,15.6,10.6,24.4c0.1,0.4,0,0.7-0.2,1l-10.6,14.6
		C560.6,771.7,549.5,777.4,537.7,777.4z M497.9,689.9l-10.3,14.2c-5.4,7.4-7.6,16.5-6.2,25.6c1.4,9.1,6.3,17.1,13.8,22.5l22.2,16.2
		c5.9,4.3,12.9,6.6,20.2,6.6c0,0,0,0,0,0c11,0,21.4-5.3,27.9-14.2l10.3-14.2c-1.9-7.7-5-14.9-9.1-21.5l-14.2,19.5
		c-0.4,0.5-1.2,0.7-1.7,0.3c-0.3-0.2-0.5-0.6-0.5-1c0-0.3,0.1-0.5,0.2-0.7l14.7-20.3c-4.9-7.3-11-13.6-18.1-18.7
		c-7.1-5.2-15-9-23.4-11.4L509,712.9c-0.4,0.5-1.2,0.7-1.7,0.3c-0.3-0.2-0.5-0.6-0.5-1c0-0.3,0.1-0.5,0.2-0.7l14.2-19.5
		C513.6,690.1,505.7,689.4,497.9,689.9z"/>
</g>
<g>
	<path d="M700,753.8c-0.7,0-1.2-0.6-1.2-1.2V629.3c0-0.7,0.6-1.2,1.2-1.2c0.7,0,1.2,0.6,1.2,1.2v123.2
		C701.2,753.2,700.7,753.8,700,753.8z"/>
</g>
<g>
	<path fill="#FFFFFF" d="M674.1,863.7c0-14.3,11.6-25.9,25.9-25.9c14.3,0,25.9,11.6,25.9,25.9c0,14.3-11.6,25.9-25.9,25.9
		C685.7,889.6,674.1,878,674.1,863.7z"/>
	<path d="M700,890.8L700,890.8c-15,0-27.1-12.2-27.1-27.1c0-15,12.2-27.1,27.1-27.1c7.2,0,14.1,2.8,19.2,7.9
		c5.1,5.1,7.9,11.9,7.9,19.2C727.1,878.6,715,890.8,700,890.8z M700,839c-13.6,0-24.7,11.1-24.7,24.7c0,13.6,11.1,24.7,24.7,24.7
		c13.6,0,24.7-11.1,24.7-24.7c0-6.6-2.6-12.8-7.2-17.4C712.8,841.6,706.6,839,700,839z"/>
</g>
<g>
	<path fill="#FFE174" d="M686.2,824.5h27.5c19.7,0,35.7-16,35.7-35.7l0-18.1c-6.6-5.6-14.2-10.1-22.5-13.3l0,25.9l0-25.9
		c-8.4-3.2-17.4-4.9-26.9-4.9c-9.5,0-18.5,1.7-26.9,4.9l0,25.9l0-25.9c-8.3,3.1-15.9,7.6-22.5,13.3l0,18.1
		C650.6,808.5,666.5,824.5,686.2,824.5z"/>
	<path d="M713.7,825.7h-27.5h0c-20.4,0-36.9-16.6-36.9-36.9l0-18.1c0-0.4,0.2-0.7,0.4-0.9c6.8-5.8,14.5-10.3,22.9-13.5c0,0,0,0,0,0
		c17.5-6.6,37.2-6.6,54.7,0c0,0,0,0,0,0c8.3,3.1,16,7.7,22.9,13.5c0.3,0.2,0.4,0.6,0.4,0.9l0,18.1c0,9.9-3.8,19.1-10.8,26.1
		C732.9,821.8,723.6,825.7,713.7,825.7z M686.2,823.2h27.5c9.2,0,17.9-3.6,24.4-10.1c6.5-6.5,10.1-15.2,10.1-24.4l0-17.5
		c-6.1-5.1-12.8-9.1-20.1-12l0,24.1c0,0.7-0.6,1.2-1.2,1.2c-0.7,0-1.2-0.6-1.2-1.2l0-25.1c-16.5-6-34.9-6-51.4,0l0,25.1
		c0,0.7-0.6,1.2-1.2,1.2l0,0c-0.7,0-1.2-0.6-1.2-1.2l0-24.1c-7.3,2.9-14,7-20.1,12l0,17.5C651.8,807.8,667.2,823.2,686.2,823.2
		L686.2,823.2z"/>
</g>
<g>
	<path d="M852.1,704.3c-0.4,0-0.8-0.2-1-0.5l-72.4-99.7c-0.4-0.6-0.3-1.3,0.3-1.7c0.5-0.4,1.3-0.3,1.7,0.3l72.4,99.7
		c0.4,0.6,0.3,1.3-0.3,1.7C852.6,704.2,852.4,704.3,852.1,704.3z"/>
</g>
<g>
	<path fill="#FFFFFF" d="M896.5,808.3c-8.4-11.6-5.8-27.8,5.7-36.2c11.6-8.4,27.8-5.8,36.2,5.7c8.4,11.6,5.8,27.8-5.7,36.2
		C921.1,822.4,904.9,819.8,896.5,808.3z"/>
	<path d="M917.5,820.2c-8.7,0-16.9-4.2-22-11.2c-4.3-5.9-6-13-4.8-20.2c1.1-7.2,5-13.4,10.8-17.7c4.7-3.4,10.2-5.2,15.9-5.2
		c8.7,0,16.9,4.2,22,11.2c8.8,12.1,6.1,29.1-6,37.9C928.7,818.4,923.2,820.2,917.5,820.2z M917.4,768.4c-5.2,0-10.2,1.6-14.5,4.7
		c-5.3,3.9-8.8,9.6-9.9,16.1c-1,6.5,0.5,13,4.4,18.4c4.6,6.4,12.1,10.2,20,10.2c5.2,0,10.2-1.6,14.5-4.7c11-8,13.4-23.4,5.5-34.4
		C932.8,772.2,925.3,768.4,917.4,768.4z"/>
</g>
<g>
	<path fill="#FFE174" d="M883.3,769.4l22.3-16.2c15.9-11.6,19.5-33.9,7.9-49.8l-10.6-14.6c-8.7-0.7-17.5,0.2-26,2.5l15.2,21
		l-15.2-21c-8.6,2.4-17,6.3-24.7,11.9c-7.7,5.6-14,12.3-18.9,19.8l15.2,21l-15.2-21c-4.9,7.4-8.4,15.5-10.4,24l10.6,14.6
		C845,777.4,867.3,781,883.3,769.4z"/>
	<path d="M862.3,777.4C862.3,777.4,862.3,777.4,862.3,777.4c-11.8,0-23-5.7-29.9-15.2l-10.6-14.6c-0.2-0.3-0.3-0.7-0.2-1
		c2.1-8.7,5.7-16.9,10.6-24.4c0,0,0,0,0,0c5.2-7.8,11.6-14.6,19.2-20.1c7.6-5.5,16-9.6,25.1-12.1c0,0,0,0,0,0
		c8.5-2.4,17.5-3.2,26.4-2.5c0.4,0,0.7,0.2,0.9,0.5l10.6,14.6c5.8,8,8.1,17.7,6.6,27.5c-1.5,9.7-6.8,18.3-14.8,24.1L884,770.4
		C877.7,775,870.2,777.4,862.3,777.4z M824.1,746.6l10.3,14.2c6.5,8.9,16.9,14.2,27.9,14.2c0,0,0,0,0,0c7.3,0,14.3-2.3,20.2-6.6
		l22.3-16.2c7.4-5.4,12.3-13.4,13.8-22.5c1.4-9.1-0.7-18.2-6.2-25.6l-10.3-14.2c-7.9-0.5-15.7,0.2-23.3,2l14.2,19.5
		c0.2,0.2,0.2,0.5,0.2,0.7c0,0.4-0.2,0.8-0.5,1c-0.6,0.4-1.3,0.3-1.7-0.3l-14.7-20.3c-8.4,2.4-16.3,6.3-23.4,11.4
		c-7.1,5.2-13.2,11.5-18.1,18.7l14.7,20.3c0.2,0.2,0.2,0.5,0.2,0.7c0,0.4-0.2,0.8-0.5,1c-0.6,0.4-1.3,0.3-1.7-0.3L833.3,725
		C829.1,731.7,826,738.9,824.1,746.6z"/>
</g>
<g>
	<path d="M946.1,574.9c-0.1,0-0.3,0-0.4-0.1l-117.1-38.1c-0.6-0.2-1-0.9-0.8-1.6c0.2-0.6,0.9-1,1.6-0.8l117.1,38.1
		c0.6,0.2,1,0.9,0.8,1.6C947.1,574.6,946.7,574.9,946.1,574.9z"/>
</g>
<g>
	<path fill="#FFFFFF" d="M1043.9,632.7c-13.6-4.4-21-19-16.6-32.6c4.4-13.6,19-21,32.6-16.6c13.6,4.4,21,19,16.6,32.6
		C1072.1,629.6,1057.5,637.1,1043.9,632.7z"/>
	<path d="M1051.9,635.2c-2.8,0-5.7-0.4-8.4-1.3c-6.9-2.2-12.5-7-15.8-13.5c-3.3-6.5-3.9-13.8-1.6-20.7c3.6-11.2,14-18.8,25.8-18.8
		c2.8,0,5.7,0.4,8.4,1.3c14.2,4.6,22,20,17.4,34.2C1074,627.6,1063.7,635.2,1051.9,635.2z M1051.9,583.4c-10.7,0-20.1,6.9-23.4,17
		c-2,6.3-1.5,12.9,1.5,18.8c3,5.9,8.1,10.2,14.4,12.3c2.5,0.8,5,1.2,7.6,1.2c10.7,0,20.1-6.8,23.5-17c4.2-12.9-2.9-26.9-15.8-31.1
		C1057,583.8,1054.4,583.4,1051.9,583.4z"/>
</g>
<g>
	<path fill="#FFE174" d="M1010.3,609l8.5-26.2c6.1-18.7-4.2-38.9-22.9-45l-17.2-5.6c-7.4,4.6-14,10.4-19.6,17.3l24.7,8l-24.7-8
		c-5.6,7-10,15.1-13,24.1c-2.9,9-4.1,18.2-3.7,27.1l24.7,8l-24.7-8c0.4,8.8,2.4,17.5,5.7,25.5l17.2,5.6
		C984.1,638,1004.2,627.7,1010.3,609z"/>
	<path d="M976.4,634.9C976.4,634.9,976.4,634.9,976.4,634.9c-3.9,0-7.7-0.6-11.4-1.8l-17.2-5.6c-0.3-0.1-0.6-0.4-0.8-0.7
		c-3.4-8.3-5.3-17-5.8-25.9c0,0,0,0,0,0c-0.4-9.4,0.8-18.6,3.7-27.5c2.9-8.9,7.3-17.2,13.2-24.5c0,0,0,0,0,0
		c5.6-7,12.3-12.9,19.9-17.6c0.3-0.2,0.7-0.2,1-0.1l17.2,5.6c9.4,3,17,9.6,21.5,18.3c4.5,8.8,5.3,18.8,2.2,28.2l-8.5,26.2
		C1006.5,624.6,992.4,634.9,976.4,634.9z M949.1,625.3l16.7,5.4c3.5,1.1,7.1,1.7,10.7,1.7c15,0,28.1-9.6,32.8-23.8l8.5-26.2
		c2.8-8.8,2.1-18.1-2.1-26.3c-4.2-8.2-11.3-14.3-20-17.1l-16.7-5.4c-6.7,4.2-12.6,9.4-17.6,15.3l23,7.5c0.5,0.2,0.9,0.7,0.9,1.2
		c0,0.1,0,0.3-0.1,0.4c-0.2,0.6-0.9,1-1.6,0.8l-23.9-7.8c-5.4,6.9-9.5,14.7-12.2,23c-2.7,8.4-3.9,17.1-3.6,25.8l23.9,7.8
		c0.5,0.2,0.9,0.7,0.9,1.2c0,0.1,0,0.3-0.1,0.4c-0.2,0.6-0.9,1-1.6,0.8l-23-7.5C944.4,610.4,946.1,618,949.1,625.3z"/>
</g>
<g>
	<path d="M829,453c-0.5,0-1-0.3-1.2-0.9c-0.2-0.6,0.1-1.3,0.8-1.6l117.1-38.1c0.6-0.2,1.3,0.1,1.6,0.8c0.2,0.6-0.1,1.3-0.8,1.6
		L829.4,453C829.2,453,829.1,453,829,453z"/>
</g>
<g>
	<path fill="#FFFFFF" d="M1059.9,404c-13.6,4.4-28.2-3-32.6-16.6c-4.4-13.6,3-28.2,16.6-32.6c13.6-4.4,28.2,3,32.6,16.6
		C1080.9,385,1073.5,399.6,1059.9,404z"/>
	<path d="M1051.9,406.5c-11.8,0-22.2-7.5-25.8-18.8c-4.6-14.2,3.2-29.6,17.4-34.2c2.7-0.9,5.5-1.3,8.4-1.3
		c11.8,0,22.2,7.5,25.8,18.8c4.6,14.2-3.2,29.6-17.4,34.2C1057.5,406.1,1054.7,406.5,1051.9,406.5z M1051.9,354.7
		c-2.6,0-5.1,0.4-7.6,1.2c-12.9,4.2-20,18.1-15.8,31.1c3.3,10.2,12.7,17,23.4,17c2.6,0,5.1-0.4,7.6-1.2c12.9-4.2,20-18.1,15.8-31.1
		C1072,361.6,1062.6,354.7,1051.9,354.7z"/>
</g>
<g>
	<path fill="#FFE174" d="M1018.8,404.6l-8.5-26.2c-6.1-18.7-26.2-29-45-22.9l-17.2,5.6c-3.3,8-5.3,16.7-5.7,25.5l24.7-8l-24.7,8
		c-0.4,8.9,0.7,18.1,3.7,27.1c2.9,9,7.4,17.1,13,24.1l24.7-8l-24.7,8c5.5,6.9,12.2,12.8,19.6,17.3l17.2-5.6
		C1014.6,443.5,1024.9,423.3,1018.8,404.6z"/>
	<path d="M978.7,456.4c-0.2,0-0.5-0.1-0.6-0.2c-7.6-4.7-14.3-10.6-19.9-17.6c0,0,0,0,0,0c-5.8-7.3-10.3-15.6-13.2-24.5
		c-2.9-8.9-4.2-18.2-3.7-27.5c0,0,0,0,0,0c0.4-8.9,2.3-17.6,5.8-25.9c0.1-0.3,0.4-0.6,0.8-0.7l17.2-5.6c3.7-1.2,7.5-1.8,11.4-1.8
		c16,0,30.1,10.3,35.1,25.5l8.5,26.2c3,9.4,2.3,19.4-2.2,28.2c-4.5,8.8-12.1,15.3-21.5,18.3l-17.2,5.6
		C978.9,456.3,978.8,456.4,978.7,456.4z M961.2,438.4c5,6,11,11.2,17.6,15.4l16.7-5.4c8.8-2.8,15.9-8.9,20.1-17.1
		c4.2-8.2,4.9-17.5,2.1-26.3l-8.5-26.2c-4.6-14.2-17.8-23.8-32.8-23.8c-3.6,0-7.2,0.6-10.7,1.7l-16.7,5.4c-2.9,7.3-4.7,15-5.3,22.8
		l23-7.5c0.6-0.2,1.3,0.1,1.6,0.8c0,0.1,0.1,0.3,0.1,0.4c0,0.5-0.3,1-0.9,1.2l-23.8,7.7c-0.3,8.8,0.9,17.4,3.6,25.8
		c2.7,8.4,6.8,16.1,12.2,23l23.9-7.7c0.6-0.2,1.3,0.1,1.6,0.8c0,0.1,0.1,0.3,0.1,0.4c0,0.5-0.3,1-0.9,1.2L961.2,438.4z"/>
</g>
<g>
	<path d="M779.7,385.2c-0.3,0-0.5-0.1-0.7-0.2c-0.6-0.4-0.7-1.2-0.3-1.7l72.4-99.7c0.4-0.6,1.2-0.7,1.7-0.3c0.5,0.4,0.7,1.2,0.3,1.7
		l-72.4,99.7C780.5,385,780.1,385.2,779.7,385.2z"/>
</g>
<g>
	<path fill="#FFFFFF" d="M938.4,209.6c-8.4,11.6-24.6,14.1-36.2,5.7c-11.6-8.4-14.1-24.6-5.7-36.2c8.4-11.6,24.6-14.1,36.2-5.7
		C944.3,181.8,946.8,198,938.4,209.6z"/>
	<path d="M917.4,221.5c-5.8,0-11.3-1.8-15.9-5.2c-5.9-4.3-9.7-10.5-10.8-17.7c-1.1-7.2,0.6-14.3,4.8-20.2c5.1-7,13.3-11.2,22-11.2
		c5.8,0,11.3,1.8,15.9,5.2c12.1,8.8,14.8,25.8,6,37.9C934.3,217.3,926.1,221.5,917.4,221.5z M917.5,169.7c-7.9,0-15.3,3.8-20,10.2
		c-3.9,5.3-5.4,11.8-4.4,18.4c1,6.5,4.5,12.2,9.9,16.1c4.2,3.1,9.2,4.7,14.5,4.7c7.9,0,15.3-3.8,20-10.2c8-11,5.5-26.5-5.5-34.4
		C927.7,171.4,922.7,169.7,917.5,169.7z"/>
</g>
<g>
	<path fill="#FFE174" d="M905.5,234.2L883.3,218c-15.9-11.6-38.3-8-49.8,7.9l-10.6,14.6c2.1,8.5,5.5,16.6,10.4,24l15.2-21l-15.2,21
		c4.9,7.5,11.2,14.2,18.9,19.8c7.7,5.6,16,9.5,24.6,11.9l15.3-21l-15.3,21c8.5,2.3,17.4,3.2,26,2.5l10.6-14.6
		C925,268.1,921.5,245.8,905.5,234.2z"/>
	<path d="M897,300.1c-6.9,0-13.8-0.9-20.5-2.8c0,0,0,0,0,0c-9-2.5-17.5-6.5-25-12.1c-7.6-5.5-14.1-12.3-19.2-20.1c0,0,0,0,0,0
		c-4.9-7.4-8.5-15.6-10.6-24.3c-0.1-0.4,0-0.7,0.2-1l10.6-14.6c6.9-9.5,18.1-15.2,29.9-15.2c7.8,0,15.3,2.4,21.7,7l22.2,16.2
		c8,5.8,13.2,14.3,14.8,24.1c1.5,9.7-0.8,19.5-6.6,27.5l-10.6,14.6c-0.2,0.3-0.5,0.5-0.9,0.5C900.9,300.1,898.9,300.1,897,300.1z
		 M878.8,295.5c7.6,1.9,15.5,2.6,23.3,2l10.3-14.2c5.4-7.4,7.6-16.5,6.2-25.6c-1.4-9.1-6.3-17.1-13.8-22.5L882.6,219
		c-5.9-4.3-12.9-6.6-20.2-6.6c-11,0-21.4,5.3-27.9,14.2l-10.3,14.2c1.9,7.7,5,14.9,9.1,21.5l14.2-19.5c0.4-0.6,1.2-0.7,1.7-0.3
		c0.3,0.2,0.5,0.6,0.5,1c0,0.3-0.1,0.5-0.2,0.7l-14.7,20.3c4.9,7.3,11,13.6,18.1,18.8c7.1,5.2,15,9,23.4,11.4l14.7-20.3
		c0.4-0.6,1.2-0.7,1.7-0.3c0.3,0.2,0.5,0.6,0.5,1c0,0.3-0.1,0.5-0.2,0.7L878.8,295.5z"/>
</g>
<g>
	<g>
		<circle fill="#58595B" cx="700" cy="493.7" r="157.8"/>
		<path fill="#231F20" d="M700,652.8c-87.7,0-159.1-71.4-159.1-159.1c0-87.7,71.4-159.1,159.1-159.1S859,406,859,493.7
			C859,581.4,787.7,652.8,700,652.8z M700,337.1c-86.3,0-156.6,70.2-156.6,156.6c0,86.3,70.2,156.6,156.6,156.6
			s156.6-70.2,156.6-156.6C856.6,407.4,786.3,337.1,700,337.1z"/>
	</g>
	<g>
		<g>
			<g>
				<path fill="#FFFFFF" d="M626.8,427.6c0-1.8,1.5-3.3,3.3-3.3h139.8c1.8,0,3.3,1.5,3.3,3.3v99.8h9.8v-99.8c0-7.2-5.8-13-13-13
					H630.1c-7.2,0-13,5.8-13,13v99.8h9.8V427.6z"/>
				<path d="M782.9,528.6h-9.8c-0.7,0-1.2-0.6-1.2-1.2v-99.8c0-1.1-0.9-2-2-2H630.1c-1.1,0-2,0.9-2,2v99.8c0,0.7-0.6,1.2-1.2,1.2
					H617c-0.7,0-1.2-0.6-1.2-1.2v-99.8c0-7.9,6.4-14.2,14.2-14.2h139.8c7.9,0,14.2,6.4,14.2,14.2v99.8
					C784.1,528.1,783.6,528.6,782.9,528.6z M774.4,526.2h7.3v-98.6c0-6.5-5.3-11.8-11.8-11.8H630.1c-6.5,0-11.8,5.3-11.8,11.8v98.6
					h7.3v-98.6c0-2.5,2-4.5,4.5-4.5h139.8c2.5,0,4.5,2,4.5,4.5V526.2z"/>
			</g>
			<g>
				<path fill="#96EEFF" d="M769.9,424.4H630.1c-1.8,0-3.3,1.5-3.3,3.3v99.8h146.3v-99.8C773.1,425.8,771.7,424.4,769.9,424.4z"/>
				<path d="M773.1,528.6H626.8c-0.7,0-1.2-0.6-1.2-1.2v-99.8c0-2.5,2-4.5,4.5-4.5h139.8c2.5,0,4.5,2,4.5,4.5v99.8
					C774.4,528.1,773.8,528.6,773.1,528.6z M628,526.2h143.9v-98.6c0-1.1-0.9-2-2-2H630.1c-1.1,0-2,0.9-2,2V526.2z"/>
			</g>
		</g>
		<g>
			<g>
				<polygon fill="#E6E7E8" points="678.7,542.7 721.3,542.7 732.4,560.6 820.1,560.6 782.9,527.4 773.1,527.4 626.8,527.4 
					617,527.4 579.9,560.6 667.6,560.6 				"/>
				<path d="M820.2,561.8C820.2,561.8,820.1,561.8,820.2,561.8h-87.8c-0.4,0-0.8-0.2-1-0.6l-10.7-17.3h-41.3l-10.7,17.3
					c-0.2,0.4-0.6,0.6-1,0.6h-87.7c-0.5,0-1-0.3-1.2-0.8c-0.2-0.5-0.1-1,0.3-1.4l37.2-33.2c0.2-0.2,0.5-0.3,0.8-0.3h165.8
					c0.3,0,0.6,0.1,0.8,0.3l37.1,33c0.4,0.2,0.6,0.6,0.6,1.1C821.4,561.3,820.9,561.8,820.2,561.8z M733.1,559.4h83.8l-34.5-30.7
					H617.5l-34.4,30.7h83.8l10.7-17.3c0.2-0.4,0.6-0.6,1-0.6h42.6c0.4,0,0.8,0.2,1,0.6L733.1,559.4z"/>
			</g>
			<g>
				<path fill="#FFFFFF" d="M732.4,560.6h-64.8h-87.7c0,0,0,12.2,15.2,12.2h103.4h106.4c15.2,0,15.2-12.2,15.2-12.2H732.4z"/>
				<path d="M804.9,574H595.1c-16.3,0-16.5-13.3-16.5-13.4c0-0.3,0.1-0.6,0.4-0.9c0.2-0.2,0.5-0.4,0.9-0.4h240.3
					c0.3,0,0.6,0.1,0.9,0.4s0.4,0.5,0.4,0.9C821.4,560.7,821.2,574,804.9,574z M581.2,561.8c0.5,2.9,2.8,9.8,13.9,9.8h209.8
					c11.2,0,13.4-6.9,13.9-9.8H581.2z"/>
			</g>
			<g>
				<polygon fill="#FFFFFF" points="678.7,542.7 667.6,560.6 732.4,560.6 721.3,542.7 				"/>
				<path d="M732.4,561.8h-64.8c-0.4,0-0.9-0.2-1.1-0.6c-0.2-0.4-0.2-0.9,0-1.3l11.1-17.9c0.2-0.4,0.6-0.6,1-0.6h42.6
					c0.4,0,0.8,0.2,1,0.6l11.1,17.9c0.2,0.4,0.2,0.9,0,1.3C733.3,561.6,732.9,561.8,732.4,561.8z M669.8,559.4h60.4l-9.6-15.4h-41.3
					L669.8,559.4z"/>
			</g>
		</g>
	</g>
	<g>
		<line fill="#FFFFFF" x1="733" y1="442.9" x2="667" y2="508.9"/>
		<path d="M667,510.1c-0.3,0-0.6-0.1-0.9-0.4c-0.5-0.5-0.5-1.3,0-1.7l66-66c0.5-0.5,1.3-0.5,1.7,0c0.5,0.5,0.5,1.3,0,1.7l-66,66
			C667.6,510,667.3,510.1,667,510.1z"/>
	</g>
	<g>
		<line fill="#FFFFFF" x1="756.7" y1="459.3" x2="723.5" y2="492.5"/>
		<path d="M723.5,493.7c-0.3,0-0.6-0.1-0.9-0.4c-0.5-0.5-0.5-1.3,0-1.7l33.2-33.2c0.5-0.5,1.3-0.5,1.7,0c0.5,0.5,0.5,1.3,0,1.7
			l-33.2,33.2C724.1,493.6,723.8,493.7,723.5,493.7z"/>
	</g>
	<g>
		<line fill="#FFFFFF" x1="676.5" y1="459.3" x2="643.3" y2="492.5"/>
		<path d="M643.3,493.7c-0.3,0-0.6-0.1-0.9-0.4c-0.5-0.5-0.5-1.3,0-1.7l33.2-33.2c0.5-0.5,1.3-0.5,1.7,0c0.5,0.5,0.5,1.3,0,1.7
			l-33.2,33.2C643.9,493.6,643.6,493.7,643.3,493.7z"/>
	</g>
</g>
<g>
	<path d="M321.3,285.6h-64.7c-0.7,0-1.2-0.5-1.2-1.2l-0.2-35.1c0-2.1,0.2-4.2,0.6-6.4c3.1-16.4,16.5-27.9,32.5-27.9
		c18.8,0,34.2,15.3,34.2,34.2v35.2C322.5,285.1,321.9,285.6,321.3,285.6z M257.8,283.2H320v-34c0-17.5-14.2-31.7-31.7-31.7
		c-14.9,0-27.2,10.6-30.1,25.9c-0.4,2-0.6,4-0.6,5.9L257.8,283.2z"/>
</g>
<g>
	<path d="M256.6,543.7H60.2c-0.7,0-1.2-0.6-1.2-1.2V249.2c0-18.8,15.3-34.2,34.2-34.2h195.2c0.7,0,1.2,0.6,1.2,1.2
		c0,0.7-0.6,1.2-1.2,1.2c-14.9,0-27.2,10.6-30.1,25.9c-0.4,2-0.6,4-0.6,5.9l0.2,35.1v258.1C257.8,543.2,257.3,543.7,256.6,543.7z
		 M61.5,541.3h193.9V284.4l-0.2-35.1c0-2.1,0.2-4.2,0.6-6.4c2.2-11.9,9.9-21.2,20.1-25.4H93.1c-17.5,0-31.7,14.2-31.7,31.7V541.3z"
		/>
</g>
<g>
	<path d="M227,318.9H84.8c-0.7,0-1.2-0.6-1.2-1.2c0-0.7,0.6-1.2,1.2-1.2H227c0.7,0,1.2,0.6,1.2,1.2
		C228.3,318.3,227.7,318.9,227,318.9z"/>
</g>
<g>
	<path d="M227,350.9H84.8c-0.7,0-1.2-0.6-1.2-1.2c0-0.7,0.6-1.2,1.2-1.2H227c0.7,0,1.2,0.6,1.2,1.2
		C228.3,350.4,227.7,350.9,227,350.9z"/>
</g>
<g>
	<path d="M227,383H84.8c-0.7,0-1.2-0.6-1.2-1.2s0.6-1.2,1.2-1.2H227c0.7,0,1.2,0.6,1.2,1.2S227.7,383,227,383z"/>
</g>
<g>
	<path d="M227,415H84.8c-0.7,0-1.2-0.6-1.2-1.2s0.6-1.2,1.2-1.2H227c0.7,0,1.2,0.6,1.2,1.2S227.7,415,227,415z"/>
</g>
<g>
	<path d="M227,477.8H84.8c-0.7,0-1.2-0.6-1.2-1.2s0.6-1.2,1.2-1.2H227c0.7,0,1.2,0.6,1.2,1.2S227.7,477.8,227,477.8z"/>
</g>
<g>
	<path d="M158.4,291.5H84.8c-0.7,0-1.2-0.6-1.2-1.2v-39.9c0-0.7,0.6-1.2,1.2-1.2h73.6c0.7,0,1.2,0.6,1.2,1.2v39.9
		C159.6,290.9,159.1,291.5,158.4,291.5z M86,289h71.1v-37.5H86V289z"/>
</g>
<g>
	<path d="M180.9,119h-45c-0.7,0-1.2-0.6-1.2-1.2V82c0-0.7,0.6-1.2,1.2-1.2h45c0.7,0,1.2,0.6,1.2,1.2v35.8
		C182.1,118.4,181.6,119,180.9,119z M137.1,116.5h42.5V83.2h-42.5V116.5z"/>
</g>
<g>
	<path d="M249.5,119h-45c-0.7,0-1.2-0.6-1.2-1.2V82c0-0.7,0.6-1.2,1.2-1.2h45c0.7,0,1.2,0.6,1.2,1.2v35.8
		C250.7,118.4,250.2,119,249.5,119z M205.8,116.5h42.5V83.2h-42.5V116.5z"/>
</g>
<g>
	<path d="M227,446.3h-60.6c-0.7,0-1.2-0.6-1.2-1.2c0-0.7,0.6-1.2,1.2-1.2H227c0.7,0,1.2,0.6,1.2,1.2
		C228.3,445.7,227.7,446.3,227,446.3z"/>
</g>
<g>
	<path d="M145.6,511.1H85c-0.7,0-1.2-0.6-1.2-1.2s0.6-1.2,1.2-1.2h60.6c0.7,0,1.2,0.6,1.2,1.2S146.3,511.1,145.6,511.1z"/>
</g>
<g>
	<path d="M362.6,217.5c-0.3,0-0.6-0.1-0.9-0.4l-45.9-47.4H115.3c-0.7,0-1.2-0.6-1.2-1.2v-107c0-0.7,0.6-1.2,1.2-1.2h272.6
		c0.7,0,1.2,0.6,1.2,1.2v107c0,0.7-0.6,1.2-1.2,1.2h-24v46.5c0,0.5-0.3,1-0.8,1.1C362.9,217.5,362.8,217.5,362.6,217.5z
		 M116.6,167.3h199.8c0.3,0,0.7,0.1,0.9,0.4l44.1,45.6v-44.7c0-0.7,0.6-1.2,1.2-1.2h24V62.7H116.6V167.3z"/>
</g>
<g>
	<path d="M368.6,97.3H265.4c-0.7,0-1.2-0.6-1.2-1.2s0.6-1.2,1.2-1.2h103.2c0.7,0,1.2,0.6,1.2,1.2S369.3,97.3,368.6,97.3z"/>
</g>
<g>
	<path d="M368.6,117.9H265.4c-0.7,0-1.2-0.6-1.2-1.2c0-0.7,0.6-1.2,1.2-1.2h103.2c0.7,0,1.2,0.6,1.2,1.2
		C369.8,117.3,369.3,117.9,368.6,117.9z"/>
</g>
<g>
	<path d="M368.6,140.7H135.9c-0.7,0-1.2-0.6-1.2-1.2s0.6-1.2,1.2-1.2h232.7c0.7,0,1.2,0.6,1.2,1.2S369.3,140.7,368.6,140.7z"/>
</g>
<g>
	<polygon fill="#FFFFFF" points="347.3,917.6 347.3,746.7 243.9,832.1 	"/>
	<path d="M347.3,918.8c-0.3,0-0.6-0.1-0.8-0.3l-103.4-85.4c-0.3-0.2-0.4-0.6-0.4-1s0.2-0.7,0.4-1l103.4-85.4
		c0.4-0.3,0.9-0.4,1.3-0.2c0.4,0.2,0.7,0.6,0.7,1.1v170.9c0,0.5-0.3,0.9-0.7,1.1C347.7,918.8,347.5,918.8,347.3,918.8z M245.9,832.1
		l100.2,82.8V749.3L245.9,832.1z"/>
</g>
<g>
	<polygon fill="#FFFFFF" points="347.3,746.7 347.3,746.7 347.3,746.7 347.3,746.7 243.9,661.3 215.2,637.6 186.5,661.3 83.1,746.7 
		83.1,746.7 83.1,746.7 83.1,746.7 83.1,746.7 186.5,832.1 215.2,855.9 243.9,832.1 347.3,746.7 	"/>
	<path d="M215.2,857.1c-0.3,0-0.6-0.1-0.8-0.3L82.3,747.7c-0.3-0.2-0.4-0.6-0.4-1s0.2-0.7,0.4-1l132.1-109.2c0.5-0.4,1.1-0.4,1.6,0
		l132.1,109.2c0.3,0.2,0.4,0.6,0.4,1s-0.2,0.7-0.4,1L216,856.8C215.8,857,215.5,857.1,215.2,857.1z M85.1,746.7l130.2,107.6
		l130.2-107.6L215.2,639.2L85.1,746.7z"/>
</g>
<g>
	<polygon fill="#FFFFFF" points="243.9,832.1 215.2,855.9 186.5,832.1 83.1,917.6 347.3,917.6 347.3,917.6 	"/>
	<path d="M347.3,918.8H83.1c-0.5,0-1-0.3-1.2-0.8c-0.2-0.5,0-1,0.4-1.4l103.4-85.4c0.5-0.4,1.1-0.4,1.6,0l27.9,23.1l27.9-23.1
		c0.5-0.4,1.1-0.4,1.6,0l103.4,85.4c0.4,0.3,0.6,0.9,0.4,1.4C348.3,918.5,347.8,918.8,347.3,918.8z M86.6,916.3h257.3l-100-82.6
		L216,856.8c-0.5,0.4-1.1,0.4-1.6,0l-27.9-23.1L86.6,916.3z"/>
</g>
<g>
	<polygon fill="#FFFFFF" points="83.1,746.7 83.1,917.6 83.1,917.6 186.5,832.1 	"/>
	<path d="M83.1,918.8c-0.2,0-0.4,0-0.5-0.1c-0.4-0.2-0.7-0.6-0.7-1.1V746.7c0-0.5,0.3-0.9,0.7-1.1c0.4-0.2,0.9-0.1,1.3,0.2
		l103.4,85.4c0.3,0.2,0.4,0.6,0.4,1s-0.2,0.7-0.4,1L83.9,918.5C83.7,918.7,83.4,918.8,83.1,918.8z M84.4,749.3v165.6l100.2-82.8
		L84.4,749.3z"/>
</g>
<g>
	<g>
		<rect x="1025.5" y="66.1" fill="#FFFFFF" width="112.2" height="25.5"/>
		<path d="M1137.7,92.8h-112.2c-0.7,0-1.2-0.6-1.2-1.2V66.1c0-0.7,0.6-1.2,1.2-1.2h112.2c0.7,0,1.2,0.6,1.2,1.2v25.5
			C1138.9,92.3,1138.3,92.8,1137.7,92.8z M1026.7,90.4h109.7v-23h-109.7V90.4z"/>
	</g>
	<g>
		<rect x="1025.5" y="91.6" fill="#FFFFFF" width="112.2" height="168.2"/>
		<path d="M1137.7,261.1h-112.2c-0.7,0-1.2-0.6-1.2-1.2V91.6c0-0.7,0.6-1.2,1.2-1.2h112.2c0.7,0,1.2,0.6,1.2,1.2v168.2
			C1138.9,260.5,1138.3,261.1,1137.7,261.1z M1026.7,258.6h109.7V92.8h-109.7V258.6z"/>
	</g>
</g>
<g>
	<path d="M1117.2,166.4H1046c-0.7,0-1.2-0.6-1.2-1.2v-60.5c0-0.7,0.6-1.2,1.2-1.2h71.2c0.7,0,1.2,0.6,1.2,1.2v60.5
		C1118.4,165.8,1117.8,166.4,1117.2,166.4z M1047.2,163.9h68.7v-58h-68.7V163.9z"/>
</g>
<g>
	<path d="M1124.4,183.9h-86.5c-0.7,0-1.2-0.6-1.2-1.2c0-0.7,0.6-1.2,1.2-1.2h86.5c0.7,0,1.2,0.6,1.2,1.2
		C1125.6,183.3,1125,183.9,1124.4,183.9z"/>
</g>
<g>
	<path d="M1124.4,206.5h-86.5c-0.7,0-1.2-0.6-1.2-1.2s0.6-1.2,1.2-1.2h86.5c0.7,0,1.2,0.6,1.2,1.2S1125,206.5,1124.4,206.5z"/>
</g>
<g>
	<path d="M1124.4,229.2h-86.5c-0.7,0-1.2-0.6-1.2-1.2c0-0.7,0.6-1.2,1.2-1.2h86.5c0.7,0,1.2,0.6,1.2,1.2
		C1125.6,228.7,1125,229.2,1124.4,229.2z"/>
</g>
<g>
	<path d="M1052.1,80.1h-17.3c-0.7,0-1.2-0.6-1.2-1.2c0-0.7,0.6-1.2,1.2-1.2h17.3c0.7,0,1.2,0.6,1.2,1.2
		C1053.3,79.5,1052.8,80.1,1052.1,80.1z"/>
</g>
<g>
	<rect x="1137.7" y="163" fill="#FFFFFF" width="192.2" height="190.8"/>
	<path d="M1329.9,355h-192.2c-0.7,0-1.2-0.6-1.2-1.2V163c0-0.7,0.6-1.2,1.2-1.2h192.2c0.7,0,1.2,0.6,1.2,1.2v190.8
		C1331.1,354.4,1330.6,355,1329.9,355z M1138.9,352.5h189.8V164.2h-189.8V352.5z"/>
</g>
<g>
	<g>
		<path fill="#FFFFFF" d="M202.5,673.8c0,37.4-30.3,67.6-67.6,67.6c-37.3,0-67.6-30.3-67.6-67.6c0-37.4,30.3-67.6,67.6-67.6
			C172.2,606.1,202.5,636.4,202.5,673.8z"/>
		<path d="M134.8,742.6c-38,0-68.9-30.9-68.9-68.9c0-38,30.9-68.9,68.9-68.9c38,0,68.9,30.9,68.9,68.9
			C203.7,711.8,172.8,742.6,134.8,742.6z M134.8,607.4c-36.6,0-66.4,29.8-66.4,66.4c0,36.6,29.8,66.4,66.4,66.4
			c36.6,0,66.4-29.8,66.4-66.4C201.2,637.2,171.4,607.4,134.8,607.4z"/>
	</g>
	<g>
		<line fill="#FFFFFF" x1="169.7" y1="638.9" x2="100" y2="708.6"/>
		<path d="M100,709.8c-0.3,0-0.6-0.1-0.9-0.4c-0.5-0.5-0.5-1.3,0-1.7l69.7-69.7c0.5-0.5,1.3-0.5,1.7,0c0.5,0.5,0.5,1.3,0,1.7
			l-69.7,69.7C100.6,709.7,100.3,709.8,100,709.8z"/>
	</g>
	<g>
		<path fill="#FFFFFF" d="M121.2,660.2c-5.8,5.8-15.2,5.8-21,0c-5.8-5.8-5.8-15.2,0-21c5.8-5.8,15.2-5.8,21,0
			C127,644.9,127,654.3,121.2,660.2z"/>
		<path d="M110.7,665.7c-4.3,0-8.4-1.7-11.4-4.7c-6.3-6.3-6.3-16.5,0-22.8c3-3,7.1-4.7,11.4-4.7s8.4,1.7,11.4,4.7
			c6.3,6.3,6.3,16.5,0,22.8C119,664.1,115,665.7,110.7,665.7z M110.7,636c-3.6,0-7.1,1.4-9.7,4c-5.3,5.3-5.3,14,0,19.3
			c2.6,2.6,6,4,9.7,4c3.6,0,7.1-1.4,9.7-4c5.3-5.3,5.3-14,0-19.3C117.7,637.4,114.3,636,110.7,636z"/>
	</g>
	<g>
		<path fill="#FFFFFF" d="M169.5,708.4c-5.8,5.8-15.2,5.8-21,0c-5.8-5.8-5.8-15.2,0-21c5.8-5.8,15.2-5.8,21,0
			C175.3,693.2,175.3,702.6,169.5,708.4z"/>
		<path d="M159,714c-4.3,0-8.4-1.7-11.4-4.7c-3-3-4.7-7.1-4.7-11.4c0-4.3,1.7-8.4,4.7-11.4c3-3,7.1-4.7,11.4-4.7s8.4,1.7,11.4,4.7
			c6.3,6.3,6.3,16.5,0,22.8C167.3,712.4,163.3,714,159,714z M159,684.3c-3.6,0-7.1,1.4-9.7,4c-2.6,2.6-4,6-4,9.7
			c0,3.6,1.4,7.1,4,9.6c2.6,2.6,6,4,9.7,4c3.6,0,7.1-1.4,9.7-4c5.3-5.3,5.3-14,0-19.3C166,685.7,162.6,684.3,159,684.3z"/>
	</g>
</g>
<g>
	<path fill="#FFFFFF" d="M1287,805.6h-6.3c0-22.7-18.4-41.1-41.1-41.1c-3,0-6,0.3-8.8,1c-15.2-32.9-48.5-55.8-87.2-55.8
		c-53,0-96,43-96,96c0,4.9,0.4,9.7,1.1,14.4c-19.3,3.4-33.9,20.2-33.9,40.5c0,22.7,18.4,41.1,41.1,41.1h87.3h13.8H1287
		c26.5,0,48-21.5,48-48C1335,827.1,1313.5,805.6,1287,805.6z"/>
	<path d="M1287,902.8h-231.1c-23.3,0-42.3-19-42.3-42.3c0-20.2,14.1-37.4,33.8-41.5c-0.6-4.4-0.9-8.9-0.9-13.4
		c0-53.6,43.6-97.2,97.2-97.2c37.5,0,71.8,21.8,87.9,55.7c2.6-0.5,5.4-0.8,8.1-0.8c22.9,0,41.7,18.3,42.3,41.1h5.1
		c27.1,0,49.2,22.1,49.2,49.2C1336.2,880.7,1314.1,902.8,1287,902.8z M1143.6,710.9c-52.2,0-94.8,42.5-94.8,94.7
		c0,4.8,0.4,9.6,1.1,14.2c0.1,0.7-0.3,1.3-1,1.4c-19.1,3.4-32.9,19.9-32.9,39.3c0,22,17.9,39.9,39.9,39.9H1287
		c25.8,0,46.8-21,46.8-46.8c0-25.8-21-46.8-46.8-46.8h-6.3c-0.7,0-1.2-0.6-1.2-1.2c0-22-17.9-39.9-39.9-39.9c-2.9,0-5.8,0.3-8.6,0.9
		c-0.6,0.1-1.1-0.2-1.4-0.7C1214.2,732.5,1180.4,710.9,1143.6,710.9z"/>
</g>
<g>
	<g>
		<path fill="#FFFFFF" d="M1123.1,764.6c-27.3,16-38.8,48.6-29.4,77.4l-92.3,54.3c-6.9,4-9.2,12.9-5.1,19.8
			c4.1,6.9,12.9,9.2,19.8,5.1l92.3-54.3c20.7,22.2,54.7,27.9,82,11.9c31.5-18.6,42.1-59.2,23.5-90.7
			C1195.2,756.6,1154.6,746.1,1123.1,764.6z M1181.6,864c-23.3,13.7-53.4,6-67.2-17.4c-13.7-23.4-6-53.4,17.4-67.2
			c23.4-13.7,53.4-6,67.2,17.4C1212.7,820.2,1204.9,850.3,1181.6,864z"/>
		<path d="M1008.7,924.5c-5.5,0-10.7-3-13.5-7.7c-4.4-7.4-1.9-17.1,5.6-21.5l91.5-53.8c-9.1-29.6,3.5-62.2,30.3-77.9
			c10.4-6.1,22.2-9.3,34.2-9.3c23.8,0,46.2,12.7,58.2,33.3c9.1,15.5,11.7,33.7,7.2,51.2c-4.5,17.5-15.6,32.1-31.1,41.2
			c-10.4,6.1-22.2,9.3-34.1,9.3c0,0,0,0,0,0c-18.3,0-36-7.5-48.7-20.7l-91.5,53.8C1014.2,923.8,1011.5,924.5,1008.7,924.5z
			 M1156.6,756.7c-11.5,0-22.9,3.1-32.9,9c-26,15.3-38.2,47.3-28.9,76c0.2,0.5,0,1.1-0.5,1.4l-92.3,54.3c-6.3,3.7-8.4,11.8-4.7,18.1
			c2.4,4,6.7,6.5,11.4,6.5c2.3,0,4.7-0.6,6.7-1.8l92.3-54.3c0.5-0.3,1.1-0.2,1.5,0.2c12.2,13.1,29.6,20.6,47.6,20.6
			c11.5,0,22.9-3.1,32.9-9c15-8.8,25.6-22.9,30-39.7c4.4-16.8,1.9-34.3-6.9-49.3C1201.1,769,1179.6,756.7,1156.6,756.7z M1156.8,872
			c-17.8,0-34.4-9.5-43.4-24.8c-14.1-23.9-6.1-54.8,17.8-68.9c7.7-4.6,16.5-7,25.5-7c17.8,0,34.4,9.5,43.4,24.8
			c14.1,23.9,6.1,54.8-17.8,68.9C1174.5,869.6,1165.7,872,1156.8,872z M1156.7,773.9c-8.5,0-16.9,2.3-24.2,6.6
			c-22.7,13.4-30.3,42.7-17,65.5c8.6,14.5,24.4,23.6,41.3,23.6c8.5,0,16.9-2.3,24.2-6.6c22.7-13.4,30.3-42.8,17-65.5
			C1189.4,782.9,1173.6,773.9,1156.7,773.9z"/>
	</g>
	<g>
		<path d="M1185,822.4h-57.3c-0.7,0-1.2-0.6-1.2-1.2c0-0.7,0.6-1.2,1.2-1.2h57.3c0.7,0,1.2,0.6,1.2,1.2
			C1186.3,821.9,1185.7,822.4,1185,822.4z"/>
	</g>
	<g>
		<path d="M1156.4,851.1c-0.7,0-1.2-0.6-1.2-1.2v-57.3c0-0.7,0.6-1.2,1.2-1.2c0.7,0,1.2,0.6,1.2,1.2v57.3
			C1157.6,850.5,1157,851.1,1156.4,851.1z"/>
	</g>
</g>
<g>
	<g>
		<path d="M1329.9,668h-192.2c-0.7,0-1.2-0.6-1.2-1.2V418.7c0-0.7,0.6-1.2,1.2-1.2h192.2c0.7,0,1.2,0.6,1.2,1.2v248.1
			C1331.1,667.4,1330.6,668,1329.9,668z M1138.9,665.5h189.8V419.9h-189.8V665.5z"/>
	</g>
	<g>
		<path d="M1176.6,483.1c-12,0-21.8-9.8-21.8-21.8c0-12,9.8-21.8,21.8-21.8c12,0,21.8,9.8,21.8,21.8
			C1198.4,473.4,1188.6,483.1,1176.6,483.1z M1176.6,442c-10.7,0-19.3,8.7-19.3,19.3c0,10.7,8.7,19.3,19.3,19.3
			c10.7,0,19.3-8.7,19.3-19.3C1195.9,450.7,1187.2,442,1176.6,442z"/>
	</g>
	<g>
		<path d="M1311.8,462.6H1214c-0.7,0-1.2-0.6-1.2-1.2c0-0.7,0.6-1.2,1.2-1.2h97.8c0.7,0,1.2,0.6,1.2,1.2
			C1313,462,1312.5,462.6,1311.8,462.6z"/>
	</g>
	<g>
		<path d="M1283,483.1h-79.7c-0.7,0-1.2-0.6-1.2-1.2c0-0.7,0.6-1.2,1.2-1.2h79.7c0.7,0,1.2,0.6,1.2,1.2
			C1284.3,482.6,1283.7,483.1,1283,483.1z"/>
	</g>
	<g>
		<path d="M1176.6,547.4c-12,0-21.8-9.8-21.8-21.8c0-12,9.8-21.8,21.8-21.8c12,0,21.8,9.8,21.8,21.8
			C1198.4,537.6,1188.6,547.4,1176.6,547.4z M1176.6,506.3c-10.7,0-19.3,8.7-19.3,19.3c0,10.7,8.7,19.3,19.3,19.3
			c10.7,0,19.3-8.7,19.3-19.3C1195.9,515,1187.2,506.3,1176.6,506.3z"/>
	</g>
	<g>
		<path d="M1311.8,526.8H1214c-0.7,0-1.2-0.6-1.2-1.2c0-0.7,0.6-1.2,1.2-1.2h97.8c0.7,0,1.2,0.6,1.2,1.2
			C1313,526.3,1312.5,526.8,1311.8,526.8z"/>
	</g>
	<g>
		<path d="M1311.8,547.4h-108.5c-0.7,0-1.2-0.6-1.2-1.2s0.6-1.2,1.2-1.2h108.5c0.7,0,1.2,0.6,1.2,1.2S1312.5,547.4,1311.8,547.4z"/>
	</g>
	<g>
		<path d="M1311.8,567.8H1156c-0.7,0-1.2-0.6-1.2-1.2s0.6-1.2,1.2-1.2h155.8c0.7,0,1.2,0.6,1.2,1.2S1312.5,567.8,1311.8,567.8z"/>
	</g>
	<g>
		<path d="M1311.8,589.2H1156c-0.7,0-1.2-0.6-1.2-1.2s0.6-1.2,1.2-1.2h155.8c0.7,0,1.2,0.6,1.2,1.2S1312.5,589.2,1311.8,589.2z"/>
	</g>
	<g>
		<path d="M1311.8,610.5H1156c-0.7,0-1.2-0.6-1.2-1.2c0-0.7,0.6-1.2,1.2-1.2h155.8c0.7,0,1.2,0.6,1.2,1.2
			C1313,610,1312.5,610.5,1311.8,610.5z"/>
	</g>
	<g>
		<path d="M1239.9,631.9H1156c-0.7,0-1.2-0.6-1.2-1.2s0.6-1.2,1.2-1.2h83.8c0.7,0,1.2,0.6,1.2,1.2S1240.6,631.9,1239.9,631.9z"/>
	</g>
</g>
<g>
	<path d="M1233.8,327.4c-38,0-69-31-69-69c0-38,31-69,69-69c38,0,69,31,69,69C1302.8,296.4,1271.8,327.4,1233.8,327.4z
		 M1233.8,191.8c-36.7,0-66.5,29.8-66.5,66.5c0,36.7,29.8,66.5,66.5,66.5c36.7,0,66.5-29.8,66.5-66.5
		C1300.3,221.7,1270.5,191.8,1233.8,191.8z"/>
</g>
<g>
	<path d="M1233.8,251.8c-13.3,0-24.2-10.8-24.2-24.2c0-13.3,10.8-24.2,24.2-24.2c13.3,0,24.2,10.8,24.2,24.2
		C1258,240.9,1247.1,251.8,1233.8,251.8z M1233.8,205.9c-12,0-21.7,9.7-21.7,21.7c0,12,9.7,21.7,21.7,21.7c12,0,21.7-9.7,21.7-21.7
		C1255.5,215.6,1245.8,205.9,1233.8,205.9z"/>
</g>
<g>
	<path d="M1233.8,327.4c-8.3,0-16.5-1.5-24.3-4.4c0,0,0,0,0,0c-7.4-2.8-14.3-6.8-20.3-12c-0.3-0.2-0.4-0.6-0.4-0.9v-16
		c0-18.1,14.7-32.9,32.9-32.9h24.4c18.1,0,32.9,14.7,32.9,32.9v16c0,0.4-0.2,0.7-0.4,0.9c-6,5.1-12.7,9.1-20.1,11.9
		c-0.1,0.1-0.3,0.1-0.4,0.1C1250.2,325.9,1242.1,327.4,1233.8,327.4z M1211.1,320.9c14.5,5.3,30.7,5.3,45.3,0v-22.1
		c0-0.7,0.6-1.2,1.2-1.2c0.7,0,1.2,0.6,1.2,1.2V320c6.3-2.6,12.2-6.1,17.5-10.5V294c0-16.8-13.6-30.4-30.4-30.4h-24.4
		c-16.8,0-30.4,13.6-30.4,30.4v15.5c5.3,4.4,11.2,7.9,17.5,10.5v-21.2c0-0.7,0.6-1.2,1.2-1.2s1.2,0.6,1.2,1.2V320.9z"/>
</g>
</svg>
