<?xml version="1.0" encoding="utf-8"?>
<!-- Generator: Adobe Illustrator 18.0.0, SVG Export Plug-In . SVG Version: 6.00 Build 0)  -->
<!DOCTYPE svg PUBLIC "-//W3C//DTD SVG 1.1//EN" "http://www.w3.org/Graphics/SVG/1.1/DTD/svg11.dtd">
<svg version="1.1" id="Layer_1" xmlns="http://www.w3.org/2000/svg" xmlns:xlink="http://www.w3.org/1999/xlink" x="0px" y="0px"
	 width="841.9px" height="595.3px" viewBox="0 0 841.9 595.3" enable-background="new 0 0 841.9 595.3" xml:space="preserve">
<g>
	<rect y="0" fill="#FFFFFF" width="841.9" height="595.3"/>
	<g>
		<g>
			<circle fill="#27AAE1" cx="321.2" cy="167.5" r="72.5"/>
			<g>
				<g>
					<path fill="#EAF3F5" d="M248.1,128.1v84.7c0,2.2,1.8,4,4,4h119.6c2.2,0,4-1.8,4-4v-84.7c0-2.2-1.8-4-4-4H252.1
						C249.9,124.1,248.1,125.9,248.1,128.1z"/>
					<rect x="248.1" y="133.2" fill="#2D3134" width="127.6" height="69.5"/>
					<polygon fill="#C2DBDF" points="326.8,216.8 297.1,216.8 292.2,240.8 331.7,240.8 					"/>
					<g>
						<rect x="280.7" y="239" fill="#2D3134" width="62.5" height="3.5"/>
					</g>
					<rect x="254.8" y="139.8" fill="#EF4136" width="114.3" height="56.2"/>
					<polygon fill="#FFFFFF" points="303.1,154.9 303.1,180.9 326.8,167.9 					"/>
					<polygon fill="#A1B6BB" points="328.2,223.8 326.8,216.8 297.1,216.8 295.6,223.8 					"/>
				</g>
				<g>
					<path fill="#C2DBDF" d="M335,145.5c2.2,14.3,6.5,28.2,13,41.1c4.7-2.4,9.5-4.7,14.2-7.1c-5.5-11-9.3-22.8-11.3-35l-1.2-7
						l-15.7,2.8L335,145.5z"/>
					<path fill="#C2DBDF" d="M335,145.5c2.2,14.3,6.5,28.2,13,41.1c4.7-2.4,9.5-4.7,14.2-7.1c-5.5-11-9.3-22.8-11.3-35l-1.2-7
						l-15.7,2.8L335,145.5z"/>
					<path fill="#A1B6BB" d="M351.6,147.9c-0.2-1.1-0.4-2.3-0.6-3.4l-1.2-7l-15.7,2.8l1,5.2c0.2,1.1,0.4,2.1,0.5,3.2
						C341.2,148.1,346.6,147.9,351.6,147.9z"/>
					<path fill="#EAF3F5" d="M325,146.1c36.7-6.5,65.8,3.2,65.8,3.2l-10-56.9c0,0-24.1,19.1-60.8,25.6L325,146.1z"/>
					<polygon fill="#C2DBDF" points="311.9,127.4 314.2,140.1 324,140.4 321.1,123.8 					"/>
					<path fill="#C2DBDF" d="M389,115.9l-3.9,0.7l1.5,8.7l3.9-0.7c2.4-0.4,4-2.7,3.6-5.1C393.7,117.1,391.4,115.4,389,115.9z"/>
					<path fill="#E74345" d="M378.3,146.4c7.9,1.4,12.6,3,12.6,3l-10-56.9c0,0-3.9,3.1-10.8,7.1L378.3,146.4z"/>
				</g>
			</g>
			<g>
				<rect x="259.8" y="147.3" fill="#FFFFFF" width="1.9" height="5.8"/>
				<rect x="259.8" y="155.2" fill="#FFFFFF" width="1.9" height="22"/>
			</g>
		</g>
		<g>
			<circle fill="#FEBB13" cx="121.6" cy="167.5" r="72.5"/>
			<g>
				<path fill="#B0C7CC" d="M151.7,132.9v75.8c0,9.2,7.5,16.7,16.7,16.7h0c9.2,0,16.7-7.5,16.7-16.7v-67c0-4.8-3.9-8.7-8.7-8.7
					H151.7z"/>
				<path fill="#EAF3F5" d="M151.7,208.7L151.7,208.7l0-99.1H58.1v99.1c0,9.2,7.5,16.7,16.7,16.7h93.6v0
					C159.2,225.4,151.7,217.9,151.7,208.7z"/>
				<rect x="151.7" y="132.9" fill="#A1B6BB" width="20.3" height="76.5"/>
				<g>
					<g>
						<path fill="#2D3134" d="M78.7,127.6L78.7,127.6l-0.1,17.1h-3.3v-23.6h4.6l3.7,14.1h0.1v-14.1H87v23.6h-3.8L78.7,127.6z"/>
						<path fill="#2D3134" d="M94.4,131.1h5.1v3.4h-5.1v6.9h6.4v3.4H90.7v-23.6h10.1v3.4h-6.4V131.1z"/>
						<path fill="#2D3134" d="M112.3,132.1L112.3,132.1l-1.4,12.5h-5.1l-2.6-23.6h3.6l2,18.6h0.1l1.7-18.6h3.6l1.8,18.7h0.1
							l1.9-18.7h3.2l-2.6,23.6h-4.9L112.3,132.1z"/>
						<path fill="#2D3134" d="M129,120.9c3.6,0,5.5,2.2,5.5,5.9v0.7H131v-1c0-1.7-0.7-2.3-1.9-2.3c-1.2,0-1.9,0.6-1.9,2.3
							c0,1.7,0.7,3,3.2,5.1c3.1,2.7,4.1,4.7,4.1,7.4c0,3.8-1.9,5.9-5.5,5.9c-3.6,0-5.5-2.2-5.5-5.9v-1.4h3.5v1.7
							c0,1.7,0.7,2.3,1.9,2.3c1.2,0,1.9-0.6,1.9-2.3c0-1.7-0.7-3-3.2-5.1c-3.1-2.7-4.1-4.7-4.1-7.4C123.6,123,125.4,120.9,129,120.9
							z"/>
					</g>
				</g>
				<path fill="#C2DBDF" d="M176.8,132.9h-25.1v72h16.7v-63.6C168.4,136.7,172.2,132.9,176.8,132.9z"/>
				<rect x="151.7" y="132.9" fill="#B0C7CC" width="5.2" height="72"/>
				<rect x="72.7" y="151" fill="#E74345" width="64.4" height="30.6"/>
				<g>
					<g>
						<rect x="72.7" y="186.4" fill="#2D3134" width="30.4" height="3"/>
					</g>
					<g>
						<rect x="72.7" y="194.9" fill="#2D3134" width="30.4" height="3"/>
					</g>
					<g>
						<rect x="72.7" y="203.4" fill="#2D3134" width="30.4" height="3"/>
					</g>
				</g>
				<g>
					<g>
						<rect x="106.7" y="186.4" fill="#2D3134" width="30.4" height="3"/>
					</g>
					<g>
						<rect x="106.7" y="194.9" fill="#2D3134" width="30.4" height="3"/>
					</g>
					<g>
						<rect x="106.7" y="203.4" fill="#2D3134" width="30.4" height="3"/>
					</g>
				</g>
			</g>
		</g>
		<g>
			<circle fill="#27AAE1" cx="720.1" cy="430.3" r="72.5"/>
			<g>
				<g>
					<g>
						<g>
							<g>
								<g>
									<path fill="#C2DBDF" d="M710.9,464.8l-13.2-5.1l0,0l0,0l0.1-0.2l-5.9-7.4v-2.8c2.3-1.4,4-3.6,6.3-6.3
										c4.4-5.2,5.2-11.9,5.2-11.9c5.2,1.7,10.1-11.5,6.1-14.5c-0.7-0.5-1.3-0.8-1.8-0.9l0,0c11.4-24.6-17.7-35-30.2-31.8
										c-12.6,3.1-13.4,12.8-13.4,12.8c-15.1,2.8-5.9,19-5.9,19l0,0c-0.6,0.1-1.2,0.4-1.8,0.9c-4,2.9,0.8,16.1,6.1,14.5
										c0,0,0.8,6.7,5.2,11.9c2.3,2.7,4,4.8,6.3,6.3v2.8l-5.9,7.4l0.1,0.2l-0.1,0l0,0l-13.1,5c-4.3,1.7-7.2,5.9-7.2,10.5v7.7h35.3
										h35.3v-7.7C718.1,470.7,715.2,466.5,710.9,464.8z M703.4,418.3L703.4,418.3L703.4,418.3L703.4,418.3z M662.3,418.3
										L662.3,418.3L662.3,418.3L662.3,418.3z"/>
								</g>
							</g>
							<g>
								<g>
									<path fill="#C2DBDF" d="M785.4,464.8l-13.2-5.1l0,0l0,0l0.1-0.2l-5.9-7.4v-2.8c2.3-1.4,4-3.6,6.3-6.3
										c4.4-5.2,5.2-11.9,5.2-11.9c5.2,1.7,10.1-11.5,6.1-14.5c-0.7-0.5-1.3-0.8-1.8-0.9l0,0c11.4-24.6-17.7-35-30.2-31.8
										c-12.6,3.1-13.4,12.8-13.4,12.8c-15.1,2.8-5.9,19-5.9,19l0,0c-0.6,0.1-1.2,0.4-1.8,0.9c-4,2.9,0.8,16.1,6.1,14.5
										c0,0,0.8,6.7,5.2,11.9c2.3,2.7,4,4.8,6.3,6.3v2.8l-5.9,7.4l0.1,0.2l-0.1,0l0,0l-13.1,5c-4.3,1.7-7.2,5.9-7.2,10.5v7.7h35.3
										h35.3v-7.7C792.6,470.7,789.7,466.5,785.4,464.8z M777.9,418.3L777.9,418.3L777.9,418.3L777.9,418.3z M736.8,418.3
										L736.8,418.3L736.8,418.3L736.8,418.3z"/>
								</g>
							</g>
						</g>
					</g>
					<g>
						<polygon fill="#FEDCBD" points="730.7,459.3 730.7,441.3 720.1,441.3 709.5,441.3 709.5,459.3 720.1,466.9 						"/>
						<path fill="#386A8D" d="M732,459.3l-11.9,8.4l-11.9-8.4l-21.1,8.1c-5.1,2-8.5,6.9-8.5,12.4v9.1h41.5h41.5v-9.1
							c0-5.5-3.4-10.4-8.5-12.4L732,459.3z"/>
						<path fill="#386A8D" d="M732,459.3l-11.9,8.4l-11.9-8.4l-21.1,8.1c-5.1,2-8.5,6.9-8.5,12.4v9.1h41.5h41.5v-9.1
							c0-5.5-3.4-10.4-8.5-12.4L732,459.3z"/>
						<path fill="#C2DBDF" d="M702.6,461.5c1.4,5.9,4.7,18.4,8.7,27.4h8.8h8.7c4.1-9,7.3-21.5,8.8-27.4l-5.6-2.1l-11.9,7.6
							l-11.9-7.6L702.6,461.5z"/>
						<path fill="#E6C8AD" d="M709.5,441.3v12.1c2.5,1.6,5.7,2.5,10.6,2.5c4.9,0,8-0.9,10.6-2.5v-12.1h-10.6H709.5z"/>
						<polygon fill="#E74345" points="728.8,466.9 720.1,466.9 720.1,466.9 711.3,466.9 717.1,475.4 714.2,488.9 720.1,488.9 
							720.1,488.9 725.9,488.9 723,475.4 						"/>
						<path fill="#FEDCBD" d="M751.4,410.8c-4.7-3.5-7.1,2-7.1,2c0-31.1-24.2-29.3-24.2-29.3s-24.2-1.7-24.2,29.3c0,0-2.5-5.4-7.1-2
							c-4.7,3.5,1,19,7.1,17c0,0,1,7.9,6.2,14c5.2,6.2,7.9,9.9,18,9.9c10.1,0,12.8-3.7,18-9.9c5.2-6.2,6.2-14,6.2-14
							C750.4,429.7,756.1,414.2,751.4,410.8z"/>
						<path fill="#8B5E3C" d="M713.7,372.3c-14.8,3.7-15.8,15-15.8,15c-17.7,3.3-7,22.4-7,22.4l5,3c0,0,9.8-4.7,9.8-18.9
							c0,0,8.4,7.9,18.3,7.9s6.8-5.2,6.8-5.2s11.7,5,13.4,16.3l5-3C762.6,380.8,728.5,368.6,713.7,372.3z"/>
						<polygon fill="#EAF3F5" points="709.5,452.5 720.1,466.9 711.8,476.6 702.5,461.2 						"/>
						<polygon fill="#EAF3F5" points="730.7,452.5 720.1,466.9 728.4,476.6 737.7,461.2 						"/>
					</g>
				</g>
				<g>
					<circle fill="#EF4136" cx="762.7" cy="458.8" r="30.1"/>
					<circle fill="#FFFFFF" cx="762.7" cy="458.8" r="24.3"/>
					<circle fill="#EF4136" cx="762.7" cy="458.8" r="18.6"/>
					<circle fill="#FFFFFF" cx="762.7" cy="458.8" r="12.9"/>
					<circle fill="#EF4136" cx="762.7" cy="458.8" r="7.2"/>
				</g>
			</g>
		</g>
		<g>
			<circle fill="#82AC40" cx="520.7" cy="430.3" r="72.5"/>
			<g>
				<g>
					<rect x="463.9" y="440.4" fill="#F89A1C" width="113.6" height="62.4"/>
					<rect x="463.9" y="440.4" fill="#F89A1C" width="113.6" height="62.4"/>
					<polygon fill="#F58C1F" points="520.7,485 463.9,440.4 463.9,502.8 577.5,502.8 577.5,440.4 					"/>
					<polygon fill="#FFCD3F" points="520.7,498.4 463.9,440.4 463.9,502.8 577.5,502.8 577.5,440.4 					"/>
					<polygon fill="#F89A1C" points="463.9,440.4 520.7,392 577.5,440.4 					"/>
					<polygon fill="#F58C1F" points="463.9,502.8 520.7,443 577.5,502.8 					"/>
					<polygon fill="#F2AE1D" points="520.7,498.4 491,468.2 463.9,502.8 577.5,502.8 550.3,468.2 					"/>
					<polygon fill="#FEBB13" points="463.9,502.8 520.7,452.9 577.5,502.8 					"/>
				</g>
				<g>
					<path fill="#C2DBDF" d="M502.6,410.8c2.2,14.3,6.5,28.2,13,41.1c4.7-2.4,9.5-4.7,14.2-7.1c-5.5-11-9.3-22.8-11.3-35l-1.2-7
						l-15.7,2.8L502.6,410.8z"/>
					<path fill="#A1B6BB" d="M519.2,413.2c-0.2-1.1-0.4-2.3-0.6-3.4l-1.2-7l-15.7,2.8l1,5.2c0.2,1.1,0.4,2.1,0.5,3.2
						C508.8,413.4,514.2,413.2,519.2,413.2z"/>
					<path fill="#EAF3F5" d="M492.6,411.4c36.7-6.5,65.8,3.2,65.8,3.2l-10-56.9c0,0-24.1,19.1-60.8,25.6L492.6,411.4z"/>
					<polygon fill="#C2DBDF" points="479.5,392.7 481.8,405.4 491.6,405.7 488.7,389.1 					"/>
					<path fill="#C2DBDF" d="M556.6,381.2l-3.9,0.7l1.5,8.7l3.9-0.7c2.4-0.4,4-2.7,3.6-5.1C561.3,382.3,559,380.7,556.6,381.2z"/>
					<path fill="#E74345" d="M545.9,411.7c7.9,1.4,12.6,3,12.6,3l-10-56.9c0,0-3.9,3.1-10.8,7.1L545.9,411.7z"/>
				</g>
			</g>
		</g>
		<g>
			<circle fill="#27AAE1" cx="520.7" cy="167.5" r="72.5"/>
			<g>
				<path fill="#EAF3F5" d="M464.7,119.1v74.3c0,1.9,1.6,3.5,3.5,3.5h104.9c1.9,0,3.5-1.6,3.5-3.5v-74.3c0-1.9-1.6-3.5-3.5-3.5
					H468.2C466.3,115.6,464.7,117.1,464.7,119.1z"/>
				<rect x="464.7" y="123.5" fill="#2D3134" width="111.9" height="60.9"/>
				<polygon fill="#C2DBDF" points="533.7,196.9 507.7,196.9 503.4,217.9 538,217.9 				"/>
				<g>
					<rect x="493.3" y="216.4" fill="#2D3134" width="54.8" height="3.1"/>
				</g>
				<rect x="470.6" y="129.3" fill="#8ED8F8" width="100.3" height="49.3"/>
				<g>
					<rect x="475.6" y="136.7" fill="#FFFFFF" width="1.9" height="5.8"/>
					<rect x="475.6" y="144.6" fill="#FFFFFF" width="1.9" height="22"/>
				</g>
				<g>
					<polygon fill="#EF4136" points="579.7,131.3 578.8,136.2 584.5,137.1 551.5,155.7 529,142.3 504.3,161.3 487.6,151.2 
						448.2,172.4 450.5,176.7 487.5,156.8 504.6,167.2 529.3,148.2 551.4,161.4 586.9,141.4 586,146.4 590.8,147.3 593.2,133.7 
											"/>
					<circle fill="#EF4136" cx="530.4" cy="145.7" r="6"/>
					<circle fill="#FFF200" cx="552.9" cy="157.7" r="6"/>
					<circle fill="#FFFFFF" cx="504.6" cy="163.7" r="6"/>
					<circle fill="#F7941E" cx="487.3" cy="154" r="6"/>
				</g>
				<polygon fill="#A1B6BB" points="534.7,201.7 533.7,196.9 507.7,196.9 506.7,201.7 				"/>
			</g>
		</g>
		<g>
			<circle fill="#FEBB13" cx="720.2" cy="167.5" r="72.5"/>
			<g>
				<g>
					<g>
						<g>
							<path fill="#2D3134" d="M662.3,99.9v135.2c0,2.7,2.2,4.9,4.9,4.9h75.1c2.7,0,4.9-2.2,4.9-4.9V99.9c0-2.7-2.2-4.9-4.9-4.9
								h-75.1C664.5,95,662.3,97.2,662.3,99.9z"/>
							<rect x="667.6" y="108.6" fill="#8ED8F8" width="74.3" height="110.8"/>
							<path fill="#4B4B4D" d="M695.6,229.5L695.6,229.5c0,2.7,2.2,4.9,4.9,4.9h8.4c2.7,0,4.9-2.2,4.9-4.9l0,0
								c0-2.7-2.2-4.9-4.9-4.9h-8.4C697.8,224.6,695.6,226.8,695.6,229.5z"/>
						</g>
						<g>
							<rect x="747.2" y="108.6" fill="#D1D3D4" width="2.8" height="16.7"/>
							<rect x="747.2" y="130.5" fill="#D1D3D4" width="2.8" height="16.7"/>
						</g>
					</g>
					<g>
						<path fill="#C2DBDF" d="M719,173.4c2.2,14.3,6.5,28.2,13,41.1c4.7-2.4,9.5-4.7,14.2-7.1c-5.5-11-9.3-22.8-11.3-35l-1.2-7
							l-15.7,2.8L719,173.4z"/>
						<path fill="#A1B6BB" d="M735.6,175.8c-0.2-1.1-0.4-2.3-0.6-3.4l-1.2-7l-15.7,2.8l1,5.2c0.2,1.1,0.4,2.1,0.5,3.2
							C725.2,176,730.6,175.8,735.6,175.8z"/>
						<path fill="#EAF3F5" d="M709,174.1c36.7-6.5,65.8,3.2,65.8,3.2l-10-56.9c0,0-24.1,19.1-60.8,25.6L709,174.1z"/>
						<polygon fill="#C2DBDF" points="695.9,155.4 698.1,168.1 708,168.3 705.1,151.7 						"/>
						<path fill="#C2DBDF" d="M773,143.8l-3.9,0.7l1.5,8.7l3.9-0.7c2.4-0.4,4-2.7,3.6-5.1C777.7,145,775.4,143.4,773,143.8z"/>
						<path fill="#E74345" d="M762.3,174.3c7.9,1.4,12.6,3,12.6,3l-10-56.9c0,0-3.9,3.1-10.8,7.1L762.3,174.3z"/>
					</g>
					<g>
						<rect x="672.5" y="120.4" fill="#FFFFFF" width="1.9" height="8.9"/>
						<rect x="672.5" y="132.6" fill="#FFFFFF" width="1.9" height="33.8"/>
					</g>
				</g>
			</g>
		</g>
		<g>
			<circle fill="#EF4136" cx="121.7" cy="430.3" r="72.5"/>
			<g>
				<g>
					<path fill="#EAF3F5" d="M49.1,375.1v84.7c0,2.2,1.8,4,4,4h119.6c2.2,0,4-1.8,4-4v-84.7c0-2.2-1.8-4-4-4H53.1
						C50.9,371.1,49.1,372.9,49.1,375.1z"/>
					<rect x="49.1" y="380.1" fill="#2D3134" width="127.6" height="69.5"/>
					<polygon fill="#C2DBDF" points="127.8,463.8 98.1,463.8 93.2,487.7 132.7,487.7 					"/>
					<g>
						<rect x="81.7" y="486" fill="#2D3134" width="62.5" height="3.5"/>
					</g>
					<polygon fill="#A1B6BB" points="129.2,470.7 127.8,463.8 98.1,463.8 96.7,470.7 					"/>
					<g>
						<rect x="55.8" y="386.8" fill="#8ED8F8" width="114.3" height="56.2"/>
					</g>
					<g>
						<g>
							<rect x="140" y="394.5" fill="#FFFFFF" width="19.6" height="19.6"/>
							<rect x="103.1" y="394.5" fill="#FFFFFF" width="19.6" height="19.6"/>
							<rect x="66.2" y="394.5" fill="#FFFFFF" width="19.6" height="19.6"/>
						</g>
						<g>
							<rect x="66.2" y="419.5" fill="#FFFFFF" width="93.4" height="3"/>
							<rect x="66.2" y="425.5" fill="#FFFFFF" width="93.4" height="3"/>
							<rect x="89.6" y="431.5" fill="#FFFFFF" width="46.7" height="3"/>
						</g>
					</g>
				</g>
				<g>
					<path fill="#2D3134" d="M114.2,421.4v53.1c0,1.4,1.1,2.5,2.5,2.5h75c1.4,0,2.5-1.1,2.5-2.5v-53.1c0-1.4-1.1-2.5-2.5-2.5h-75
						C115.3,418.9,114.2,420.1,114.2,421.4z"/>
					<rect x="117.9" y="424.6" fill="#8ED8F8" width="72.6" height="43.5"/>
					<path fill="#4B4B4D" d="M148.6,472.5L148.6,472.5c0,0.6,0.5,1,1,1h9c0.6,0,1-0.5,1-1l0,0c0-0.6-0.5-1-1-1h-9
						C149.1,471.5,148.6,471.9,148.6,472.5z"/>
					<g>
						<g>
							<rect x="172.6" y="433.5" fill="#FFFFFF" width="13.3" height="13.3"/>
							<rect x="147.5" y="433.5" fill="#FFFFFF" width="13.3" height="13.3"/>
							<rect x="122.4" y="433.5" fill="#FFFFFF" width="13.3" height="13.3"/>
						</g>
						<g>
							<rect x="122.4" y="450.5" fill="#FFFFFF" width="63.5" height="2"/>
							<rect x="122.4" y="454.6" fill="#FFFFFF" width="63.5" height="2"/>
							<rect x="138.3" y="458.7" fill="#FFFFFF" width="31.8" height="2"/>
						</g>
					</g>
				</g>
			</g>
		</g>
		<g>
			<circle fill="#82AC40" cx="321.2" cy="430.3" r="72.5"/>
			<g>
				<g>
					<path fill="#2D3134" d="M278.7,362.7v135.2c0,2.7,2.2,4.9,4.9,4.9h75.1c2.7,0,4.9-2.2,4.9-4.9V362.7c0-2.7-2.2-4.9-4.9-4.9
						h-75.1C280.9,357.8,278.7,360,278.7,362.7z"/>
					<rect x="284" y="371.4" fill="#8ED8F8" width="74.3" height="110.8"/>
					<path fill="#4B4B4D" d="M312,492.3L312,492.3c0,2.7,2.2,4.9,4.9,4.9h8.4c2.7,0,4.9-2.2,4.9-4.9l0,0c0-2.7-2.2-4.9-4.9-4.9H317
						C314.2,487.4,312,489.6,312,492.3z"/>
				</g>
				<g>
					<rect x="363.6" y="371.4" fill="#D1D3D4" width="2.8" height="16.7"/>
					<rect x="363.6" y="393.3" fill="#D1D3D4" width="2.8" height="16.7"/>
				</g>
				<g>
					<g>
						<path fill="#FEBB13" d="M381.5,425.2h-47c-3.8,0-7,3.1-7,7v27.5c0,3.8,3.1,7,7,7h5.5v12.5l12.5-12.5h29.1c3.8,0,7-3.1,7-7
							v-27.5C388.4,428.4,385.3,425.2,381.5,425.2z"/>
						<g>
							<g>
								<rect x="336.3" y="435.3" fill="#FFFFFF" width="43.4" height="2.8"/>
							</g>
							<g>
								<rect x="336.3" y="443.6" fill="#FFFFFF" width="43.4" height="2.8"/>
							</g>
							<g>
								<rect x="336.3" y="451.9" fill="#FFFFFF" width="21.7" height="2.8"/>
							</g>
						</g>
					</g>
					<g>
						<path fill="#EF4136" d="M260.9,381.4h47c3.8,0,7,3.1,7,7v27.5c0,3.8-3.1,7-7,7h-5.5v12.5L290,422.9h-29.1c-3.8,0-7-3.1-7-7
							v-27.5C253.9,384.6,257,381.4,260.9,381.4z"/>
						<g>
							<g>
								<rect x="262.7" y="391.5" fill="#FFFFFF" width="43.4" height="2.8"/>
							</g>
							<g>
								<rect x="262.7" y="399.8" fill="#FFFFFF" width="43.4" height="2.8"/>
							</g>
							<g>
								<rect x="284.4" y="408.1" fill="#FFFFFF" width="21.7" height="2.8"/>
							</g>
						</g>
					</g>
				</g>
			</g>
		</g>
	</g>
</g>
</svg>
