<?xml version="1.0" encoding="utf-8"?>
<!-- Generator: Adobe Illustrator 16.0.0, SVG Export Plug-In . SVG Version: 6.00 Build 0)  -->
<!DOCTYPE svg PUBLIC "-//W3C//DTD SVG 1.1//EN" "http://www.w3.org/Graphics/SVG/1.1/DTD/svg11.dtd">
<svg version="1.1" id="Layer_1" xmlns="http://www.w3.org/2000/svg" xmlns:xlink="http://www.w3.org/1999/xlink" x="0px" y="0px"
	 width="1400px" height="980px" viewBox="0 0 1400 980" enable-background="new 0 0 1400 980" xml:space="preserve">
<g>
	<g>
		<g>
			<rect fill="#FFFFFF" width="1400" height="980"/>
		</g>
	</g>
	<g>
		<g>
			<path fill="#FF8B77" d="M700,84.8c-157.8,0-285.7,127.9-285.7,285.7S542.2,656.2,700,656.2c157.8,0,285.7-127.9,285.7-285.7
				S857.8,84.8,700,84.8z M700,561c-105.2,0-190.5-85.3-190.5-190.5S594.8,180,700,180c105.2,0,190.5,85.3,190.5,190.5
				S805.2,561,700,561z"/>
			<path d="M700,658.6c-158.9,0-288.1-129.2-288.1-288.1c0-158.9,129.2-288.1,288.1-288.1c158.9,0,288.1,129.2,288.1,288.1
				C988.1,529.4,858.9,658.6,700,658.6z M700,87.2c-156.2,0-283.3,127.1-283.3,283.3c0,156.2,127.1,283.3,283.3,283.3
				c156.2,0,283.3-127.1,283.3-283.3C983.3,214.3,856.2,87.2,700,87.2z M700,563.4c-106.3,0-192.9-86.5-192.9-192.9
				c0-106.3,86.5-192.9,192.9-192.9c106.4,0,192.9,86.5,192.9,192.9C892.9,476.9,806.4,563.4,700,563.4z M700,182.5
				c-103.7,0-188,84.4-188,188c0,103.7,84.4,188.1,188,188.1c103.7,0,188-84.4,188-188.1C888,266.8,803.7,182.5,700,182.5z"/>
		</g>
		<g>
			<path fill="#FFFFFF" d="M700,180c-105.2,0-190.5,85.3-190.5,190.5S594.8,561,700,561c105.2,0,190.5-85.3,190.5-190.5
				S805.2,180,700,180z M700,475.3c-57.9,0-104.8-46.9-104.8-104.8c0-57.9,46.9-104.7,104.8-104.7c57.9,0,104.8,46.9,104.8,104.7
				C804.8,428.4,757.9,475.3,700,475.3z"/>
			<path d="M700,563.4c-106.4,0-192.9-86.5-192.9-192.9c0-106.4,86.5-192.9,192.9-192.9c106.4,0,192.9,86.5,192.9,192.9
				C892.9,476.9,806.4,563.4,700,563.4z M700,182.5c-103.7,0-188,84.4-188,188c0,103.7,84.4,188.1,188,188.1
				c103.7,0,188-84.4,188-188.1C888,266.8,803.7,182.5,700,182.5z M700,477.7c-59.1,0-107.2-48.1-107.2-107.2
				c0-59.1,48.1-107.2,107.2-107.2s107.2,48.1,107.2,107.2C807.2,429.6,759.1,477.7,700,477.7z M700,268.2
				c-56.4,0-102.3,45.9-102.3,102.3c0,56.4,45.9,102.3,102.3,102.3c56.4,0,102.3-45.9,102.3-102.3
				C802.3,314.1,756.4,268.2,700,268.2z"/>
		</g>
		<g>
			<path fill="#FF8B77" d="M700,265.8c-57.9,0-104.8,46.9-104.8,104.7c0,57.9,46.9,104.8,104.8,104.8c57.9,0,104.8-46.9,104.8-104.8
				C804.8,312.7,757.9,265.8,700,265.8z"/>
			<path d="M700,477.7c-59.1,0-107.2-48.1-107.2-107.2c0-59.1,48.1-107.2,107.2-107.2s107.2,48.1,107.2,107.2
				C807.2,429.6,759.1,477.7,700,477.7z M700,268.2c-56.4,0-102.3,45.9-102.3,102.3c0,56.4,45.9,102.3,102.3,102.3
				c56.4,0,102.3-45.9,102.3-102.3C802.3,314.1,756.4,268.2,700,268.2z"/>
		</g>
		<g>
			<g>
				<path fill="#FFFFFF" d="M805,540.2l-47.2-206.9H642.2L595,540.2c-19.2,10.8-17.4,33-17.4,33h244.9
					C822.4,573.2,824.2,551,805,540.2z"/>
				<path d="M822.4,575.6H577.6c-1.3,0-2.3-1-2.4-2.2c-0.1-1-1.6-23.2,17.7-34.8l47-205.8c0.3-1.1,1.2-1.9,2.4-1.9h115.7
					c1.1,0,2.1,0.8,2.4,1.9l46.9,205.8c19.3,11.6,17.8,33.8,17.7,34.8C824.7,574.6,823.7,575.6,822.4,575.6z M579.9,570.8h240.1
					c-0.1-5.6-1.9-20.4-16.2-28.5c-0.6-0.3-1-0.9-1.2-1.6l-46.8-205H644.1l-46.8,205c-0.2,0.7-0.6,1.2-1.2,1.6
					C581.9,550.3,580.1,565.2,579.9,570.8z"/>
			</g>
			<g>
				<path fill="#FFFFFF" d="M824.8,632.6c4.9,0,9.7,0.7,14.3,1.9v-61.3h-16.7H577.6h-16.7v61.3c4.6-1.2,9.3-1.9,14.3-1.9H824.8z"/>
				<path d="M560.9,636.9c-0.5,0-1.1-0.2-1.5-0.5c-0.6-0.5-0.9-1.2-0.9-1.9v-61.3c0-1.3,1.1-2.4,2.4-2.4h278.2
					c1.3,0,2.4,1.1,2.4,2.4v61.3c0,0.7-0.3,1.5-0.9,1.9c-0.6,0.5-1.4,0.6-2.1,0.4c-4.6-1.2-9.2-1.8-13.7-1.8H575.2
					c-4.4,0-9,0.6-13.7,1.8C561.3,636.9,561.1,636.9,560.9,636.9z M575.2,630.2h249.7c3.9,0,7.8,0.4,11.9,1.2v-55.8H563.3v55.8
					C567.3,630.6,571.3,630.2,575.2,630.2z"/>
			</g>
			<g>
				<path fill="#FFFFFF" d="M839.1,634.5c-4.6-1.2-9.3-1.9-14.3-1.9H575.2c-4.9,0-9.7,0.7-14.3,1.9c-24.9,6.4-43.4,28.9-43.4,55.8
					v7.2c0,1.6,0.1,3.2,0.2,4.8h364.4c0.1-1.6,0.3-3.2,0.3-4.8v-7.2C882.5,663.3,864,640.8,839.1,634.5z"/>
				<path d="M882.2,704.6H517.8c-1.3,0-2.3-1-2.4-2.2c-0.1-1.6-0.3-3.3-0.3-5v-7.2c0-27.4,18.6-51.3,45.2-58.1
					c5-1.3,10-1.9,14.9-1.9h249.7c4.8,0,9.8,0.7,14.9,1.9c26.6,6.8,45.2,30.7,45.2,58.1v7.2c0,1.7-0.1,3.3-0.3,5
					C884.5,703.7,883.5,704.6,882.2,704.6z M520,699.8H880c0-0.8,0.1-1.6,0.1-2.4v-7.2c0-25.2-17.1-47.2-41.5-53.4
					c-4.6-1.2-9.2-1.8-13.7-1.8H575.2c-4.4,0-9,0.6-13.7,1.8c-24.5,6.2-41.5,28.2-41.5,53.4v7.2C519.9,698.2,520,699,520,699.8z"/>
			</g>
			<g>
				<polygon fill="#FFFFFF" points="776.2,226.1 776.2,253.7 745.7,253.7 745.7,226.1 715.2,226.1 715.2,253.7 684.8,253.7 
					684.8,226.1 654.3,226.1 654.3,253.7 623.8,253.7 623.8,226.1 608,226.1 608,333.3 642.2,333.3 757.8,333.3 792,333.3 
					792,226.1 				"/>
				<path d="M792,335.7H608c-1.3,0-2.4-1.1-2.4-2.4V226.1c0-1.3,1.1-2.4,2.4-2.4h15.8c1.3,0,2.4,1.1,2.4,2.4v25.2h25.7v-25.2
					c0-1.3,1.1-2.4,2.4-2.4h30.5c1.3,0,2.4,1.1,2.4,2.4v25.2h25.6v-25.2c0-1.3,1.1-2.4,2.4-2.4h30.5c1.3,0,2.4,1.1,2.4,2.4v25.2
					h25.7v-25.2c0-1.3,1.1-2.4,2.4-2.4H792c1.3,0,2.4,1.1,2.4,2.4v107.2C794.4,334.6,793.4,335.7,792,335.7z M610.4,330.9h179.2
					V228.5h-11v25.2c0,1.3-1.1,2.4-2.4,2.4h-30.5c-1.3,0-2.4-1.1-2.4-2.4v-25.2h-25.7v25.2c0,1.3-1.1,2.4-2.4,2.4h-30.5
					c-1.3,0-2.4-1.1-2.4-2.4v-25.2h-25.7v25.2c0,1.3-1.1,2.4-2.4,2.4h-30.5c-1.3,0-2.4-1.1-2.4-2.4v-25.2h-11V330.9z"/>
			</g>
		</g>
	</g>
	<g>
		<g>
			<path fill="#231F20" d="M1146.2,321.9c-54.2,0-98.4-44.1-98.4-98.4c0-54.2,44.1-98.4,98.4-98.4c54.2,0,98.4,44.1,98.4,98.4
				C1244.6,277.7,1200.5,321.9,1146.2,321.9z M1146.2,130c-51.6,0-93.5,42-93.5,93.5c0,51.6,42,93.5,93.5,93.5
				c51.6,0,93.5-42,93.5-93.5C1239.8,171.9,1197.8,130,1146.2,130z"/>
		</g>
		<g>
			<path fill="#231F20" d="M1220.4,479.7H1072c-1.3,0-2.4-1.1-2.4-2.4V339.3c-39-25.8-62.3-69-62.3-115.8
				c0-76.6,62.3-138.9,138.9-138.9c76.6,0,138.9,62.3,138.9,138.9c0,46.8-23.3,90-62.3,115.8v137.9
				C1222.8,478.6,1221.8,479.7,1220.4,479.7z M1074.4,474.8H1218V338c0-0.8,0.4-1.6,1.1-2c38.3-24.9,61.2-66.9,61.2-112.5
				c0-73.9-60.1-134.1-134.1-134.1c-73.9,0-134.1,60.1-134.1,134.1c0,45.6,22.9,87.6,61.2,112.5c0.7,0.4,1.1,1.2,1.1,2V474.8z"/>
		</g>
		<g>
			<path fill="#231F20" d="M1234.1,424.2h-175.8c-1.3,0-2.4-1.1-2.4-2.4s1.1-2.4,2.4-2.4h175.8c1.3,0,2.4,1.1,2.4,2.4
				S1235.5,424.2,1234.1,424.2z"/>
		</g>
		<g>
			<path fill="#231F20" d="M1234.1,451.9h-175.8c-1.3,0-2.4-1.1-2.4-2.4c0-1.3,1.1-2.4,2.4-2.4h175.8c1.3,0,2.4,1.1,2.4,2.4
				C1236.6,450.9,1235.5,451.9,1234.1,451.9z"/>
		</g>
		<g>
			<path fill="#231F20" d="M1234.1,479.7h-175.8c-1.3,0-2.4-1.1-2.4-2.4s1.1-2.4,2.4-2.4h175.8c1.3,0,2.4,1.1,2.4,2.4
				S1235.5,479.7,1234.1,479.7z"/>
		</g>
		<g>
			<path fill="#231F20" d="M1146.6,424.2c-1.3,0-2.4-1.1-2.4-2.4V344c0-1.3,1.1-2.4,2.4-2.4c1.3,0,2.4,1.1,2.4,2.4v77.8
				C1149,423.1,1148,424.2,1146.6,424.2z"/>
		</g>
		<g>
			<path fill="#231F20" d="M1130.2,271.6L1130.2,271.6c-0.6,0-1.3-0.3-1.7-0.7l-43.7-43.7c-0.9-0.9-0.9-2.5,0-3.4
				c0.9-0.9,2.5-0.9,3.4,0l42,42l74-74c0.9-0.9,2.5-0.9,3.4,0c0.9,0.9,0.9,2.5,0,3.4l-75.7,75.7
				C1131.5,271.3,1130.9,271.6,1130.2,271.6z"/>
		</g>
		<g>
			<path fill="#231F20" d="M1166,502.6h-38.8c-1.3,0-2.4-1.1-2.4-2.4v-22.9c0-1.3,1.1-2.4,2.4-2.4h38.8c1.3,0,2.4,1.1,2.4,2.4v22.9
				C1168.4,501.5,1167.4,502.6,1166,502.6z M1129.6,497.7h34v-18.1h-34V497.7z"/>
		</g>
	</g>
	<g>
		<g>
			<path fill="#231F20" d="M1266.2,739.3c-1.3,0-2.4-1.1-2.4-2.4v-41.8c0-64.6-52.6-117.2-117.2-117.2
				c-64.6,0-117.2,52.6-117.2,117.2v41.8c0,1.3-1.1,2.4-2.4,2.4c-1.3,0-2.4-1.1-2.4-2.4v-41.8c0-67.3,54.7-122,122-122
				c67.3,0,122,54.7,122,122v41.8C1268.6,738.2,1267.5,739.3,1266.2,739.3z"/>
		</g>
		<g>
			<g>
				<path fill="#FFFFFF" d="M1064.3,645.6c-1.8,0-3.7-0.5-5.3-1.7c-4.1-2.9-5-8.6-2.1-12.7c20.7-28.9,54.2-46.2,89.7-46.2
					c35.2,0,68.6,17.1,89.3,45.6c2.9,4.1,2,9.7-2,12.7c-4.1,2.9-9.7,2-12.7-2c-17.3-23.9-45.2-38.1-74.6-38.1
					c-29.7,0-57.7,14.4-75,38.6C1069.9,644.3,1067.1,645.6,1064.3,645.6z"/>
				<path fill="#231F20" d="M1064.3,648c-2.4,0-4.7-0.7-6.7-2.1c-2.5-1.8-4.1-4.4-4.7-7.5c-0.5-3,0.2-6.1,2-8.6
					c21.1-29.6,55.4-47.2,91.7-47.2c36,0,70.1,17.4,91.3,46.6c1.8,2.5,2.5,5.5,2,8.5c-0.5,3-2.1,5.7-4.6,7.5c-5,3.6-12.5,2.4-16-2.6
					c-16.8-23.3-44-37.1-72.7-37.1c-28.9,0-56.2,14-73,37.6C1071.5,646.2,1068,648,1064.3,648z M1146.6,587.5
					c-34.7,0-67.5,16.9-87.7,45.2c-1,1.4-1.4,3.2-1.2,5c0.3,1.8,1.2,3.3,2.7,4.3c2.9,2.1,7.2,1.4,9.3-1.5
					c17.7-24.8,46.5-39.6,76.9-39.6c30.2,0,58.8,14.6,76.6,39.1c2.1,2.9,6.4,3.6,9.3,1.5c1.4-1,2.4-2.6,2.7-4.3
					c0.3-1.8-0.1-3.5-1.2-4.9C1213.7,604.2,1181.1,587.5,1146.6,587.5z"/>
			</g>
		</g>
		<g>
			<path fill="#FFFFFF" d="M1277.3,829.1c0,6.1-5,11.1-11.1,11.1l0,0c-6.1,0-11.1-5-11.1-11.1V748c0-6.2,5-11.1,11.1-11.1l0,0
				c6.2,0,11.1,5,11.1,11.1V829.1z"/>
			<path fill="#231F20" d="M1266.2,842.6c-7.5,0-13.5-6.1-13.5-13.5V748c0-7.5,6.1-13.6,13.5-13.6c7.5,0,13.6,6.1,13.6,13.6v81.1
				C1279.7,836.6,1273.6,842.6,1266.2,842.6z M1266.2,739.3c-4.8,0-8.7,3.9-8.7,8.7v81.1c0,4.8,3.9,8.7,8.7,8.7
				c4.8,0,8.7-3.9,8.7-8.7V748C1274.9,743.2,1271,739.3,1266.2,739.3z"/>
		</g>
		<g>
			<rect x="1277.3" y="756.6" fill="#FFFFFF" width="30.8" height="64"/>
			<path fill="#231F20" d="M1308.1,822.9h-30.8c-1.3,0-2.4-1.1-2.4-2.4v-64c0-1.3,1.1-2.4,2.4-2.4h30.8c1.3,0,2.4,1.1,2.4,2.4v64
				C1310.5,821.9,1309.4,822.9,1308.1,822.9z M1279.7,818.1h26V759h-26V818.1z"/>
		</g>
		<g>
			<path fill="#FFFFFF" d="M1015.9,829.1c0,6.1,5,11.1,11.1,11.1l0,0c6.1,0,11.1-5,11.1-11.1V748c0-6.2-5-11.1-11.1-11.1l0,0
				c-6.1,0-11.1,5-11.1,11.1V829.1z"/>
			<path fill="#231F20" d="M1027,842.6c-7.5,0-13.5-6.1-13.5-13.5V748c0-7.5,6.1-13.6,13.5-13.6c7.5,0,13.5,6.1,13.5,13.6v81.1
				C1040.6,836.6,1034.5,842.6,1027,842.6z M1027,739.3c-4.8,0-8.7,3.9-8.7,8.7v81.1c0,4.8,3.9,8.7,8.7,8.7s8.7-3.9,8.7-8.7V748
				C1035.8,743.2,1031.9,739.3,1027,739.3z"/>
		</g>
		<g>
			<rect x="985.1" y="756.6" fill="#FFFFFF" width="30.8" height="64"/>
			<path fill="#231F20" d="M1015.9,822.9h-30.8c-1.3,0-2.4-1.1-2.4-2.4v-64c0-1.3,1.1-2.4,2.4-2.4h30.8c1.3,0,2.4,1.1,2.4,2.4v64
				C1018.3,821.9,1017.3,822.9,1015.9,822.9z M987.5,818.1h26V759h-26V818.1z"/>
		</g>
		<g>
			<path fill="#FFFFFF" d="M1046.6,694.2c0,10.8-8.8,19.6-19.6,19.6c-10.8,0-19.6-8.8-19.6-19.6c0-10.8,8.8-19.6,19.6-19.6
				C1037.8,674.6,1046.6,683.4,1046.6,694.2z"/>
			<path fill="#231F20" d="M1027,716.2c-12.1,0-22-9.9-22-22c0-12.1,9.9-22,22-22c12.1,0,22,9.9,22,22
				C1049,706.3,1039.1,716.2,1027,716.2z M1027,677c-9.5,0-17.1,7.7-17.1,17.1c0,9.5,7.7,17.2,17.1,17.2c9.5,0,17.2-7.7,17.2-17.2
				C1044.2,684.7,1036.5,677,1027,677z"/>
		</g>
		<g>
			<path fill="#FFFFFF" d="M1285.4,694.2c0,10.8-8.8,19.6-19.6,19.6c-10.8,0-19.6-8.8-19.6-19.6c0-10.8,8.8-19.6,19.6-19.6
				C1276.6,674.6,1285.4,683.4,1285.4,694.2z"/>
			<path fill="#231F20" d="M1265.8,716.2c-12.1,0-22-9.9-22-22c0-12.1,9.9-22,22-22c12.1,0,22,9.9,22,22
				C1287.8,706.3,1277.9,716.2,1265.8,716.2z M1265.8,677c-9.5,0-17.2,7.7-17.2,17.1c0,9.5,7.7,17.2,17.2,17.2
				c9.5,0,17.1-7.7,17.1-17.2C1282.9,684.7,1275.3,677,1265.8,677z"/>
		</g>
	</g>
	<g>
		<g>
			<path d="M1198.5,736.6h-104.6c-1.3,0-2.4-1.1-2.4-2.4s1.1-2.4,2.4-2.4h104.6c1.3,0,2.4,1.1,2.4,2.4S1199.9,736.6,1198.5,736.6z"
				/>
		</g>
		<g>
			<path d="M1198.5,780.2h-104.6c-1.3,0-2.4-1.1-2.4-2.4c0-1.3,1.1-2.4,2.4-2.4h104.6c1.3,0,2.4,1.1,2.4,2.4
				C1200.9,779.2,1199.9,780.2,1198.5,780.2z"/>
		</g>
		<g>
			<path d="M1124.4,810.7c-1.3,0-2.4-1.1-2.4-2.4V703.7c0-1.3,1.1-2.4,2.4-2.4c1.3,0,2.4,1.1,2.4,2.4v104.6
				C1126.8,809.7,1125.7,810.7,1124.4,810.7z"/>
		</g>
		<g>
			<path d="M1168,810.7c-1.3,0-2.4-1.1-2.4-2.4V703.7c0-1.3,1.1-2.4,2.4-2.4s2.4,1.1,2.4,2.4v104.6
				C1170.4,809.7,1169.4,810.7,1168,810.7z"/>
		</g>
	</g>
	<g>
		<g>
			<path fill="#FFFFFF" d="M348,346.8h28.6h51.6c34.6,0,62.7-28.1,62.7-62.7c0-34.6-28-62.7-62.7-62.7h-28c0-34.6-28-62.7-62.7-62.7
				c-7,0-13.7,1.2-20,3.3c-18-23.9-46.6-39.4-78.8-39.4c-54.6,0-98.8,44.2-98.8,98.8c0,12.5,2.4,24.4,6.6,35.4h-4.4
				c-24.8,0-45,20.1-45,45c0,24.8,20.1,45,45,45h40.2"/>
			<path d="M428.2,349.2H348c-1.3,0-2.4-1.1-2.4-2.4s1.1-2.4,2.4-2.4h80.2c33.2,0,60.2-27,60.2-60.2c0-33.2-27-60.2-60.2-60.2h-28
				c-1.3,0-2.4-1.1-2.4-2.4c0-33.2-27-60.2-60.2-60.2c-6.4,0-12.9,1.1-19.2,3.2c-1,0.3-2.1,0-2.7-0.8
				c-18.4-24.4-46.5-38.5-76.9-38.5c-53.1,0-96.4,43.2-96.4,96.4c0,11.7,2.2,23.3,6.5,34.5c0.3,0.7,0.2,1.6-0.3,2.2
				c-0.5,0.7-1.2,1-2,1h-4.4c-23.5,0-42.6,19.1-42.6,42.5c0,23.5,19.1,42.6,42.6,42.6h40.2c1.3,0,2.4,1.1,2.4,2.4s-1.1,2.4-2.4,2.4
				h-40.2c-26.1,0-47.4-21.3-47.4-47.4c0-26.1,21.3-47.4,47.4-47.4h1c-3.7-10.7-5.6-21.8-5.6-33c0-55.8,45.4-101.2,101.2-101.2
				c31.4,0,60.3,14.2,79.7,39c6.3-1.9,12.7-2.9,19.1-2.9c35.1,0,63.7,27.9,65,62.7h25.6c35.9,0,65.1,29.2,65.1,65.1
				C493.2,320,464.1,349.2,428.2,349.2z"/>
		</g>
		<g>
			<rect x="256.7" y="228.7" fill="#FFFFFF" width="75.6" height="237.9"/>
			<path d="M332.3,469.1h-75.6c-1.3,0-2.4-1.1-2.4-2.4V228.7c0-1.3,1.1-2.4,2.4-2.4h75.6c1.3,0,2.4,1.1,2.4,2.4v237.9
				C334.7,468,333.7,469.1,332.3,469.1z M259.2,464.3h70.8V231.1h-70.8V464.3z"/>
		</g>
		<g>
			<line fill="#FFFFFF" x1="256.7" y1="263.1" x2="346.8" y2="263.1"/>
			<path d="M346.8,265.5h-90.1c-1.3,0-2.4-1.1-2.4-2.4c0-1.3,1.1-2.4,2.4-2.4h90.1c1.3,0,2.4,1.1,2.4,2.4
				C349.2,264.4,348.2,265.5,346.8,265.5z"/>
		</g>
		<g>
			<line fill="#FFFFFF" x1="256.7" y1="296.3" x2="346.8" y2="296.3"/>
			<path d="M346.8,298.7h-90.1c-1.3,0-2.4-1.1-2.4-2.4c0-1.3,1.1-2.4,2.4-2.4h90.1c1.3,0,2.4,1.1,2.4,2.4
				C349.2,297.6,348.2,298.7,346.8,298.7z"/>
		</g>
		<g>
			<line fill="#FFFFFF" x1="256.7" y1="329.4" x2="346.8" y2="329.4"/>
			<path d="M346.8,331.9h-90.1c-1.3,0-2.4-1.1-2.4-2.4s1.1-2.4,2.4-2.4h90.1c1.3,0,2.4,1.1,2.4,2.4S348.2,331.9,346.8,331.9z"/>
		</g>
		<g>
			<line fill="#FFFFFF" x1="256.7" y1="362.6" x2="346.8" y2="362.6"/>
			<path d="M346.8,365h-90.1c-1.3,0-2.4-1.1-2.4-2.4c0-1.3,1.1-2.4,2.4-2.4h90.1c1.3,0,2.4,1.1,2.4,2.4
				C349.2,364,348.2,365,346.8,365z"/>
		</g>
		<g>
			<line fill="#FFFFFF" x1="256.7" y1="395.8" x2="346.8" y2="395.8"/>
			<path d="M346.8,398.2h-90.1c-1.3,0-2.4-1.1-2.4-2.4c0-1.3,1.1-2.4,2.4-2.4h90.1c1.3,0,2.4,1.1,2.4,2.4
				C349.2,397.1,348.2,398.2,346.8,398.2z"/>
		</g>
		<g>
			<line fill="#FFFFFF" x1="256.7" y1="429" x2="346.8" y2="429"/>
			<path d="M346.8,431.4h-90.1c-1.3,0-2.4-1.1-2.4-2.4c0-1.3,1.1-2.4,2.4-2.4h90.1c1.3,0,2.4,1.1,2.4,2.4
				C349.2,430.3,348.2,431.4,346.8,431.4z"/>
		</g>
		<g>
			<polyline fill="#FFFFFF" points="194,271.1 211.6,248.2 229.2,271.1 			"/>
			<path d="M229.2,273.5c-0.7,0-1.4-0.3-1.9-0.9l-15.7-20.4l-15.7,20.4c-0.8,1.1-2.3,1.3-3.4,0.4c-1.1-0.8-1.3-2.3-0.4-3.4
				l17.6-22.9c0.9-1.2,2.9-1.2,3.8,0l17.6,22.9c0.8,1.1,0.6,2.6-0.4,3.4C230.2,273.4,229.7,273.5,229.2,273.5z"/>
		</g>
		<g>
			<polyline fill="#FFFFFF" points="194,304.3 211.6,281.4 229.2,304.3 			"/>
			<path d="M229.2,306.7c-0.7,0-1.4-0.3-1.9-0.9l-15.7-20.4l-15.7,20.4c-0.8,1.1-2.3,1.3-3.4,0.4c-1.1-0.8-1.3-2.3-0.4-3.4
				l17.6-22.9c0.9-1.2,2.9-1.2,3.8,0l17.6,22.9c0.8,1.1,0.6,2.6-0.4,3.4C230.2,306.5,229.7,306.7,229.2,306.7z"/>
		</g>
		<g>
			<polyline fill="#FFFFFF" points="194,337.5 211.6,314.5 229.2,337.5 			"/>
			<path d="M229.2,339.9c-0.7,0-1.4-0.3-1.9-0.9l-15.7-20.4l-15.7,20.4c-0.8,1.1-2.3,1.3-3.4,0.4c-1.1-0.8-1.3-2.3-0.4-3.4
				l17.6-22.9c0.9-1.2,2.9-1.2,3.8,0l17.6,22.9c0.8,1.1,0.6,2.6-0.4,3.4C230.2,339.7,229.7,339.9,229.2,339.9z"/>
		</g>
		<g>
			<polyline fill="#FFFFFF" points="194,383.9 211.6,361 229.2,383.9 			"/>
			<path d="M229.2,386.3c-0.7,0-1.4-0.3-1.9-0.9L211.6,365l-15.7,20.4c-0.8,1.1-2.3,1.3-3.4,0.4c-1.1-0.8-1.3-2.3-0.4-3.4l17.6-22.9
				c0.9-1.2,2.9-1.2,3.8,0l17.6,22.9c0.8,1.1,0.6,2.6-0.4,3.4C230.2,386.2,229.7,386.3,229.2,386.3z"/>
		</g>
		<g>
			<polyline fill="#FFFFFF" points="194,417.1 211.6,394.2 229.2,417.1 			"/>
			<path d="M229.2,419.5c-0.7,0-1.4-0.3-1.9-0.9l-15.7-20.4l-15.7,20.4c-0.8,1.1-2.3,1.3-3.4,0.4c-1.1-0.8-1.3-2.3-0.4-3.4
				l17.6-22.9c0.9-1.2,2.9-1.2,3.8,0l17.6,22.9c0.8,1.1,0.6,2.6-0.4,3.4C230.2,419.3,229.7,419.5,229.2,419.5z"/>
		</g>
		<g>
			<polyline fill="#FFFFFF" points="194,450.2 211.6,427.3 229.2,450.2 			"/>
			<path d="M229.2,452.6c-0.7,0-1.4-0.3-1.9-0.9l-15.7-20.4l-15.7,20.4c-0.8,1.1-2.3,1.3-3.4,0.4c-1.1-0.8-1.3-2.3-0.4-3.4
				l17.6-22.9c0.9-1.2,2.9-1.2,3.8,0l17.6,22.9c0.8,1.1,0.6,2.6-0.4,3.4C230.2,452.5,229.7,452.6,229.2,452.6z"/>
		</g>
		<g>
			<line fill="#FFFFFF" x1="256.7" y1="210.1" x2="256.7" y2="485.3"/>
			<path d="M256.7,487.7c-1.3,0-2.4-1.1-2.4-2.4V210.1c0-1.3,1.1-2.4,2.4-2.4s2.4,1.1,2.4,2.4v275.1
				C259.2,486.6,258.1,487.7,256.7,487.7z"/>
		</g>
		<g>
			<line fill="#FFFFFF" x1="332.3" y1="210.1" x2="332.3" y2="485.3"/>
			<path d="M332.3,487.7c-1.3,0-2.4-1.1-2.4-2.4V210.1c0-1.3,1.1-2.4,2.4-2.4c1.3,0,2.4,1.1,2.4,2.4v275.1
				C334.7,486.6,333.7,487.7,332.3,487.7z"/>
		</g>
	</g>
	<g>
		<path d="M881.1,680.3H700c-1.3,0-2.4-1.1-2.4-2.4c0-1.3,1.1-2.4,2.4-2.4h181.1c1.3,0,2.4,1.1,2.4,2.4
			C883.5,679.2,882.4,680.3,881.1,680.3z"/>
	</g>
	<g>
		<path d="M805,542.6h-60.7c-1.3,0-2.4-1.1-2.4-2.4s1.1-2.4,2.4-2.4H805c1.3,0,2.4,1.1,2.4,2.4S806.4,542.6,805,542.6z"/>
	</g>
	<g>
		<path d="M754,445.4c-1.1,0-2.1-0.8-2.4-1.9l-22.5-109.7c-0.3-1.3,0.6-2.6,1.9-2.9c1.3-0.3,2.6,0.6,2.8,1.9l22.5,109.7
			c0.3,1.3-0.6,2.6-1.9,2.9C754.3,445.4,754.2,445.4,754,445.4z"/>
	</g>
	<g>
		<g>
			<path fill="#FFFFFF" d="M132.1,681.1c-1.4,0-2.6,1.2-2.6,2.6v155c0,1.4,1.2,2.6,2.6,2.6h40.7V681.1H132.1z"/>
			<path d="M172.8,843.7h-40.7c-2.8,0-5-2.2-5-5v-155c0-2.7,2.2-5,5-5h40.7c1.3,0,2.4,1.1,2.4,2.4v160.2
				C175.2,842.6,174.1,843.7,172.8,843.7z M132.1,683.5l-0.2,155.2l38.5,0.2V683.5H132.1z"/>
		</g>
		<g>
			<path d="M385.9,858.2h-163c-1.3,0-2.4-1.1-2.4-2.4s1.1-2.4,2.4-2.4v0l81.5,0l81.6,0v0.1c1.2,0.2,2.2,1.2,2.2,2.4
				C388.1,857.1,387.3,858.2,385.9,858.2L385.9,858.2z"/>
		</g>
		<g>
			<path d="M421.5,682.2c-0.7,0-1.4-0.3-1.9-0.9c-5-6.4-12.2-10.6-20.2-11.8c-1.2-0.2-2.1-1.3-2-2.6s1.1-2.2,2.4-2.2h1
				c9.6,0,18.4,5.4,22.9,14c0.6,1.1,0.2,2.5-0.8,3.2C422.4,682,421.9,682.2,421.5,682.2z"/>
		</g>
		<g>
			<path fill="#FFFFFF" d="M422.1,737.8c0-13-10.6-23.6-23.6-23.6h2.2c13,0,23.6-10.6,23.6-23.6c0-4-1.1-7.6-2.8-10.9
				c-5.3-6.7-13-11.3-21.8-12.7c-1.7-0.3-3.4-0.4-5.1-0.4h-87.3V562.5c0-19.3-14.6-29.9-41-29.9c-10.1,0-8.3,1.5-8.4,1.6
				c-1.2,0.2-2.1,1.3-2.1,2.5l-9.7,88.6l-73.4,55.8v160.2l50.1,14.5h163.1c13,0,23.5-10.6,23.5-23.6c0-13-10.6-23.6-23.6-23.6h7.1
				c13,0,23.6-10.6,23.6-23.6c0-13-10.6-23.6-23.6-23.6h5.5C411.5,761.4,422.1,750.9,422.1,737.8z"/>
			<path d="M385.9,858.2C385.9,858.2,385.9,858.2,385.9,858.2H222.8c-0.2,0-0.5,0-0.7-0.1l-50.1-14.5c-1-0.3-1.7-1.2-1.7-2.3V681.1
				c0-0.8,0.4-1.5,1-1.9l72.6-55.2l9.5-87.6c0-1.6,1-3.2,2.4-4c0.9-1.4,2.9-2.2,10.4-2.2c28,0,43.4,11.5,43.4,32.3v101.7h84.8
				c1.7,0,3.5,0.1,5.5,0.5c9.2,1.4,17.5,6.2,23.3,13.6c2.3,4.2,3.3,8.3,3.3,12.4c0,10.9-6.7,20.2-16.2,24.1c8.3,4.3,14,13.1,14,23.1
				c0,11.6-7.7,21.5-18.3,24.8c7.6,4.5,12.7,12.9,12.7,22.3c0,12-8.2,22.2-19.3,25.1c7.3,4.6,12.2,12.8,12.2,22
				C411.9,846.5,400.2,858.1,385.9,858.2z M223.2,853.3h162.7c11.7,0,21.1-9.5,21.1-21.2c0-11.7-9.5-21.2-21.2-21.2
				c-1.3,0-2.4-1.1-2.4-2.4s1.1-2.4,2.4-2.4h7.1c11.7,0,21.2-9.5,21.2-21.2c0-11.7-9.5-21.2-21.2-21.2c-1.3,0-2.4-1.1-2.4-2.4
				s1.1-2.4,2.4-2.4h5.5c11.7,0,21.2-9.5,21.2-21.2c0-11.7-9.5-21.2-21.2-21.2c-1.3,0-2.4-1.1-2.4-2.4c0-1.3,1.1-2.4,2.4-2.4h2.2
				c11.7,0,21.2-9.5,21.2-21.2c0-3.3-0.8-6.6-2.5-9.8c-4.8-6-12-10.2-20-11.4c-1.8-0.3-3.3-0.4-4.8-0.4h-87.3
				c-1.3,0-2.4-1.1-2.4-2.4V562.5c0-22.7-21-27.5-38.6-27.5c-3.7,0-5.5,0.2-6.3,0.4c-0.3,0.6-0.9,1-1.6,1.1l-9.8,89.1
				c-0.1,0.7-0.4,1.3-0.9,1.7l-72.5,55.1v157.1L223.2,853.3z"/>
		</g>
		<g>
			<path d="M398.5,716.7h-42.4c-1.3,0-2.4-1.1-2.4-2.4c0-1.3,1.1-2.4,2.4-2.4h42.4c1.3,0,2.4,1.1,2.4,2.4
				C400.9,715.6,399.8,716.7,398.5,716.7z"/>
		</g>
		<g>
			<path d="M393,763.8h-42.4c-1.3,0-2.4-1.1-2.4-2.4c0-1.3,1.1-2.4,2.4-2.4H393c1.3,0,2.4,1.1,2.4,2.4
				C395.4,762.8,394.3,763.8,393,763.8z"/>
		</g>
		<g>
			<path d="M385.6,810.9h-42.4c-1.3,0-2.4-1.1-2.4-2.4s1.1-2.4,2.4-2.4h42.4c1.3,0,2.4,1.1,2.4,2.4S386.9,810.9,385.6,810.9z"/>
		</g>
	</g>
	<g>
		<g>
			<g>
				<path d="M700.9,913c-69.5,0-134.3-32.3-169.2-84.4c-0.5-0.8-0.5-1.9,0-2.7c34.9-52.1,99.8-84.4,169.2-84.4
					c69.5,0,134.3,32.3,169.2,84.4c0.5,0.8,0.5,1.9,0,2.7C835.2,880.7,770.4,913,700.9,913z M536.6,827.3
					c34.2,50,97,80.9,164.3,80.9c67.3,0,130.1-31,164.3-80.9c-34.2-50-97-80.9-164.3-80.9C633.6,746.3,570.9,777.3,536.6,827.3z"/>
			</g>
			<g>
				<g>
					<path d="M700.9,896.8c-1.3,0-2.4-1.1-2.4-2.4l0-67.1c0-0.6,0.3-1.3,0.7-1.7c0.5-0.5,1.1-0.7,1.7-0.7H768c1.3,0,2.4,1.1,2.4,2.4
						C770.4,865.6,739.2,896.8,700.9,896.8z M703.3,829.7v62.2c33.7-1.2,61-28.5,62.2-62.2H703.3z"/>
				</g>
				<g>
					<path d="M700.9,896.8c-38.3,0-69.5-31.2-69.5-69.5s31.2-69.5,69.5-69.5c38.3,0,69.5,31.2,69.5,69.5c0,1.3-1.1,2.4-2.4,2.4
						h-64.7v64.7C703.3,895.7,702.3,896.8,700.9,896.8z M700.9,762.6c-35.7,0-64.7,29-64.7,64.7c0,34.8,27.7,63.3,62.3,64.6v-64.6
						c0-1.3,1.1-2.4,2.4-2.4h64.6C764.3,790.3,735.8,762.6,700.9,762.6z"/>
				</g>
			</g>
			<g>
				<path d="M669.8,860.8c-9.6,0-17.4-7.8-17.4-17.4s7.8-17.4,17.4-17.4s17.4,7.8,17.4,17.4S679.4,860.8,669.8,860.8z M669.8,830.8
					c-6.9,0-12.6,5.6-12.6,12.6c0,6.9,5.6,12.6,12.6,12.6s12.6-5.6,12.6-12.6C682.4,836.4,676.8,830.8,669.8,830.8z"/>
			</g>
		</g>
		<g>
			<path d="M904.1,829.7h-36c-1.3,0-2.4-1.1-2.4-2.4s1.1-2.4,2.4-2.4h36c1.3,0,2.4,1.1,2.4,2.4S905.4,829.7,904.1,829.7z"/>
		</g>
		<g>
			<path d="M533.7,829.7h-36c-1.3,0-2.4-1.1-2.4-2.4s1.1-2.4,2.4-2.4h36c1.3,0,2.4,1.1,2.4,2.4S535,829.7,533.7,829.7z"/>
		</g>
	</g>
</g>
</svg>
