<?xml version="1.0" encoding="utf-8"?>
<!-- Generator: Adobe Illustrator 16.0.0, SVG Export Plug-In . SVG Version: 6.00 Build 0)  -->
<!DOCTYPE svg PUBLIC "-//W3C//DTD SVG 1.1//EN" "http://www.w3.org/Graphics/SVG/1.1/DTD/svg11.dtd">
<svg version="1.1" id="Layer_1" xmlns="http://www.w3.org/2000/svg" xmlns:xlink="http://www.w3.org/1999/xlink" x="0px" y="0px"
	 width="1400px" height="980px" viewBox="0 0 1400 980" enable-background="new 0 0 1400 980" xml:space="preserve">
<g>
	<g>
		<rect fill="#FFFFFF" width="1399.988" height="980"/>
	</g>
</g>
<g>
	<path fill="#FF6666" d="M981.605,510.192c0,150.491-121.989,272.484-272.48,272.484c-150.483,0-272.481-121.993-272.481-272.484
		c0-150.485,121.998-272.479,272.481-272.479C859.616,237.714,981.605,359.707,981.605,510.192z"/>
	<path fill="#231F20" d="M704.148,774.549c-151.375,0-274.526-123.151-274.526-274.525c0-151.375,123.151-274.526,274.526-274.526
		c151.374,0,274.525,123.151,274.525,274.526C978.674,651.397,855.522,774.549,704.148,774.549z M704.148,229.587
		c-149.118,0-270.436,121.316-270.436,270.436c0,149.117,121.318,270.436,270.436,270.436
		c149.117,0,270.436-121.318,270.436-270.436C974.584,350.904,853.266,229.587,704.148,229.587z"/>
</g>
<g>
	<path fill="#FFFFFF" d="M921.881,510.192c0,117.508-95.252,212.761-212.756,212.761c-117.5,0-212.756-95.253-212.756-212.761
		c0-117.498,95.256-212.754,212.756-212.754C826.629,297.438,921.881,392.694,921.881,510.192z"/>
	<path fill="#231F20" d="M704.148,714.828c-118.443,0-214.801-96.362-214.801-214.805s96.358-214.801,214.801-214.801
		c118.442,0,214.801,96.359,214.801,214.801S822.591,714.828,704.148,714.828z M704.148,289.312
		c-116.186,0-210.711,94.525-210.711,210.711c0,116.189,94.525,210.715,210.711,210.715c116.186,0,210.711-94.525,210.711-210.715
		C914.859,383.837,820.334,289.312,704.148,289.312z"/>
</g>
<g>
	<path fill="#FF6666" d="M867.341,510.192c0,87.384-70.832,158.22-158.216,158.22c-87.376,0-158.208-70.836-158.208-158.22
		c0-87.376,70.832-158.214,158.208-158.214C796.509,351.978,867.341,422.816,867.341,510.192z"/>
	<path fill="#231F20" d="M704.148,660.284c-88.363,0-160.253-71.895-160.253-160.261c0-88.367,71.891-160.261,160.253-160.261
		c88.366,0,160.261,71.895,160.261,160.261C864.409,588.39,792.515,660.284,704.148,660.284z M704.148,343.852
		c-86.11,0-156.164,70.058-156.164,156.171c0,86.113,70.054,156.171,156.164,156.171c86.113,0,156.171-70.058,156.171-156.171
		C860.319,413.91,790.262,343.852,704.148,343.852z"/>
</g>
<g>
	<path fill="#FFFFFF" d="M814.606,510.192c0,58.255-47.227,105.478-105.481,105.478c-58.251,0-105.474-47.223-105.474-105.478
		c0-58.25,47.223-105.469,105.474-105.469C767.38,404.723,814.606,451.942,814.606,510.192z"/>
	<path fill="#231F20" d="M704.148,607.546c-59.285,0-107.519-48.233-107.519-107.522c0-59.285,48.233-107.519,107.519-107.519
		c59.289,0,107.526,48.233,107.526,107.519C811.675,559.313,763.438,607.546,704.148,607.546z M704.148,396.595
		c-57.033,0-103.429,46.4-103.429,103.429c0,57.032,46.396,103.433,103.429,103.433c57.036,0,103.437-46.4,103.437-103.433
		C807.585,442.995,761.185,396.595,704.148,396.595z"/>
</g>
<g>
	<path fill="#FF6666" d="M764.068,510.192c0,30.344-24.604,54.939-54.943,54.939c-30.335,0-54.936-24.596-54.936-54.939
		c0-30.335,24.6-54.932,54.936-54.932C739.465,455.261,764.068,479.857,764.068,510.192z"/>
	<path fill="#231F20" d="M704.148,557.004c-31.418,0-56.981-25.563-56.981-56.98s25.563-56.98,56.981-56.98
		c31.422,0,56.988,25.563,56.988,56.98S735.57,557.004,704.148,557.004z M704.148,447.133c-29.166,0-52.891,23.725-52.891,52.891
		c0,29.165,23.725,52.891,52.891,52.891c29.169,0,52.898-23.726,52.898-52.891C757.047,470.858,733.317,447.133,704.148,447.133z"/>
</g>
<g>
	<polygon fill="#00B3E6" points="1042.421,86.507 975.61,153.323 991.927,225.573 1064.177,241.89 1130.995,175.078 
		1058.736,158.759 	"/>
	<path fill="#231F20" d="M1059.2,233.764c-0.152,0-0.3-0.016-0.452-0.05l-72.25-16.316c-0.767-0.174-1.369-0.775-1.541-1.544
		l-16.316-72.25c-0.156-0.685,0.052-1.402,0.547-1.897l66.811-66.816c0.527-0.529,1.298-0.729,2.013-0.519
		c0.72,0.208,1.263,0.787,1.426,1.514l16.033,70.994l71,16.032c0.727,0.164,1.306,0.711,1.514,1.426
		c0.207,0.717,0.008,1.488-0.52,2.015l-66.818,66.813C1060.259,233.552,1059.735,233.764,1059.2,233.764z M988.659,213.693
		l69.894,15.783l63.396-63.391l-68.64-15.501c-0.767-0.174-1.37-0.775-1.542-1.544l-15.501-68.633l-63.387,63.395L988.659,213.693z"
		/>
</g>
<g>
	<path fill="#231F20" d="M704.148,500.247c-0.523,0-1.047-0.2-1.446-0.6c-0.799-0.799-0.799-2.093,0-2.892l366.703-366.707
		c0.799-0.799,2.093-0.799,2.892,0s0.799,2.093,0,2.892L705.594,499.647C705.194,500.047,704.672,500.247,704.148,500.247z"/>
</g>
<g>
	<g>
		<g>
			<path fill="#231F20" d="M1045.472,439.368c-9.518,0-17.259-7.741-17.259-17.255c0-9.514,7.741-17.254,17.259-17.254
				c9.511,0,17.251,7.741,17.251,17.254C1062.723,431.627,1054.982,439.368,1045.472,439.368z M1045.472,408.094
				c-7.729,0-14.019,6.287-14.019,14.019c0,7.733,6.29,14.02,14.019,14.02c7.729,0,14.016-6.287,14.016-14.02
				C1059.487,414.381,1053.201,408.094,1045.472,408.094z"/>
		</g>
	</g>
	<g>
		<g>
			<path fill="#231F20" d="M1023.972,345.546c-0.895,0-1.622-0.727-1.622-1.62c0-0.895,0.728-1.622,1.622-1.622h42.997
				c0.895,0,1.625,0.727,1.625,1.622c0,0.893-0.73,1.62-1.625,1.62H1023.972z"/>
		</g>
	</g>
	<g>
		<g>
			<path fill="#231F20" d="M1018.076,464.459c-7.589,0-13.76-6.171-13.76-13.756V342.412c0-7.585,6.171-13.756,13.76-13.756h54.788
				c3.603,0,7.014,1.402,9.613,3.944l0.903,0.885v-6.427l0.312-0.253c0.742-1.033,17.985-25.273,18.808-41.27l-0.004-18.164
				c-0.027-0.485-0.559-11.231,6.407-18.595c4.018-4.256,9.678-6.426,16.815-6.45c0.235-0.014,0.679-0.044,1.317-0.044
				c2.796,0,8.221,0.513,13.138,3.94c6.258,4.36,9.434,11.769,9.434,22.024v53.547l64.405,0.264h14.782
				c10.434,0,18.925,8.492,18.925,18.928c0,7.105-3.938,13.554-10.277,16.827l-0.914,0.474l0.914,0.473
				c6.339,3.269,10.277,9.718,10.277,16.828c0,7.111-3.938,13.564-10.277,16.835l-0.914,0.474l0.914,0.473
				c6.339,3.271,10.277,9.724,10.277,16.833c0,7.105-3.938,13.556-10.277,16.827l-0.914,0.475l0.914,0.472
				c6.339,3.267,10.277,9.718,10.277,16.831c0,10.429-8.491,18.917-18.925,18.917h-145.414v-4.09l-0.903,0.883
				c-2.596,2.544-6.011,3.942-9.613,3.942H1018.076z M1018.076,331.897c-5.8,0-10.521,4.717-10.521,10.515v108.292
				c0,5.799,4.721,10.517,10.521,10.517h54.788c5.799,0,10.517-4.717,10.517-10.517V342.412c0-5.797-4.718-10.515-10.517-10.515
				H1018.076z M1127.036,245.522c-0.627,0-1.01,0.032-1.058,0.036c-6.403,0.008-11.292,1.83-14.703,5.424
				c-5.971,6.291-5.552,16.22-5.544,16.316l0.004,18.319c-0.818,15.944-15.984,38.218-19.016,42.521l-0.096,14.273v118.077h142.171
				c8.647,0,15.686-7.038,15.686-15.681c0-8.476-6.75-15.397-15.154-15.681v-3.251c8.404-0.28,15.154-7.206,15.154-15.673
				c0-8.474-6.75-15.399-15.154-15.681v-3.251c8.404-0.281,15.154-7.209,15.154-15.683c0-8.47-6.75-15.394-15.154-15.675v-3.255
				c8.404-0.281,15.154-7.203,15.154-15.671c0-8.651-7.038-15.689-15.686-15.689h-14.786l-67.641-0.276v-56.774
				C1146.368,247.737,1132.848,245.522,1127.036,245.522z"/>
		</g>
	</g>
	<g>
		<g>
			<path fill="#231F20" d="M1100.639,338.059c-0.339,0-0.658-0.104-0.93-0.299c-0.359-0.254-0.592-0.627-0.663-1.057
				c-0.072-0.423,0.027-0.851,0.275-1.2c7.413-10.399,13.009-21.213,16.64-32.143c0.228-0.661,0.847-1.106,1.541-1.106
				c0.172,0,0.348,0.028,0.516,0.082c0.843,0.282,1.298,1.2,1.019,2.047c-3.73,11.228-9.478,22.33-17.079,32.994
				C1101.653,337.805,1101.162,338.059,1100.639,338.059z"/>
		</g>
	</g>
	<g>
		<g>
			<path fill="#231F20" d="M1121.756,285.664c-0.895-0.1-1.537-0.903-1.445-1.79c1.002-8.971,0.128-14.692,0.023-15.313
				c-0.084-0.449,0.008-0.879,0.252-1.232c0.248-0.355,0.619-0.595,1.047-0.673c0.027,0,0.056-0.002,0.079-0.002
				c1.026,0,1.658,0.551,1.802,1.3c0.012,0.06,1.139,6.211,0.023,16.278c-0.092,0.821-0.786,1.442-1.609,1.442L1121.756,285.664z"/>
		</g>
	</g>
</g>
<g>
	<g>
		<path fill="#231F20" d="M438.102,873.731H87.424V634.698c0-0.592-0.475-1.07-1.066-1.07s-1.07,0.479-1.07,1.07v11.167H75.078
			c-0.591,0-1.071,0.479-1.071,1.066c0,0.592,0.479,1.066,1.071,1.066h10.209v14.14H75.078c-0.591,0-1.071,0.479-1.071,1.07
			s0.479,1.066,1.071,1.066h10.209v14.144H75.078c-0.591,0-1.071,0.479-1.071,1.066s0.479,1.066,1.071,1.066h10.209v14.144H75.078
			c-0.591,0-1.071,0.475-1.071,1.066c0,0.591,0.479,1.07,1.071,1.07h10.209v14.135H75.078c-0.591,0-1.071,0.479-1.071,1.066
			c0,0.592,0.479,1.071,1.071,1.071h10.209v14.143H75.078c-0.591,0-1.071,0.476-1.071,1.066c0,0.592,0.479,1.07,1.071,1.07h10.209
			v14.14H75.078c-0.591,0-1.071,0.476-1.071,1.07c0,0.587,0.479,1.063,1.071,1.063h10.209v14.14H75.078
			c-0.591,0-1.071,0.479-1.071,1.07c0,0.591,0.479,1.07,1.071,1.07h10.209v14.14H75.078c-0.591,0-1.071,0.471-1.071,1.063
			c0,0.591,0.479,1.07,1.071,1.07h10.209v14.143H75.078c-0.591,0-1.071,0.476-1.071,1.066c0,0.592,0.479,1.071,1.071,1.071h10.209
			v14.139H75.078c-0.591,0-1.071,0.476-1.071,1.07c0,0.588,0.479,1.063,1.071,1.063h10.209v14.147H75.078
			c-0.591,0-1.071,0.476-1.071,1.063c0,0.591,0.479,1.07,1.071,1.07h10.209v14.14H75.078c-0.591,0-1.071,0.479-1.071,1.07
			c0,0.587,0.479,1.063,1.071,1.063h10.209v14.143H75.078c-0.591,0-1.071,0.476-1.071,1.066c0,0.592,0.479,1.071,1.071,1.071h10.209
			v14.139H75.078c-0.591,0-1.071,0.479-1.071,1.07c0,0.592,0.479,1.066,1.071,1.066h10.209v10.214c0,0.591,0.479,1.066,1.07,1.066
			s1.066-0.476,1.066-1.066v-10.214h14.139v10.214c0,0.591,0.476,1.066,1.066,1.066c0.591,0,1.071-0.476,1.071-1.066v-10.214h14.143
			v10.214c0,0.591,0.476,1.066,1.066,1.066c0.591,0,1.07-0.476,1.07-1.066v-10.214h14.135v10.214c0,0.591,0.479,1.066,1.067,1.066
			c0.599,0,1.07-0.476,1.07-1.066v-10.214h14.139v10.214c0,0.591,0.479,1.066,1.07,1.066c0.591,0,1.071-0.476,1.071-1.066v-10.214
			h14.135v10.214c0,0.591,0.479,1.066,1.074,1.066c0.583,0,1.066-0.476,1.066-1.066v-10.214h14.139v10.214
			c0,0.591,0.479,1.066,1.066,1.066c0.591,0,1.066-0.476,1.066-1.066v-10.214h14.14v10.214c0,0.591,0.479,1.066,1.074,1.066
			c0.587,0,1.066-0.476,1.066-1.066v-10.214h14.135v10.214c0,0.591,0.479,1.066,1.071,1.066c0.591,0,1.066-0.476,1.066-1.066
			v-10.214h14.143v10.214c0,0.591,0.475,1.066,1.066,1.066c0.595,0,1.07-0.476,1.07-1.066v-10.214h14.14v10.214
			c0,0.591,0.475,1.066,1.07,1.066c0.587,0,1.066-0.476,1.066-1.066v-10.214h14.139v10.214c0,0.591,0.476,1.066,1.066,1.066
			c0.595,0,1.066-0.476,1.066-1.066v-10.214h14.147v10.214c0,0.591,0.471,1.066,1.063,1.066c0.591,0,1.07-0.476,1.07-1.066v-10.214
			h14.139v10.214c0,0.591,0.472,1.066,1.07,1.066c0.591,0,1.067-0.476,1.067-1.066v-10.214h14.139v10.214
			c0,0.591,0.475,1.066,1.066,1.066c0.595,0,1.07-0.476,1.07-1.066v-10.214h14.139v10.214c0,0.591,0.479,1.066,1.066,1.066
			c0.595,0,1.075-0.476,1.075-1.066v-10.214h14.139v10.214c0,0.591,0.479,1.066,1.063,1.066c0.591,0,1.07-0.476,1.07-1.066v-10.214
			h14.139v10.214c0,0.591,0.476,1.066,1.071,1.066c0.591,0,1.066-0.476,1.066-1.066v-10.214h14.139v10.214
			c0,0.591,0.479,1.066,1.066,1.066c0.591,0,1.07-0.476,1.07-1.066v-10.214h14.144v10.214c0,0.591,0.479,1.066,1.066,1.066
			c0.587,0,1.07-0.476,1.07-1.066v-10.214h14.139v10.214c0,0.591,0.476,1.066,1.066,1.066c0.587,0,1.066-0.476,1.066-1.066v-10.214
			h14.144v10.214c0,0.591,0.475,1.066,1.066,1.066s1.063-0.476,1.063-1.066v-10.214h8.879c0.591,0,1.066-0.475,1.066-1.066
			C439.168,874.211,438.693,873.731,438.102,873.731z"/>
		<path fill="#231F20" d="M428.161,888.171c-1.15,0-2.089-0.938-2.089-2.089v-9.191h-12.098v9.191c0,1.15-0.939,2.089-2.089,2.089
			c-1.15,0-2.089-0.938-2.089-2.089v-9.191h-12.094v9.191c0,1.15-0.938,2.089-2.093,2.089c-1.15,0-2.089-0.938-2.089-2.089v-9.191
			h-12.099v9.191c0,1.15-0.938,2.089-2.093,2.089c-1.15,0-2.089-0.938-2.089-2.089v-9.191h-12.094v9.191
			c0,1.15-0.938,2.089-2.089,2.089c-1.154,0-2.093-0.938-2.093-2.089v-9.191h-12.094v9.191c0,1.15-0.938,2.089-2.093,2.089
			c-1.15,0-2.085-0.938-2.085-2.089v-9.191h-12.094v9.191c0,1.15-0.943,2.089-2.097,2.089c-1.15,0-2.089-0.938-2.089-2.089v-9.191
			h-12.094v9.191c0,1.15-0.938,2.089-2.093,2.089c-1.15,0-2.089-0.938-2.089-2.089v-9.191h-12.094v9.191
			c0,1.15-0.939,2.089-2.089,2.089c-1.154,0-2.093-0.938-2.093-2.089v-9.191h-12.094v9.191c0,1.15-0.938,2.089-2.093,2.089
			c-1.15,0-2.085-0.938-2.085-2.089v-9.191h-12.103v9.191c0,1.15-0.938,2.089-2.089,2.089s-2.089-0.938-2.089-2.089v-9.191h-12.094
			v9.191c0,1.15-0.938,2.089-2.089,2.089c-1.154,0-2.093-0.938-2.093-2.089v-9.191h-12.095v9.191c0,1.15-0.938,2.089-2.093,2.089
			c-1.15,0-2.089-0.938-2.089-2.089v-9.191h-12.098v9.191c0,1.15-0.939,2.089-2.089,2.089c-1.155,0-2.093-0.938-2.093-2.089v-9.191
			h-12.09v9.191c0,1.15-0.938,2.089-2.089,2.089c-1.154,0-2.097-0.938-2.097-2.089v-9.191h-12.094v9.191
			c0,1.15-0.939,2.089-2.089,2.089c-1.15,0-2.089-0.938-2.089-2.089v-9.191h-12.094v9.191c0,1.15-0.938,2.089-2.089,2.089
			c-1.154,0-2.097-0.938-2.097-2.089v-9.191h-12.09v9.191c0,1.15-0.939,2.089-2.093,2.089s-2.093-0.938-2.093-2.089v-9.191h-12.094
			v9.191c0,1.15-0.938,2.089-2.093,2.089c-1.15,0-2.089-0.938-2.089-2.089v-9.191h-12.09v9.191c0,1.15-0.939,2.089-2.093,2.089
			c-1.15,0-2.089-0.938-2.089-2.089v-9.191h-12.098v9.191c0,1.15-0.939,2.089-2.093,2.089c-1.15,0-2.089-0.938-2.089-2.089v-9.191
			H88.446v9.191c0,1.15-0.938,2.089-2.089,2.089c-1.154,0-2.093-0.938-2.093-2.089v-9.191h-9.187c-1.154,0-2.093-0.938-2.093-2.089
			c0-1.154,0.939-2.093,2.093-2.093h9.187v-12.094h-9.187c-1.154,0-2.093-0.939-2.093-2.094c0-1.149,0.939-2.089,2.093-2.089h9.187
			v-12.098h-9.187c-1.154,0-2.093-0.935-2.093-2.085c0-1.154,0.939-2.093,2.093-2.093h9.187v-12.095h-9.187
			c-1.154,0-2.093-0.938-2.093-2.093c0-1.15,0.939-2.085,2.093-2.085h9.187v-12.103h-9.187c-1.154,0-2.093-0.935-2.093-2.085
			c0-1.158,0.939-2.093,2.093-2.093h9.187v-12.094h-9.187c-1.154,0-2.093-0.939-2.093-2.094c0-1.149,0.939-2.089,2.093-2.089h9.187
			V779.23h-9.187c-1.154,0-2.093-0.935-2.093-2.093c0-1.15,0.939-2.085,2.093-2.085h9.187v-12.095h-9.187
			c-1.154,0-2.093-0.942-2.093-2.093c0-1.154,0.939-2.093,2.093-2.093h9.187v-12.095h-9.187c-1.154,0-2.093-0.935-2.093-2.085
			c0-1.158,0.939-2.093,2.093-2.093h9.187v-12.095h-9.187c-1.154,0-2.093-0.942-2.093-2.093s0.939-2.089,2.093-2.089h9.187v-12.098
			h-9.187c-1.154,0-2.093-0.939-2.093-2.094c0-1.149,0.939-2.089,2.093-2.089h9.187v-12.09h-9.187c-1.154,0-2.093-0.938-2.093-2.093
			c0-1.15,0.939-2.089,2.093-2.089h9.187v-12.099h-9.187c-1.154,0-2.093-0.935-2.093-2.089s0.939-2.089,2.093-2.089h9.187v-12.099
			h-9.187c-1.154,0-2.093-0.938-2.093-2.089c0-1.154,0.939-2.093,2.093-2.093h9.187v-12.094h-9.187c-1.154,0-2.093-0.936-2.093-2.09
			s0.939-2.089,2.093-2.089h9.187v-10.145c0-1.15,0.938-2.093,2.093-2.093c1.15,0,2.089,0.942,2.089,2.093v238.011h349.656
			c1.15,0,2.089,0.938,2.089,2.093c0,1.15-0.938,2.089-2.089,2.089h-7.856v9.191C430.246,887.232,429.311,888.171,428.161,888.171z
			 M412.951,874.846h14.144c0.563,0,1.022,0.46,1.022,1.022l0.044,10.258c0.028,0,0.04-0.024,0.04-0.044v-10.214
			c0-0.563,0.459-1.022,1.022-1.022h8.879l-350.678-0.092c-0.563,0-1.022-0.455-1.022-1.022V634.698l-0.092,11.167
			c0,0.563-0.459,1.022-1.022,1.022H75.078l10.209,0.088c0.563,0,1.022,0.46,1.022,1.022v14.14c0,0.567-0.459,1.022-1.022,1.022
			H75.078l10.209,0.092c0.563,0,1.022,0.459,1.022,1.022v14.144c0,0.563-0.459,1.022-1.022,1.022H75.078l10.209,0.088
			c0.563,0,1.022,0.455,1.022,1.022v14.144c0,0.563-0.459,1.022-1.022,1.022H75.078l10.209,0.092c0.563,0,1.022,0.455,1.022,1.022
			v14.135c0,0.563-0.459,1.022-1.022,1.022H75.078l10.209,0.092c0.563,0,1.022,0.456,1.022,1.023v14.143
			c0,0.563-0.459,1.022-1.022,1.022H75.078l10.209,0.092c0.563,0,1.022,0.456,1.022,1.022v14.14c0,0.563-0.459,1.022-1.022,1.022
			H75.078l10.209,0.088c0.563,0,1.022,0.455,1.022,1.022v14.14c0,0.566-0.459,1.022-1.022,1.022H75.078l10.209,0.096
			c0.563,0,1.022,0.455,1.022,1.022v14.14c0,0.563-0.459,1.022-1.022,1.022H75.078l10.209,0.088c0.563,0,1.022,0.459,1.022,1.022
			v14.143c0,0.563-0.459,1.022-1.022,1.022H75.078l10.209,0.092c0.563,0,1.022,0.456,1.022,1.023v14.139
			c0,0.563-0.459,1.022-1.022,1.022H75.078l10.209,0.088c0.563,0,1.022,0.46,1.022,1.022v14.147c0,0.563-0.459,1.022-1.022,1.022
			H75.078l10.209,0.088c0.563,0,1.022,0.455,1.022,1.022v14.14c0,0.566-0.459,1.022-1.022,1.022H75.078l10.209,0.088
			c0.563,0,1.022,0.459,1.022,1.022v14.143c0,0.563-0.459,1.023-1.022,1.023H75.078l10.209,0.092c0.563,0,1.022,0.455,1.022,1.022
			v14.139c0,0.567-0.459,1.022-1.022,1.022H75.078l10.209,0.092c0.563,0,1.022,0.46,1.022,1.022v10.214l0.092-10.214
			c0-0.563,0.459-1.022,1.022-1.022h14.139c0.563,0,1.022,0.46,1.022,1.022v10.214l0.092-10.214c0-0.563,0.459-1.022,1.022-1.022
			h14.143c0.563,0,1.022,0.46,1.022,1.022v10.214l0.092-10.214c0-0.563,0.459-1.022,1.022-1.022h14.135
			c0.563,0,1.023,0.46,1.023,1.022v10.214l0.092-10.214c0-0.563,0.459-1.022,1.022-1.022h14.139c0.563,0,1.022,0.46,1.022,1.022
			v10.214l0.096-10.214c0-0.563,0.459-1.022,1.023-1.022h14.135c0.563,0,1.022,0.46,1.022,1.022v10.214l0.096-10.214
			c0-0.563,0.459-1.022,1.022-1.022h14.139c0.563,0,1.022,0.46,1.022,1.022v10.214l0.088-10.214c0-0.563,0.459-1.022,1.022-1.022
			h14.14c0.563,0,1.022,0.46,1.022,1.022v10.214l0.096-10.214c0-0.563,0.459-1.022,1.022-1.022h14.135
			c0.563,0,1.022,0.46,1.022,1.022v10.214l0.092-10.214c0-0.563,0.459-1.022,1.023-1.022h14.143c0.563,0,1.022,0.46,1.022,1.022
			v10.214l0.092-10.214c0-0.563,0.459-1.022,1.022-1.022h14.14c0.563,0,1.022,0.46,1.022,1.022v10.214l0.092-10.214
			c0-0.563,0.459-1.022,1.022-1.022h14.139c0.563,0,1.022,0.46,1.022,1.022v10.214l0.088-10.214c0-0.563,0.459-1.022,1.022-1.022
			h14.147c0.563,0,1.022,0.46,1.022,1.022v10.214l0.088-10.214c0-0.563,0.459-1.022,1.022-1.022h14.139
			c0.563,0,1.022,0.46,1.022,1.022v10.214l0.092-10.214c0-0.563,0.459-1.022,1.023-1.022h14.139c0.563,0,1.022,0.46,1.022,1.022
			v10.214l0.092-10.214c0-0.563,0.459-1.022,1.022-1.022h14.139c0.563,0,1.022,0.46,1.022,1.022v10.214l0.096-10.214
			c0-0.563,0.459-1.022,1.022-1.022h14.139c0.563,0,1.022,0.46,1.022,1.022v10.214l0.088-10.214c0-0.563,0.459-1.022,1.022-1.022
			h14.139c0.563,0,1.023,0.46,1.023,1.022v10.214l0.092-10.214c0-0.563,0.459-1.022,1.022-1.022h14.139
			c0.563,0,1.022,0.46,1.022,1.022v10.214l0.092-10.214c0-0.563,0.459-1.022,1.022-1.022h14.144c0.563,0,1.022,0.46,1.022,1.022
			v10.214l0.092-10.214c0-0.563,0.459-1.022,1.022-1.022h14.139c0.563,0,1.022,0.46,1.022,1.022v10.214l0.088-10.214
			C411.928,875.306,412.388,874.846,412.951,874.846z"/>
	</g>
	<g>
		<path fill="#231F20" d="M418.231,662.138c-0.591,0-1.066,0.479-1.066,1.07s0.476,1.066,1.066,1.066h17.502l-86.465,97.98
			c-2.069-1.542-4.625-2.46-7.389-2.46c-3.986,0-7.525,1.889-9.806,4.809l-39.793-29.708c1.198-1.913,1.901-4.162,1.901-6.583
			c0-6.861-5.584-12.441-12.446-12.441c-6.854,0-12.434,5.58-12.434,12.441c0,3.523,1.478,6.698,3.834,8.963l-49.667,62.077
			c-1.973-1.326-4.346-2.101-6.902-2.101c-3.922,0-7.429,1.837-9.714,4.685l-28.211-18.808c0.979-1.782,1.538-3.818,1.538-5.991
			c0-6.858-5.58-12.438-12.438-12.438c-6.862,0-12.446,5.58-12.446,12.438c0,3.542,1.498,6.733,3.875,9.002l-57.372,71.716
			c-0.368,0.459-0.295,1.134,0.168,1.505c0.191,0.152,0.427,0.232,0.663,0.232c0.316,0,0.627-0.14,0.835-0.399l57.376-71.711
			c1.973,1.326,4.346,2.101,6.902,2.101c3.918,0,7.425-1.833,9.706-4.686l28.215,18.809c-0.975,1.781-1.542,3.818-1.542,5.991
			c0,6.858,5.583,12.438,12.446,12.438c6.862,0,12.441-5.58,12.441-12.438c0-3.543-1.494-6.734-3.874-9.003l49.651-62.068
			c1.993,1.342,4.386,2.129,6.95,2.129c3.678,0,6.981-1.61,9.254-4.158l39.914,29.788c-0.935,1.75-1.47,3.738-1.47,5.855
			c0,6.858,5.58,12.438,12.446,12.438c6.854,0,12.438-5.579,12.438-12.438c0-3.323-1.318-6.343-3.447-8.571l86.158-97.641v17.047
			c0,0.591,0.483,1.07,1.074,1.07s1.066-0.479,1.066-1.07v-20.938H418.231z M176.821,781.914c-0.339,0.631-0.731,1.223-1.186,1.773
			c-1.894,2.276-4.713,3.759-7.893,3.759c-2.053,0-3.954-0.619-5.56-1.653c-0.603-0.388-1.166-0.823-1.673-1.322
			c-1.889-1.869-3.08-4.466-3.08-7.333c0-5.68,4.625-10.306,10.313-10.306c5.68,0,10.297,4.626,10.297,10.306
			C178.039,778.871,177.576,780.477,176.821,781.914z M226.872,809.697c0,5.68-4.625,10.305-10.305,10.305
			c-5.68,0-10.305-4.625-10.305-10.305c0-1.733,0.467-3.339,1.226-4.772c0.332-0.636,0.731-1.227,1.187-1.777
			c1.889-2.277,4.705-3.763,7.893-3.763c2.049,0,3.95,0.623,5.556,1.653c0.599,0.392,1.17,0.827,1.669,1.33
			C225.689,804.233,226.872,806.83,226.872,809.697z M290.538,733.601c-0.367,0.611-0.791,1.187-1.278,1.71
			c-1.885,2.021-4.545,3.307-7.525,3.307c-2.065,0-3.986-0.623-5.6-1.677c-0.599-0.392-1.162-0.831-1.666-1.334
			c-1.873-1.865-3.04-4.446-3.04-7.294c0-5.68,4.625-10.305,10.305-10.305c5.688,0,10.313,4.625,10.313,10.305
			C292.048,730.254,291.477,732.047,290.538,733.601z M352.18,772.24c0,5.68-4.621,10.305-10.301,10.305
			c-5.688,0-10.305-4.625-10.305-10.305c0-1.638,0.407-3.159,1.09-4.537c0.319-0.644,0.703-1.242,1.15-1.806
			c1.885-2.396,4.781-3.962,8.064-3.962c2.225,0,4.278,0.723,5.967,1.934c0.579,0.415,1.106,0.895,1.59,1.422
			C351.125,767.128,352.18,769.557,352.18,772.24z"/>
		<path fill="#231F20" d="M102.629,860.615c-0.479,0-0.942-0.168-1.306-0.464c-0.895-0.711-1.042-2.028-0.324-2.932l56.809-71.008
			c-2.289-2.496-3.535-5.68-3.535-9.074c0-7.422,6.043-13.461,13.468-13.461c7.421,0,13.46,6.039,13.46,13.461
			c0,1.948-0.428,3.882-1.238,5.64l26.705,17.806c2.552-2.78,6.111-4.354,9.898-4.354c2.356,0,4.645,0.611,6.67,1.773l48.537-60.659
			c-2.261-2.488-3.495-5.66-3.495-9.031c0-7.425,6.035-13.464,13.457-13.464c7.425,0,13.468,6.039,13.468,13.464
			c0,2.197-0.543,4.362-1.582,6.311l38.292,28.583c2.56-2.828,6.139-4.434,9.965-4.434c2.581,0,5.057,0.73,7.226,2.125
			l84.364-95.601h-15.238c-1.15,0-2.089-0.938-2.089-2.089c0-1.154,0.939-2.093,2.089-2.093h20.938c0.563,0,1.022,0.455,1.022,1.022
			v20.938c0,1.15-0.938,2.093-2.089,2.093c-1.154,0-2.097-0.942-2.097-2.093v-14.339l-83.769,94.929
			c2.009,2.416,3.104,5.428,3.104,8.575c0,7.421-6.039,13.461-13.46,13.461c-7.425,0-13.468-6.04-13.468-13.461
			c0-1.905,0.412-3.803,1.198-5.544l-38.507-28.737c-4.19,4.086-11.008,4.948-16.084,2.017L226.5,800.623
			c2.285,2.492,3.531,5.68,3.531,9.074c0,7.422-6.039,13.461-13.464,13.461c-7.425,0-13.468-6.039-13.468-13.461
			c0-1.937,0.427-3.866,1.246-5.64l-26.709-17.806c-2.552,2.78-6.107,4.354-9.894,4.354c-2.353,0-4.641-0.611-6.67-1.773l-56.809,71
			C103.868,860.327,103.272,860.615,102.629,860.615z M167.742,765.722c-6.299,0-11.423,5.121-11.423,11.416
			c0,3.139,1.262,6.074,3.559,8.268c0.383,0.363,0.423,0.963,0.092,1.374l-57.372,71.715l0.032,0.076c0.004,0,0.024,0,0.036-0.017
			l57.376-71.711c0.328-0.415,0.931-0.507,1.366-0.207c1.881,1.262,4.074,1.925,6.334,1.925c3.475,0,6.722-1.565,8.907-4.302
			c0.328-0.419,0.931-0.507,1.366-0.212l28.215,18.813c0.439,0.292,0.583,0.875,0.332,1.342c-0.943,1.714-1.418,3.563-1.418,5.496
			c0,6.295,5.125,11.416,11.423,11.416c6.294,0,11.419-5.121,11.419-11.416c0-3.139-1.262-6.079-3.559-8.268
			c-0.383-0.363-0.423-0.963-0.092-1.374l49.651-62.069c0.332-0.415,0.931-0.503,1.37-0.207c4.589,3.091,11.18,2.269,14.87-1.861
			c0.352-0.399,0.947-0.46,1.374-0.136l39.914,29.788c0.408,0.3,0.527,0.854,0.292,1.298c-0.883,1.649-1.35,3.507-1.35,5.372
			c0,6.295,5.125,11.415,11.423,11.415c6.295,0,11.416-5.12,11.416-11.415c0-2.932-1.123-5.728-3.164-7.868
			c-0.367-0.384-0.379-0.982-0.028-1.382l86.158-97.637c0.28-0.32,0.723-0.428,1.13-0.28c0.396,0.148,0.659,0.531,0.659,0.955
			v17.047l0.092-19.915h-19.911l17.502,0.092c0.403,0,0.767,0.236,0.931,0.604c0.168,0.367,0.104,0.795-0.164,1.094l-86.465,97.984
			c-0.348,0.396-0.951,0.46-1.378,0.145c-1.985-1.479-4.33-2.261-6.778-2.261c-3.527,0-6.806,1.609-8.999,4.413
			c-0.344,0.439-0.971,0.531-1.418,0.188l-39.794-29.7c-0.427-0.319-0.539-0.91-0.255-1.366c1.142-1.821,1.745-3.914,1.745-6.039
			c0-6.295-5.124-11.419-11.423-11.419c-6.291,0-11.412,5.124-11.412,11.419c0,3.124,1.25,6.048,3.519,8.229
			c0.383,0.367,0.423,0.962,0.092,1.374l-49.667,62.077c-0.332,0.415-0.927,0.503-1.37,0.207c-1.874-1.258-4.066-1.925-6.331-1.925
			c-3.475,0-6.722,1.565-8.915,4.302c-0.34,0.415-0.935,0.503-1.366,0.212l-28.21-18.813c-0.443-0.296-0.583-0.879-0.328-1.343
			c0.923-1.677,1.41-3.578,1.41-5.495C179.157,770.843,174.037,765.722,167.742,765.722z M216.567,821.025
			c-6.247,0-11.328-5.081-11.328-11.328c0-1.797,0.451-3.563,1.346-5.252c0.351-0.675,0.791-1.338,1.302-1.953
			c2.177-2.62,5.34-4.13,8.68-4.13c2.153,0,4.266,0.631,6.111,1.821c0.723,0.463,1.326,0.942,1.841,1.462
			c2.173,2.141,3.375,5.001,3.375,8.052C227.894,815.944,222.813,821.025,216.567,821.025z M216.567,800.407
			c-2.728,0-5.316,1.238-7.106,3.395c-0.419,0.504-0.779,1.039-1.066,1.594c-0.739,1.395-1.11,2.84-1.11,4.302
			c0,5.117,4.166,9.282,9.283,9.282c5.116,0,9.282-4.165,9.282-9.282c0-2.496-0.987-4.841-2.776-6.598
			c-0.416-0.424-0.907-0.815-1.506-1.198C220.054,800.927,218.324,800.407,216.567,800.407z M167.742,788.469
			c-2.157,0-4.274-0.627-6.115-1.817c-0.679-0.436-1.298-0.927-1.837-1.454c-2.181-2.16-3.383-5.024-3.383-8.06
			c0-6.247,5.084-11.328,11.335-11.328c6.243,0,11.319,5.081,11.319,11.328c0,1.801-0.451,3.566-1.334,5.252
			c-0.387,0.715-0.823,1.37-1.306,1.949C174.241,786.963,171.077,788.469,167.742,788.469z M167.742,767.854
			c-5.125,0-9.291,4.166-9.291,9.283c0,2.488,0.987,4.832,2.776,6.605c0.432,0.424,0.939,0.827,1.506,1.19
			c3.847,2.477,9.163,1.646,12.114-1.901c0.396-0.475,0.755-1.015,1.071-1.605c0.727-1.378,1.098-2.823,1.098-4.289
			C177.017,772.021,172.854,767.854,167.742,767.854z M341.879,783.567c-6.247,0-11.327-5.08-11.327-11.327
			c0-1.709,0.403-3.387,1.198-4.992c0.343-0.695,0.771-1.366,1.266-1.985c2.173-2.764,5.408-4.35,8.863-4.35
			c2.353,0,4.622,0.735,6.563,2.125c0.619,0.447,1.206,0.971,1.75,1.562c1.941,2.113,3.012,4.821,3.012,7.641
			C353.203,778.487,348.122,783.567,341.879,783.567z M341.879,762.958c-2.828,0-5.472,1.302-7.261,3.571
			c-0.412,0.519-0.751,1.054-1.039,1.629c-0.651,1.318-0.982,2.688-0.982,4.082c0,5.117,4.166,9.282,9.282,9.282
			c5.117,0,9.278-4.165,9.278-9.282c0-2.301-0.878-4.525-2.472-6.255c-0.451-0.495-0.935-0.927-1.438-1.286
			C345.658,763.557,343.8,762.958,341.879,762.958z M281.735,739.641c-2.177,0-4.306-0.64-6.159-1.842
			c-0.711-0.467-1.31-0.946-1.829-1.466c-2.153-2.148-3.339-4.997-3.339-8.021c0-6.246,5.081-11.327,11.328-11.327
			c6.25,0,11.335,5.081,11.335,11.327c0,2.037-0.559,3.994-1.657,5.815c-0.416,0.695-0.891,1.326-1.406,1.878
			C287.826,738.35,284.887,739.641,281.735,739.641z M281.735,719.03c-5.117,0-9.283,4.162-9.283,9.282
			c0,2.477,0.975,4.81,2.74,6.57c0.419,0.424,0.915,0.819,1.506,1.202c3.707,2.413,8.783,1.782,11.814-1.474
			c0.419-0.451,0.807-0.967,1.15-1.537c0.903-1.498,1.362-3.1,1.362-4.762C291.025,723.192,286.86,719.03,281.735,719.03z"/>
	</g>
</g>
<g>
	<g>
		<path fill="#231F20" d="M545.94,910.909c39.662,0,71.943-32.272,71.943-71.95c0-39.67-32.281-71.943-71.943-71.943
			c-39.678,0-71.951,32.273-71.951,71.943C473.989,878.637,506.262,910.909,545.94,910.909z M545.94,769.692
			c38.188,0,69.259,31.074,69.259,69.267c0,38.195-31.071,69.271-69.259,69.271c-38.196,0-69.271-31.075-69.271-69.271
			C476.669,800.767,507.744,769.692,545.94,769.692z"/>
		<path fill="#231F20" d="M545.94,911.421c-39.958,0-72.462-32.505-72.462-72.462c0-39.95,32.504-72.454,72.462-72.454
			c39.95,0,72.454,32.504,72.454,72.454C618.394,878.916,585.89,911.421,545.94,911.421z M545.94,767.527
			c-39.39,0-71.439,32.041-71.439,71.432c0,39.39,32.049,71.439,71.439,71.439c39.386,0,71.431-32.05,71.431-71.439
			C617.371,799.568,585.326,767.527,545.94,767.527z M545.94,908.74c-38.479,0-69.782-31.302-69.782-69.781
			c0-38.472,31.302-69.778,69.782-69.778c38.472,0,69.77,31.307,69.77,69.778C615.71,877.438,584.412,908.74,545.94,908.74z
			 M545.94,770.203c-37.913,0-68.759,30.843-68.759,68.756c0,37.912,30.847,68.759,68.759,68.759
			c37.909,0,68.748-30.847,68.748-68.759C614.688,801.046,583.849,770.203,545.94,770.203z"/>
	</g>
</g>
<g>
	<g>
		<polygon fill="#231F20" points="538.695,871.487 539.641,870.668 593.89,816.42 591.997,814.522 538.695,867.828 510.983,840.121 
			509.094,842.019 537.744,870.668 		"/>
		<path fill="#231F20" d="M538.695,872.162l-1.286-1.106l-29.038-29.037l2.612-2.62l0.359,0.359l27.352,27.344l53.302-53.298
			l2.616,2.616l-0.359,0.363l-54.249,54.248L538.695,872.162z M509.817,842.019l28.878,28.793l0.611-0.53l53.861-53.861l-1.17-1.171
			l-53.302,53.298l-0.364-0.359l-27.348-27.344L509.817,842.019z"/>
	</g>
</g>
<g>
	<g>
		<g>
			<path fill="#231F20" d="M1076.771,895.252c43.324,0,78.568-35.248,78.568-78.572c0-43.321-35.244-78.565-78.568-78.565
				c-43.325,0-78.569,35.244-78.569,78.565C998.201,860.004,1033.445,895.252,1076.771,895.252z M1076.771,741.038
				c41.711,0,75.641,33.935,75.641,75.642c0,41.711-33.93,75.645-75.641,75.645c-41.707,0-75.638-33.934-75.638-75.645
				C1001.133,774.973,1035.063,741.038,1076.771,741.038z"/>
			<path fill="#231F20" d="M1076.771,895.764c-43.604,0-79.08-35.477-79.08-79.084c0-43.601,35.476-79.076,79.08-79.076
				c43.604,0,79.08,35.476,79.08,79.076C1155.851,860.287,1120.374,895.764,1076.771,895.764z M1076.771,738.626
				c-43.041,0-78.058,35.013-78.058,78.054c0,43.045,35.017,78.062,78.058,78.062s78.058-35.017,78.058-78.062
				C1154.828,773.639,1119.812,738.626,1076.771,738.626z M1076.771,892.836c-41.987,0-76.148-34.162-76.148-76.156
				c0-41.987,34.161-76.152,76.148-76.152c41.99,0,76.152,34.165,76.152,76.152C1152.923,858.674,1118.761,892.836,1076.771,892.836
				z M1076.771,741.55c-41.424,0-75.126,33.702-75.126,75.13c0,41.427,33.702,75.134,75.126,75.134
				c41.427,0,75.13-33.707,75.13-75.134C1151.9,775.252,1118.197,741.55,1076.771,741.55z"/>
		</g>
	</g>
	<g>
		<g>
			<path fill="#231F20" d="M1076.123,870.58l0.647,0.324l0.646-0.324c49.256-24.336,43.169-90.531,43.109-91.194l-0.14-1.317h-87.24
				l-0.128,1.317C1032.95,780.049,1026.863,846.244,1076.123,870.58z M1035.83,780.996h81.88
				c0.563,9.273,2.065,64.832-40.939,86.633C1033.793,845.841,1035.271,790.27,1035.83,780.996z"/>
			<path fill="#231F20" d="M1076.771,871.471l-0.875-0.431c-49.659-24.54-43.452-91.035-43.385-91.706l0.172-1.777h88.163
				l0.188,1.777c0.252,2.756,5.532,67.533-43.389,91.706L1076.771,871.471z M1033.609,778.579l-0.084,0.858
				c-0.067,0.663-6.207,66.459,42.825,90.684l0.42,0.208l0.419-0.208c48.302-23.865,43.073-87.967,42.829-90.684l-0.092-0.858
				H1033.609z M1076.771,868.204l-0.231-0.12c-42.918-21.76-41.867-76.393-41.22-87.12l0.027-0.479h82.843l0.032,0.479
				c0.65,10.728,1.726,65.352-41.22,87.12L1076.771,868.204z M1036.313,781.507c-0.631,11.651-1.055,64.306,40.457,85.551
				c41.535-21.257,41.096-73.904,40.456-85.551H1036.313z"/>
		</g>
	</g>
</g>
<g>
	<g>
		<path fill="#231F20" d="M154.242,643.205c-0.348,0-0.695-0.088-1.007-0.268c-1.418-0.803-2.296-2.28-2.296-3.858V530.851
			c0-0.2,0.064-0.531,0.14-0.795c0.02-0.252,0.06-0.531,0.124-0.707c0.096-0.284,0.248-0.512,0.371-0.655
			c0.244-0.415,0.507-0.707,0.747-0.942c0.707-0.703,1.81-0.791,2.616-0.216l79.783,56.149c0.543,0.38,0.867,1.007,0.867,1.67
			s-0.324,1.29-0.867,1.669l-79.3,55.807C155.069,643.078,154.653,643.205,154.242,643.205z M155.029,532.6v105.506l74.958-52.751
			L155.029,532.6z"/>
	</g>
	<g>
		<path fill="#231F20" d="M350.223,643.545H155.696c-1.022,0-1.753-0.203-2.464-0.611c-0.611-0.343-0.999-0.979-1.03-1.678
			c-0.036-0.698,0.292-1.365,0.862-1.769l79.3-55.803c0.711-0.503,1.646-0.503,2.357,0l18.085,12.729l18.062-12.753
			c0.703-0.504,1.646-0.504,2.356-0.005l79.336,55.835c0.571,0.399,0.898,1.07,0.862,1.765c-0.032,0.703-0.419,1.335-1.03,1.682
			C351.685,643.342,350.954,643.545,350.223,643.545z M160.217,639.455h185.188l-73.356-51.624l-18.062,12.757
			c-0.703,0.495-1.646,0.499-2.356,0l-18.089-12.733L160.217,639.455z"/>
	</g>
	<g>
		<path fill="#231F20" d="M252.81,600.963c-0.412,0-0.823-0.127-1.178-0.375l-99.051-69.714c-0.491-0.344-0.807-0.895-0.859-1.494
			c-0.052-0.599,0.164-1.194,0.591-1.621c0.184-0.188,0.379-0.388,0.643-0.575c0.127-0.116,0.279-0.231,0.403-0.3
			c0.619-0.296,1.042-0.323,1.266-0.344c0.255-0.111,0.503-0.155,0.783-0.155h194.814c0.284,0,0.807,0.128,1.066,0.239
			c-0.048-0.056,0.368-0.031,0.827,0.18c0.18,0.084,0.395,0.236,0.571,0.388c0.212,0.156,0.36,0.308,0.448,0.399
			c0.411,0.432,0.643,1.047,0.587,1.638c-0.056,0.595-0.344,1.158-0.831,1.502l-98.903,69.857
			C253.636,600.836,253.221,600.963,252.81,600.963z M159.119,530.475l93.687,65.939l93.359-65.939H159.119z"/>
	</g>
	<g>
		<path fill="#231F20" d="M351.381,643.205c-0.411,0-0.827-0.127-1.178-0.375L270.867,587c-0.543-0.384-0.867-1.007-0.867-1.67
			s0.323-1.286,0.867-1.669l77.391-54.664c-0.052-0.176-0.08-0.368-0.08-0.567c0-1.126,0.915-2.045,2.045-2.045h30.316
			c0.799,0,1.525,0.471,1.861,1.198c0.332,0.727,0.208,1.582-0.315,2.188l-27.4,31.634v77.674c0,1.586-0.882,3.063-2.3,3.862
			C352.072,643.117,351.725,643.205,351.381,643.205z M275.596,585.322l74.998,52.787v-77.463c0-0.495,0.176-0.967,0.5-1.342
			l24.967-28.83h-22.878c-0.088,0.096-0.184,0.184-0.292,0.256L275.596,585.322z"/>
	</g>
</g>
<g>
	<path fill="#FFFFFF" d="M792.363,847.522h27.279c2.457,0,4.458-2.001,4.458-4.458v-26.736v-26.733c0-2.456-2.001-4.457-4.458-4.457
		h-27.279c-2.457,0-4.454,2.001-4.454,4.457v26.733v26.736C787.909,845.521,789.906,847.522,792.363,847.522z"/>
	<path fill="#FFFFFF" d="M701.528,715.812c-16.448,0-29.833,13.38-29.833,29.828v68.644h8.503h103.62v-24.688
		c0-4.713,3.835-8.547,8.544-8.547h27.279c4.714,0,8.548,3.834,8.548,8.547v24.688h103.612h8.504V745.64
		c0-16.448-13.381-29.828-29.829-29.828h-57.108h-94.741H701.528z"/>
	<path fill="#FFFFFF" d="M819.643,851.612h-27.279c-4.709,0-8.544-3.835-8.544-8.548v-24.691H682.244v71.256
		c0,15.085,12.274,27.359,27.364,27.359h192.789c15.086,0,27.36-12.274,27.36-27.359v-71.256H828.19v24.691
		C828.19,847.777,824.356,851.612,819.643,851.612z"/>
	<path fill="#FFFFFF" d="M738.562,171.303c8.592,0,15.577-6.988,15.577-15.578c0-8.591-6.985-15.579-15.577-15.579
		c-8.595,0-15.577,6.988-15.577,15.579C722.984,164.315,729.967,171.303,738.562,171.303z"/>
	<path fill="#FFFFFF" d="M694.135,155.726c0-8.591-6.986-15.579-15.573-15.579c-8.591,0-15.581,6.988-15.581,15.579
		c0,8.59,6.99,15.578,15.581,15.578C687.149,171.303,694.135,164.315,694.135,155.726z"/>
	<path fill="#FFFFFF" d="M618.565,140.146c-8.599,0-15.585,6.988-15.585,15.579c0,8.59,6.986,15.578,15.585,15.578
		c8.583,0,15.573-6.988,15.573-15.578C634.139,147.134,627.149,140.146,618.565,140.146z"/>
	<path fill="#FFFFFF" d="M678.726,256.846v-2.361c35.001-0.05,67.788-10.668,92.324-29.888
		c23.806-18.646,36.891-43.181,36.843-69.083c-0.097-54.338-58.06-98.55-129.207-98.55c-35.284,0.056-68.064,10.668-92.612,29.886
		c-23.805,18.655-36.89,43.187-36.846,69.087c0.032,17.453,6.151,34.619,17.698,49.651l3.575,4.635l-14.271,33.451l43.516-9.584
		l3.307,1.819c22.124,12.152,48.182,18.575,75.35,18.575L678.726,256.846z M738.562,135.432c11.188,0,20.29,9.103,20.29,20.294
		c0,11.19-9.103,20.292-20.29,20.292c-11.191,0-20.298-9.103-20.298-20.292C718.264,144.534,727.37,135.432,738.562,135.432z
		 M618.565,176.018c-11.191,0-20.298-9.103-20.298-20.292c0-11.191,9.106-20.294,20.298-20.294c11.188,0,20.291,9.103,20.291,20.294
		C638.856,166.916,629.753,176.018,618.565,176.018z M658.268,155.726c0-11.191,9.103-20.294,20.294-20.294
		c11.184,0,20.287,9.103,20.287,20.294c0,11.19-9.103,20.292-20.287,20.292C667.37,176.018,658.268,166.916,658.268,155.726z"/>
	<path fill="#231F20" d="M678.729,259.204c36.051-0.054,69.869-11.032,95.229-30.895c24.979-19.563,38.703-45.419,38.647-72.808
		C812.51,98.569,752.43,52.25,678.374,52.25c-36.031,0.056-69.838,11.026-95.212,30.893c-24.967,19.563-38.695,45.419-38.651,72.801
		c0.028,18.499,6.49,36.658,18.676,52.519l1.894,2.455l-16.784,39.334l50.734-11.174l1.75,0.962
		c22.822,12.536,49.663,19.164,77.622,19.164H678.729z M599.745,234.091l-43.516,9.584l14.271-33.451l-3.575-4.635
		c-11.547-15.032-17.666-32.199-17.698-49.651c-0.044-25.9,13.041-50.432,36.846-69.087c24.548-19.218,57.328-29.83,92.612-29.886
		c71.147,0,129.11,44.211,129.207,98.55c0.048,25.902-13.037,50.436-36.843,69.083c-24.536,19.22-57.323,29.838-92.324,29.888v2.361
		l-0.324-2.361c-27.168,0-53.226-6.422-75.35-18.575L599.745,234.091z"/>
	<path fill="#231F20" d="M618.565,135.432c-11.191,0-20.298,9.103-20.298,20.294c0,11.19,9.106,20.292,20.298,20.292
		c11.188,0,20.291-9.103,20.291-20.292C638.856,144.534,629.753,135.432,618.565,135.432z M618.565,171.303
		c-8.599,0-15.585-6.988-15.585-15.578c0-8.591,6.986-15.579,15.585-15.579c8.583,0,15.573,6.988,15.573,15.579
		C634.139,164.315,627.149,171.303,618.565,171.303z"/>
	<path fill="#231F20" d="M698.848,155.726c0-11.191-9.103-20.294-20.287-20.294c-11.191,0-20.294,9.103-20.294,20.294
		c0,11.19,9.103,20.292,20.294,20.292C689.745,176.018,698.848,166.916,698.848,155.726z M662.98,155.726
		c0-8.591,6.99-15.579,15.581-15.579c8.587,0,15.573,6.988,15.573,15.579c0,8.59-6.986,15.578-15.573,15.578
		C669.97,171.303,662.98,164.315,662.98,155.726z"/>
	<path fill="#231F20" d="M738.562,176.018c11.188,0,20.29-9.103,20.29-20.292c0-11.191-9.103-20.294-20.29-20.294
		c-11.191,0-20.298,9.103-20.298,20.294C718.264,166.916,727.37,176.018,738.562,176.018z M738.562,140.146
		c8.592,0,15.577,6.988,15.577,15.579c0,8.59-6.985,15.578-15.577,15.578c-8.595,0-15.577-6.988-15.577-15.578
		C722.984,147.134,729.967,140.146,738.562,140.146z"/>
	<path fill="#231F20" d="M910.478,711.721h-55.063v2.045c0,1.131-0.914,2.046-2.045,2.046h57.108
		c16.448,0,29.829,13.38,29.829,29.828v68.644h-8.504c1.13,0,2.045,0.918,2.045,2.045v2.045h8.504c1.13,0,2.045-0.911,2.045-2.045
		V745.64C944.396,726.938,929.183,711.721,910.478,711.721z"/>
	<path fill="#231F20" d="M680.199,814.283h-8.503V745.64c0-16.448,13.384-29.828,29.833-29.828h57.1
		c-1.13,0-2.045-0.915-2.045-2.046v-2.045h-55.055c-18.705,0-33.922,15.218-33.922,33.919v70.688c0,1.134,0.915,2.045,2.045,2.045
		h8.503v-2.045C678.154,815.201,679.069,814.283,680.199,814.283z"/>
	<path fill="#231F20" d="M851.324,713.766v-2.045h-90.65v2.045c0,1.131-0.915,2.046-2.046,2.046h94.741
		C852.239,715.812,851.324,714.896,851.324,713.766z"/>
	<path fill="#231F20" d="M929.758,889.629c0,15.085-12.274,27.359-27.36,27.359H709.608c-15.09,0-27.364-12.274-27.364-27.359
		v-71.256h-4.09v71.256c0,17.342,14.111,31.449,31.454,31.449h192.789c17.343,0,31.45-14.107,31.45-31.449v-71.256h-4.09V889.629z"
		/>
	<path fill="#231F20" d="M783.819,818.373v-4.09h-103.62c-1.13,0-2.045,0.918-2.045,2.045v2.045h4.09H783.819z"/>
	<path fill="#231F20" d="M931.803,814.283H828.19v4.09h101.567h4.09v-2.045C933.848,815.201,932.933,814.283,931.803,814.283z"/>
	<path fill="#231F20" d="M819.643,781.048h-27.279c-4.709,0-8.544,3.834-8.544,8.547v24.688h2.045c1.131,0,2.045,0.918,2.045,2.045
		v-26.733c0-2.456,1.997-4.457,4.454-4.457h27.279c2.457,0,4.458,2.001,4.458,4.457v26.733c0-1.127,0.914-2.045,2.045-2.045h2.045
		v-24.688C828.19,784.882,824.356,781.048,819.643,781.048z"/>
	<path fill="#231F20" d="M824.101,816.328v26.736c0,2.457-2.001,4.458-4.458,4.458h-27.279c-2.457,0-4.454-2.001-4.454-4.458
		v-26.736c0,1.134-0.914,2.045-2.045,2.045h-2.045v24.691c0,4.713,3.835,8.548,8.544,8.548h27.279c4.714,0,8.548-3.835,8.548-8.548
		v-24.691h-2.045C825.015,818.373,824.101,817.462,824.101,816.328z"/>
	<path fill="#231F20" d="M824.101,816.328c0,1.134,0.914,2.045,2.045,2.045h2.045v-4.09h-2.045
		C825.015,814.283,824.101,815.201,824.101,816.328z"/>
	<path fill="#231F20" d="M787.909,816.328c0-1.127-0.914-2.045-2.045-2.045h-2.045v4.09h2.045
		C786.995,818.373,787.909,817.462,787.909,816.328z"/>
	<path fill="#231F20" d="M760.674,694.211c0-16.448,13.38-29.832,29.828-29.832h30.99c16.448,0,29.832,13.384,29.832,29.832v17.51
		h4.09v-17.51c0-18.709-15.217-33.923-33.922-33.923h-30.99c-18.705,0-33.919,15.214-33.919,33.923v17.51h4.091V694.211z"/>
	<path fill="#231F20" d="M851.324,713.766c0,1.131,0.915,2.046,2.045,2.046c1.131,0,2.045-0.915,2.045-2.046v-2.045h-4.09V713.766z"
		/>
	<path fill="#231F20" d="M758.628,715.812c1.131,0,2.046-0.915,2.046-2.046v-2.045h-4.091v2.045
		C756.583,714.896,757.498,715.812,758.628,715.812z"/>
</g>
<g>
	<g>
		<g>
			<path fill="#231F20" d="M1068.127,582.742c-0.476,0-0.915-0.184-1.246-0.516c-0.336-0.331-0.52-0.771-0.52-1.242
				c0-0.471,0.184-0.91,0.52-1.242l50.11-50.114c0.336-0.331,0.779-0.516,1.246-0.516c0.472,0,0.915,0.185,1.25,0.516
				c0.68,0.687,0.68,1.802-0.004,2.492l-50.118,50.106C1069.037,582.551,1068.59,582.742,1068.127,582.742z"/>
		</g>
	</g>
	<g>
		<g>
			<path fill="#231F20" d="M1068.127,559.844c-0.472,0-0.915-0.184-1.246-0.516c-0.336-0.331-0.52-0.774-0.52-1.246
				c0-0.467,0.184-0.91,0.52-1.246l27.216-27.208c0.332-0.331,0.771-0.516,1.238-0.516c0.472,0,0.911,0.185,1.246,0.516
				c0.683,0.687,0.683,1.802,0,2.488l-27.216,27.212C1069.037,559.656,1068.586,559.844,1068.127,559.844z"/>
		</g>
	</g>
	<g>
		<g>
			<path fill="#231F20" d="M1176.899,696.416c-3.031,0-5.496-2.469-5.496-5.496c0-3.028,2.465-5.496,5.496-5.496h31.366
				c3.027,0,5.488,2.468,5.488,5.496c0,3.027-2.461,5.496-5.488,5.496H1176.899z M1176.899,688.946
				c-1.086,0-1.969,0.887-1.969,1.974c0,1.086,0.883,1.973,1.969,1.973h31.366c1.082,0,1.965-0.887,1.965-1.973
				c0-1.087-0.883-1.974-1.965-1.974H1176.899z"/>
		</g>
	</g>
	<g>
		<g>
			<path fill="#231F20" d="M1067.368,704.979c-10.209,0-18.513-8.308-18.513-18.521V531.933c0-10.209,8.304-18.513,18.513-18.513
				h250.413c10.209,0,18.517,8.304,18.517,18.513v154.525c0,10.213-8.308,18.521-18.517,18.521H1067.368z M1067.368,516.935
				c-8.264,0-14.99,6.726-14.99,14.998v154.525c0,8.272,6.727,14.998,14.99,14.998h250.413c8.264,0,14.99-6.726,14.99-14.998
				V531.933c0-8.272-6.727-14.998-14.99-14.998H1067.368z"/>
		</g>
	</g>
	<g>
		<g>
			<path fill="#231F20" d="M1152.667,733.745l-0.464-1.022c-0.926-2.021-1.397-4.154-1.397-6.335c0-8.42,6.854-15.273,15.281-15.273
				h52.979c8.42,0,15.274,6.854,15.274,15.273c0,2.205-0.464,4.334-1.383,6.335l-0.471,1.022H1152.667z M1166.087,714.633
				c-6.479,0-11.75,5.276-11.75,11.755c0,1.183,0.176,2.345,0.522,3.467l0.116,0.376h75.202l0.115-0.376
				c0.344-1.099,0.52-2.269,0.52-3.467c0-6.479-5.269-11.755-11.747-11.755H1166.087z"/>
		</g>
	</g>
	<g>
		<g>
			<path fill="#231F20" d="M1204.942,574.626c-0.503,0-0.971-0.195-1.322-0.551l-13.708-13.696l13.704-13.7
				c0.352-0.355,0.823-0.547,1.326-0.547s0.979,0.191,1.334,0.547c0.735,0.735,0.735,1.93,0,2.664l-9.167,9.155h114.521
				c1.034,0,1.878,0.838,1.878,1.877c0,1.038-0.844,1.885-1.878,1.885h-114.524l9.171,9.155c0.731,0.734,0.731,1.925,0,2.66
				C1205.917,574.426,1205.445,574.626,1204.942,574.626z"/>
		</g>
	</g>
	<g>
		<g>
			<path fill="#231F20" d="M1151.704,616.233c-0.503,0-0.975-0.196-1.33-0.548l-13.695-13.699l13.695-13.696
				c0.355-0.355,0.827-0.552,1.33-0.552c0.504,0,0.979,0.196,1.334,0.556c0.731,0.727,0.731,1.925,0,2.656l-9.166,9.154h167.758
				c1.034,0,1.878,0.843,1.878,1.882c0,1.034-0.844,1.877-1.878,1.877h-167.754l9.162,9.162c0.731,0.735,0.731,1.926,0,2.66
				C1152.683,616.037,1152.208,616.233,1151.704,616.233z"/>
		</g>
	</g>
	<g>
		<g>
			<path fill="#231F20" d="M1107.893,657.844c-0.495,0-0.967-0.195-1.326-0.555l-13.695-13.692l1.481-1.481l0.004-0.231
				l12.21-11.987c0.355-0.351,0.827-0.551,1.33-0.551s0.975,0.2,1.33,0.551c0.727,0.735,0.727,1.93,0,2.66l-9.154,9.155h211.558
				c1.034,0,1.878,0.847,1.878,1.881s-0.844,1.882-1.878,1.882h-211.565l9.162,9.158c0.73,0.73,0.73,1.929,0,2.66
				C1108.871,657.648,1108.396,657.844,1107.893,657.844z"/>
		</g>
	</g>
</g>
<g>
	<g>
		<path fill="#231F20" d="M345.833,273.876c-12.034,0-23.35-4.687-31.861-13.196c-8.511-8.512-13.2-19.827-13.2-31.861
			c0-12.037,4.689-23.35,13.2-31.857c8.512-8.512,19.827-13.199,31.861-13.199c12.035,0,23.35,4.687,31.857,13.199
			c17.566,17.566,17.566,46.152,0,63.719C369.179,269.189,357.868,273.876,345.833,273.876z M345.833,187.853
			c-10.944,0-21.229,4.262-28.969,12c-7.737,7.737-12.002,18.024-12.002,28.966s4.266,21.231,12.002,28.969
			c7.737,7.737,18.025,11.999,28.969,11.999c10.94,0,21.229-4.262,28.966-11.999c15.973-15.973,15.973-41.962,0-57.935
			C367.062,192.114,356.773,187.853,345.833,187.853z"/>
	</g>
	<g>
		<path fill="#231F20" d="M324.84,249.027c-1.13,0-2.045-0.915-2.045-2.045v-35.214c0-1.13,0.915-2.045,2.045-2.045
			s2.045,0.915,2.045,2.045v35.214C326.885,248.112,325.97,249.027,324.84,249.027z"/>
	</g>
	<g>
		<path fill="#231F20" d="M345.829,240.266L345.829,240.266c-1.13,0-2.045-0.917-2.045-2.045l0.004-12.228
			c0-1.13,0.915-2.045,2.045-2.045l0,0c1.13,0,2.045,0.917,2.045,2.045l-0.004,12.228
			C347.874,239.351,346.959,240.266,345.829,240.266z"/>
	</g>
	<g>
		<path fill="#231F20" d="M432.858,201.85c-0.536,0-1.059-0.211-1.446-0.599l-58.011-58.013c-0.5-0.5-0.707-1.22-0.547-1.907
			c0.16-0.689,0.663-1.246,1.33-1.474l88.163-30.146c0.755-0.244,1.558-0.064,2.109,0.489c0.551,0.551,0.743,1.37,0.487,2.107
			l-30.152,88.159c-0.228,0.669-0.783,1.172-1.47,1.332C433.165,201.832,433.014,201.85,432.858,201.85z M378.613,142.665
			l53.37,53.374l27.744-81.107L378.613,142.665z"/>
	</g>
	<g>
		<path fill="#231F20" d="M217.989,355.417c-0.54,0-1.063-0.213-1.446-0.599l-42.074-42.08c-0.771-0.773-0.803-2.013-0.068-2.822
			l0.292-0.332c0.216-0.246,0.432-0.491,0.663-0.725c5.927-5.927,13.804-9.188,22.176-9.188c8.375,0,16.248,3.261,22.167,9.185
			l17.838,17.834c0.707,0.707,0.799,1.823,0.215,2.638l-18.101,25.237c-0.352,0.487-0.895,0.797-1.494,0.847
			C218.101,355.415,218.044,355.417,217.989,355.417z M178.762,311.248l38.971,38.975l15.685-21.868l-16.612-16.608
			c-5.148-5.15-11.994-7.986-19.275-7.986C190.489,303.761,183.851,306.415,178.762,311.248z"/>
	</g>
	<g>
		<path fill="#231F20" d="M263.358,400.785c-0.523,0-1.046-0.2-1.446-0.599l-42.078-42.08c-0.423-0.426-0.643-1.015-0.591-1.614
			c0.048-0.597,0.355-1.145,0.847-1.494l25.239-18.1c0.803-0.587,1.925-0.493,2.636,0.216l17.826,17.83
			c5.923,5.923,9.187,13.798,9.187,22.175c0,8.376-3.263,16.25-9.187,22.17c-0.244,0.244-0.495,0.465-0.747,0.687l-0.307,0.277
			C264.345,400.609,263.85,400.785,263.358,400.785z M224.431,356.917l38.967,38.969c4.837-5.086,7.489-11.723,7.489-18.767
			c0-7.283-2.836-14.133-7.988-19.284l-16.6-16.602L224.431,356.917z"/>
	</g>
	<g>
		<path fill="#231F20" d="M212.301,286.526c-0.248,0-0.491-0.044-0.727-0.134l-67.082-25.555c-0.751-0.286-1.266-0.985-1.314-1.788
			c-0.048-0.801,0.375-1.558,1.086-1.933l67.904-35.835c0.288-0.15,0.604-0.231,0.927-0.236l26.517-0.339c0.012,0,0.02,0,0.028,0
			c0.787,0,1.506,0.454,1.846,1.167c0.343,0.721,0.235,1.576-0.276,2.188c-15.773,18.917-24.815,39.311-26.873,60.617
			c-0.064,0.633-0.416,1.205-0.958,1.54C213.052,286.422,212.676,286.526,212.301,286.526z M150.172,258.625l60.384,23.004
			c2.452-19.899,10.768-38.969,24.755-56.777l-21.668,0.277L150.172,258.625z"/>
	</g>
	<g>
		<path fill="#231F20" d="M315.726,431.484c-0.04,0-0.084-0.004-0.124-0.008c-0.803-0.048-1.502-0.559-1.785-1.31l-25.559-67.091
			c-0.228-0.597-0.164-1.264,0.171-1.808c0.335-0.541,0.907-0.896,1.542-0.957c21.313-2.057,41.711-11.1,60.619-26.873
			c0.615-0.513,1.474-0.615,2.189-0.278c0.723,0.344,1.178,1.075,1.166,1.874l-0.339,26.515c-0.004,0.323-0.084,0.641-0.236,0.929
			l-35.835,67.912C317.179,431.064,316.48,431.484,315.726,431.484z M293.019,364.088l23.006,60.397l33.499-63.483l0.275-21.664
			C331.998,353.326,312.925,361.64,293.019,364.088z"/>
	</g>
	<g>
		<path fill="#231F20" d="M280.237,364.869c-3.339,0-6.742-0.162-10.117-0.477c-0.475-0.046-0.918-0.253-1.254-0.591l-23.793-23.795
			c-0.423-0.425-0.643-1.015-0.591-1.614c0.048-0.597,0.355-1.144,0.847-1.494l46.404-33.283l7.189-27.889l-27.883,7.193
			l-33.288,46.408c-0.352,0.487-0.895,0.796-1.494,0.847c-0.595,0.048-1.19-0.168-1.614-0.593l-23.793-23.793
			c-0.335-0.338-0.543-0.779-0.591-1.252c-0.639-6.75-0.639-13.562,0.004-20.25c2.141-22.14,11.5-43.283,27.808-62.844
			c46.424-55.668,135.326-81.363,136.216-81.616c0.711-0.196,1.482-0.002,2.005,0.521l58.011,58.013
			c0.523,0.523,0.723,1.29,0.523,2.003c-0.255,0.893-25.946,89.791-81.616,136.214c-19.555,16.312-40.7,25.667-62.848,27.803
			C287.02,364.706,283.612,364.869,280.237,364.869z M271.234,360.386c6.291,0.547,12.574,0.521,18.737-0.076
			c21.313-2.057,41.711-11.1,60.619-26.873c51.305-42.785,76.783-122.555,79.959-133.047l-56.286-56.292
			c-10.497,3.184-90.288,28.68-133.053,79.963c-15.773,18.917-24.815,39.311-26.873,60.617c-0.595,6.187-0.619,12.49-0.072,18.741
			l21.564,21.566l32.316-45.054c0.28-0.389,0.687-0.669,1.15-0.789l31.961-8.244c0.691-0.169,1.446,0.02,1.957,0.535
			c0.511,0.511,0.715,1.256,0.535,1.958l-8.244,31.965c-0.12,0.463-0.399,0.871-0.791,1.15l-45.046,32.311L271.234,360.386z"/>
	</g>
	<g>
		<path fill="#231F20" d="M209.657,367.038c-0.527,0-1.05-0.204-1.446-0.599c-0.707-0.707-0.799-1.823-0.216-2.638l60.152-83.869
			c0.28-0.389,0.687-0.669,1.15-0.789l31.961-8.244c0.691-0.169,1.446,0.02,1.957,0.535c0.511,0.511,0.715,1.256,0.535,1.958
			l-8.244,31.965c-0.12,0.463-0.399,0.871-0.791,1.15l-83.869,60.148C210.492,366.912,210.072,367.038,209.657,367.038z
			 M271.039,282.919l-52.491,73.183l73.185-52.487l7.189-27.889L271.039,282.919z"/>
	</g>
	<g>
		<path fill="#231F20" d="M110.742,407.942c-0.523,0-1.046-0.2-1.446-0.599c-0.799-0.799-0.799-2.093,0-2.892l66.323-66.325
			c0.799-0.799,2.093-0.799,2.892,0s0.799,2.093,0,2.892l-66.323,66.325C111.788,407.743,111.265,407.942,110.742,407.942z"/>
	</g>
	<g>
		<path fill="#231F20" d="M84.121,472.144c-0.523,0-1.046-0.2-1.446-0.599c-0.799-0.799-0.799-2.093,0-2.892l88.435-88.435
			c0.799-0.799,2.093-0.799,2.892,0s0.799,2.093,0,2.892l-88.435,88.434C85.167,471.944,84.644,472.144,84.121,472.144z"/>
	</g>
	<g>
		<path fill="#231F20" d="M162.362,438.054c-0.523,0-1.047-0.2-1.446-0.599c-0.799-0.799-0.799-2.093,0-2.892l44.994-45
			c0.799-0.799,2.093-0.799,2.892,0s0.799,2.093,0,2.892l-44.994,45C163.409,437.854,162.885,438.054,162.362,438.054z"/>
	</g>
	<g>
		<path fill="#231F20" d="M119.968,517.554c-0.523,0-1.046-0.2-1.446-0.6c-0.799-0.799-0.799-2.093,0-2.892l78.872-78.872
			c0.799-0.799,2.093-0.799,2.892,0s0.799,2.093,0,2.892l-78.873,78.872C121.015,517.354,120.491,517.554,119.968,517.554z"/>
	</g>
</g>
<g>
	<path fill="#231F20" d="M877.886,265.116c-0.136,0-0.268-0.012-0.403-0.04l-1.271-0.254c-4.849-1.008-9.486-2.654-13.8-4.895
		l-1.138-0.597c-0.983-0.511-1.374-1.709-0.896-2.704l0.56-1.152c2.4-4.965,1.41-10.922-2.465-14.824
		c-3.798-3.842-9.933-4.903-14.83-2.576l-1.17,0.547c-0.999,0.472-2.193,0.058-2.692-0.93l-0.579-1.148
		c-2.229-4.406-3.847-9.099-4.813-13.944l-0.256-1.244c-0.224-1.096,0.476-2.168,1.569-2.406l1.255-0.274
		c2.44-0.539,4.673-1.745,6.442-3.487c5.076-5.048,5.112-13.3,0.071-18.387c-1.038-1.037-2.265-1.899-3.643-2.557l-1.178-0.573
		c-1.003-0.489-1.431-1.692-0.959-2.704l0.547-1.174c2.098-4.529,4.777-8.731,7.965-12.482l0.854-0.982
		c0.715-0.829,1.957-0.94,2.816-0.258l0.994,0.793c4.957,4.002,12.733,3.639,17.303-0.889c3.167-3.153,4.489-7.641,3.531-12
		l-0.284-1.248c-0.247-1.084,0.42-2.167,1.498-2.437l1.254-0.313c4.761-1.162,9.63-1.666,14.511-1.538l1.274,0.034
		c1.106,0.03,1.989,0.937,1.989,2.045v1.28c-0.017,3.457,1.317,6.704,3.762,9.148c4.886,4.929,13.44,4.973,18.397,0.072
		c0.323-0.332,0.647-0.709,0.942-1.079l0.807-0.995c0.695-0.858,1.949-1.008,2.824-0.341l1.015,0.769
		c1.978,1.496,3.866,3.149,5.616,4.913c1.669,1.688,3.251,3.527,4.849,5.625l0.782,1.025c0.676,0.891,0.512,2.159-0.367,2.848
		l-1.011,0.791c-0.383,0.307-0.763,0.643-1.126,0.982c-5.028,5.009-5.057,13.271-0.004,18.361c2.42,2.435,5.668,3.799,9.143,3.843
		l1.282,0.02c1.103,0.018,1.993,0.905,2.013,2.007l0.024,1.276c0.107,4.881-0.447,9.748-1.649,14.461l-0.32,1.242
		c-0.275,1.07-1.326,1.733-2.432,1.484l-1.238-0.28c-4.118-0.918-8.907,0.338-12.051,3.443c-4.697,4.671-5.133,12.106-1.015,17.291
		l0.799,1.008c0.684,0.867,0.556,2.123-0.291,2.834l-0.975,0.819c-3.835,3.201-8.072,5.857-12.605,7.9l-1.163,0.535
		c-1.018,0.467-2.229,0.028-2.708-0.995l-0.547-1.176c-0.643-1.38-1.525-2.656-2.632-3.798c-4.845-4.889-13.433-4.937-18.365-0.044
		c-1.766,1.746-2.992,3.978-3.547,6.46l-0.275,1.256C879.671,264.46,878.828,265.116,877.886,265.116z M864.917,256.612
		c3.595,1.801,7.429,3.164,11.415,4.052c0.795-2.979,2.336-5.654,4.489-7.781c3.22-3.199,7.497-4.962,12.042-4.962
		c4.594,0,8.899,1.793,12.127,5.048c1.258,1.302,2.292,2.732,3.091,4.272c3.743-1.753,7.258-3.957,10.469-6.563
		c-4.944-6.782-4.237-16.192,1.773-22.169c3.95-3.915,9.75-5.618,15.126-4.671c0.938-3.918,1.398-7.954,1.366-12.012
		c-4.282-0.222-8.269-1.993-11.283-5.027c-6.639-6.69-6.606-17.542,0.071-24.194c0.296-0.276,0.583-0.533,0.867-0.779
		c-1.342-1.726-2.681-3.257-4.066-4.666c-1.45-1.458-3.004-2.837-4.629-4.104c-0.244,0.283-0.5,0.567-0.768,0.843
		c-3.255,3.221-7.532,4.982-12.065,4.982c-4.598,0-8.907-1.793-12.135-5.051c-3.043-3.045-4.785-7.043-4.94-11.319
		c-3.998-0.064-8.076,0.368-12.034,1.272c0.979,5.524-0.783,11.114-4.781,15.094c-3.228,3.193-7.497,4.951-12.022,4.951
		c-3.663-0.004-7.237-1.184-10.153-3.339c-2.6,3.145-4.829,6.638-6.63,10.391c1.529,0.807,2.915,1.827,4.126,3.031
		c6.63,6.694,6.586,17.539-0.096,24.183c-2.153,2.119-4.813,3.629-7.733,4.402c0.863,4.014,2.205,7.904,4.002,11.587
		c6.348-2.686,14.008-1.194,18.833,3.687C866.307,242.73,867.688,250.221,864.917,256.612z"/>
</g>
<g>
	<path fill="#231F20" d="M887.5,241.484c-16.385,0-29.717-13.331-29.717-29.717c0-16.388,13.332-29.72,29.717-29.72
		c16.384,0,29.716,13.333,29.716,29.72C917.216,228.154,903.884,241.484,887.5,241.484z M887.5,186.137
		c-14.132,0-25.627,11.497-25.627,25.63c0,14.131,11.495,25.626,25.627,25.626c14.131,0,25.626-11.495,25.626-25.626
		C913.126,197.634,901.631,186.137,887.5,186.137z"/>
</g>
</svg>
